<svg xmlns="http://www.w3.org/2000/svg" width="45" height="45" viewBox="0 0 45 45" fill="none">
  <path d="M22.5 18.75C18.3579 18.75 15 15.3921 15 11.25C15 7.10787 18.3579 3.75 22.5 3.75C26.6421 3.75 30 7.10786 30 11.25C30 15.3921 26.6421 18.75 22.5 18.75Z" stroke="#D9D9D9" stroke-width="3"/>
  <path d="M16.875 38.6533C18.5799 39.1161 20.487 39.375 22.5 39.375C29.7487 39.375 35.625 36.0171 35.625 31.875C35.625 27.7329 29.7487 24.375 22.5 24.375C15.2513 24.375 9.375 27.7329 9.375 31.875C9.375 32.5224 9.51863 33.1508 9.78844 33.75" stroke="#D9D9D9" stroke-width="3" stroke-linecap="round"/>
</svg>