<svg width="420" height="242" viewBox="0 0 420 242" fill="none" xmlns="http://www.w3.org/2000/svg">
<rect width="420" height="215" rx="12" fill="#4EB7F2"/>
<mask id="mask0_5_504" style="mask-type:alpha" maskUnits="userSpaceOnUse" x="0" y="0" width="420" height="215">
<rect width="420" height="215" rx="12" fill="#396B5F"/>
</mask>
<g mask="url(#mask0_5_504)">
<g filter="url(#filter0_f_5_504)">
<ellipse cx="324.896" cy="32.5" rx="290.812" ry="228.5" fill="white" fill-opacity="0.1"/>
</g>
<ellipse cx="-11.5" cy="213" rx="187.5" ry="77" fill="black" fill-opacity="0.04"/>
<ellipse cx="410" cy="32.5" rx="115" ry="60.5" fill="black" fill-opacity="0.04"/>
<path d="M632.829 7.22339C520.986 20.4929 345.636 47.3471 434.843 132.119C548.366 239.997 825.779 211.736 702.57 295" stroke="white" stroke-opacity="0.14"/>
<path d="M592.845 5.96655C481.001 19.2361 305.651 46.0903 394.858 130.862C508.381 238.741 785.794 210.479 662.585 293.743" stroke="white" stroke-opacity="0.14"/>
<path d="M552.86 2.19678C441.016 15.4663 265.666 42.3205 354.874 127.092C468.396 234.971 745.809 206.71 622.6 289.973" stroke="white" stroke-opacity="0.14"/>
<path d="M513.373 -2.82996C402.084 10.4396 227.602 37.2938 316.367 122.066C429.328 229.944 705.367 201.683 582.769 284.947" stroke="white" stroke-opacity="0.14"/>
<path d="M474.489 -7.85669C362.646 5.41284 187.296 32.2671 276.503 117.039C390.025 224.917 667.438 196.656 544.23 279.92" stroke="white" stroke-opacity="0.14"/>
<path d="M435.003 -12.8833C323.713 0.386233 149.231 27.2405 237.997 112.012C350.957 219.891 626.997 191.63 504.398 274.893" stroke="white" stroke-opacity="0.14"/>
<path d="M395.018 -17.91C283.729 -4.6405 109.247 22.2137 198.012 106.986C310.973 214.864 587.012 186.603 464.414 269.867" stroke="white" stroke-opacity="0.14"/>
<path d="M356.135 -22.9366C244.291 -9.66711 68.9413 17.1871 158.148 101.959C271.671 209.837 549.084 181.576 425.875 264.84" stroke="white" stroke-opacity="0.14"/>
<path d="M316.149 -26.7065C204.305 -13.437 28.9554 13.4172 118.163 98.1891C231.685 206.067 509.098 177.806 385.889 261.07" stroke="white" stroke-opacity="0.14"/>
<path d="M276.663 -29.22C165.373 -15.9504 -9.10874 10.9038 79.6568 95.6757C192.617 203.554 468.657 175.293 346.058 258.557" stroke="white" stroke-opacity="0.14"/>
<path d="M236.678 -31.7333C125.388 -18.4637 -49.0936 8.39047 39.6719 93.1624C152.632 201.041 428.672 172.78 306.073 256.043" stroke="white" stroke-opacity="0.14"/>
<path d="M196.693 -34.2467C85.4033 -20.9772 -89.0785 5.87705 -0.312945 90.649C112.647 198.527 388.687 170.266 266.089 253.53" stroke="white" stroke-opacity="0.14"/>
<path d="M156.708 -35.5033C45.4185 -22.2338 -129.063 4.62046 -40.2978 89.3924C72.6626 197.271 348.702 169.01 226.104 252.273" stroke="white" stroke-opacity="0.14"/>
<path d="M116.723 -35.5033C5.4336 -22.2338 -169.048 4.62046 -80.2827 89.3924C32.6777 197.271 308.717 169.01 186.119 252.273" stroke="white" stroke-opacity="0.14"/>
<path d="M77.8396 -36.76C-34.0038 -23.4905 -209.354 3.36374 -120.147 88.1357C-6.62414 196.014 270.789 167.753 147.58 251.017" stroke="white" stroke-opacity="0.14"/>
<path d="M37.8548 -35.5033C-73.9886 -22.2338 -249.339 4.62046 -160.131 89.3924C-46.609 197.271 230.804 169.01 107.595 252.273" stroke="white" stroke-opacity="0.14"/>
<path d="M-2.13009 -34.2467C-113.974 -20.9772 -289.323 5.87705 -200.116 90.649C-86.5939 198.527 190.819 170.266 67.6106 253.53" stroke="white" stroke-opacity="0.14"/>
<path d="M-42.1145 -31.7333C-153.958 -18.4637 -329.308 8.39047 -240.101 93.1624C-126.578 201.041 150.835 172.78 27.6262 256.043" stroke="white" stroke-opacity="0.14"/>
<path d="M-82.0998 -29.22C-193.943 -15.9504 -369.293 10.9038 -280.086 95.6757C-166.564 203.554 110.849 175.293 -12.3591 258.557" stroke="white" stroke-opacity="0.14"/>
</g>
<path d="M157.064 150.24C161.072 150.24 164.096 147.12 164.096 141.6C164.096 136.08 161.072 132.96 157.064 132.96C153.08 132.96 150.056 136.08 150.056 141.6C150.056 147.12 153.08 150.24 157.064 150.24ZM157.064 147.528C154.784 147.528 153.2 145.656 153.2 141.6C153.2 137.544 154.784 135.672 157.064 135.672C159.368 135.672 160.952 137.544 160.952 141.6C160.952 145.656 159.368 147.528 157.064 147.528ZM171.868 132.96C168.436 132.96 165.724 135.072 165.724 138.408C165.724 141.552 168.196 143.568 171.508 143.568C173.38 143.568 174.988 142.992 175.996 141.816V141.84C175.996 145.656 174.004 147.624 170.836 147.624C169.66 147.624 168.556 147.408 167.644 146.808L166.492 149.16C167.62 149.88 169.228 150.24 170.908 150.24C175.78 150.24 179.14 147.072 179.14 141.312C179.14 135.912 176.452 132.96 171.868 132.96ZM172.108 141.12C170.068 141.12 168.748 140.016 168.748 138.264C168.748 136.512 170.092 135.408 172.036 135.408C174.268 135.408 175.516 136.656 175.516 138.24C175.516 139.896 174.124 141.12 172.108 141.12ZM180.27 133.2V135.816H183.822V150H186.942V133.2H180.27ZM201.171 141.168C202.539 140.424 203.307 139.224 203.307 137.64C203.307 134.76 200.763 132.96 197.019 132.96C193.299 132.96 190.779 134.76 190.779 137.64C190.779 139.224 191.523 140.424 192.867 141.168C191.139 141.96 190.179 143.328 190.179 145.176C190.179 148.296 192.843 150.24 197.019 150.24C201.195 150.24 203.907 148.296 203.907 145.176C203.907 143.328 202.923 141.96 201.171 141.168ZM197.019 135.408C198.939 135.408 200.235 136.272 200.235 137.784C200.235 139.224 199.011 140.136 197.019 140.136C195.051 140.136 193.851 139.224 193.851 137.784C193.851 136.272 195.099 135.408 197.019 135.408ZM197.019 147.792C194.715 147.792 193.323 146.784 193.323 145.08C193.323 143.424 194.715 142.392 197.019 142.392C199.323 142.392 200.763 143.424 200.763 145.08C200.763 146.784 199.323 147.792 197.019 147.792ZM223.46 141.168C224.828 140.424 225.596 139.224 225.596 137.64C225.596 134.76 223.052 132.96 219.308 132.96C215.588 132.96 213.068 134.76 213.068 137.64C213.068 139.224 213.812 140.424 215.156 141.168C213.428 141.96 212.468 143.328 212.468 145.176C212.468 148.296 215.132 150.24 219.308 150.24C223.484 150.24 226.196 148.296 226.196 145.176C226.196 143.328 225.212 141.96 223.46 141.168ZM219.308 135.408C221.228 135.408 222.524 136.272 222.524 137.784C222.524 139.224 221.3 140.136 219.308 140.136C217.34 140.136 216.14 139.224 216.14 137.784C216.14 136.272 217.388 135.408 219.308 135.408ZM219.308 147.792C217.004 147.792 215.612 146.784 215.612 145.08C215.612 143.424 217.004 142.392 219.308 142.392C221.612 142.392 223.052 143.424 223.052 145.08C223.052 146.784 221.612 147.792 219.308 147.792ZM227.356 133.2V135.816H230.908V150H234.028V133.2H227.356ZM241.609 147.36L246.097 143.088C248.425 140.904 248.881 139.416 248.881 137.784C248.881 134.808 246.529 132.96 242.881 132.96C240.121 132.96 237.793 133.992 236.497 135.744L238.681 137.424C239.617 136.224 240.985 135.672 242.617 135.672C244.681 135.672 245.737 136.56 245.737 138.096C245.737 139.032 245.449 140.016 243.817 141.576L237.145 147.912V150H249.529V147.36H241.609ZM265.954 143.544H262.978V140.16H260.05V143.544H254.554L262.354 133.2H259.018L250.738 144.024V146.184H259.954V150H262.978V146.184H265.954V143.544ZM280.908 150.24C284.916 150.24 287.94 147.12 287.94 141.6C287.94 136.08 284.916 132.96 280.908 132.96C276.924 132.96 273.9 136.08 273.9 141.6C273.9 147.12 276.924 150.24 280.908 150.24ZM280.908 147.528C278.628 147.528 277.044 145.656 277.044 141.6C277.044 137.544 278.628 135.672 280.908 135.672C283.212 135.672 284.796 137.544 284.796 141.6C284.796 145.656 283.212 147.528 280.908 147.528ZM297.056 150.24C301.064 150.24 304.088 147.12 304.088 141.6C304.088 136.08 301.064 132.96 297.056 132.96C293.072 132.96 290.048 136.08 290.048 141.6C290.048 147.12 293.072 150.24 297.056 150.24ZM297.056 147.528C294.776 147.528 293.192 145.656 293.192 141.6C293.192 137.544 294.776 135.672 297.056 135.672C299.36 135.672 300.944 137.544 300.944 141.6C300.944 145.656 299.36 147.528 297.056 147.528ZM321.173 143.544H318.197V140.16H315.269V143.544H309.773L317.573 133.2H314.237L305.957 144.024V146.184H315.173V150H318.197V146.184H321.173V143.544ZM326.663 147.36L331.151 143.088C333.479 140.904 333.935 139.416 333.935 137.784C333.935 134.808 331.583 132.96 327.935 132.96C325.175 132.96 322.847 133.992 321.551 135.744L323.735 137.424C324.671 136.224 326.039 135.672 327.671 135.672C329.735 135.672 330.791 136.56 330.791 138.096C330.791 139.032 330.503 140.016 328.871 141.576L322.199 147.912V150H334.583V147.36H326.663ZM353.913 141.168C355.281 140.424 356.049 139.224 356.049 137.64C356.049 134.76 353.505 132.96 349.761 132.96C346.041 132.96 343.521 134.76 343.521 137.64C343.521 139.224 344.265 140.424 345.609 141.168C343.881 141.96 342.921 143.328 342.921 145.176C342.921 148.296 345.585 150.24 349.761 150.24C353.937 150.24 356.649 148.296 356.649 145.176C356.649 143.328 355.665 141.96 353.913 141.168ZM349.761 135.408C351.681 135.408 352.977 136.272 352.977 137.784C352.977 139.224 351.753 140.136 349.761 140.136C347.793 140.136 346.593 139.224 346.593 137.784C346.593 136.272 347.841 135.408 349.761 135.408ZM349.761 147.792C347.457 147.792 346.065 146.784 346.065 145.08C346.065 143.424 347.457 142.392 349.761 142.392C352.065 142.392 353.505 143.424 353.505 145.08C353.505 146.784 352.065 147.792 349.761 147.792ZM357.809 133.2V135.816H361.361V150H364.481V133.2H357.809ZM372.062 147.36L376.55 143.088C378.878 140.904 379.334 139.416 379.334 137.784C379.334 134.808 376.982 132.96 373.334 132.96C370.574 132.96 368.246 133.992 366.95 135.744L369.134 137.424C370.07 136.224 371.438 135.672 373.07 135.672C375.134 135.672 376.19 136.56 376.19 138.096C376.19 139.032 375.902 140.016 374.27 141.576L367.598 147.912V150H379.982V147.36H372.062ZM387.447 132.96C384.015 132.96 381.303 135.072 381.303 138.408C381.303 141.552 383.775 143.568 387.087 143.568C388.959 143.568 390.567 142.992 391.575 141.816V141.84C391.575 145.656 389.583 147.624 386.415 147.624C385.239 147.624 384.135 147.408 383.223 146.808L382.071 149.16C383.199 149.88 384.807 150.24 386.487 150.24C391.359 150.24 394.719 147.072 394.719 141.312C394.719 135.912 392.031 132.96 387.447 132.96ZM387.687 141.12C385.647 141.12 384.327 140.016 384.327 138.264C384.327 136.512 385.671 135.408 387.615 135.408C389.847 135.408 391.095 136.656 391.095 138.24C391.095 139.896 389.703 141.12 387.687 141.12Z" fill="white"/>
<path d="M313.936 172.8V184H312.784V173.824H310.144V172.8H313.936ZM324.261 182.976V184H316.405V183.184L321.061 178.624C321.648 178.048 322.043 177.552 322.245 177.136C322.459 176.709 322.565 176.283 322.565 175.856C322.565 175.195 322.336 174.683 321.877 174.32C321.429 173.947 320.784 173.76 319.941 173.76C318.629 173.76 317.611 174.176 316.885 175.008L316.069 174.304C316.507 173.792 317.061 173.397 317.733 173.12C318.416 172.843 319.184 172.704 320.037 172.704C321.179 172.704 322.08 172.976 322.741 173.52C323.413 174.053 323.749 174.789 323.749 175.728C323.749 176.304 323.621 176.859 323.365 177.392C323.109 177.925 322.624 178.539 321.909 179.232L318.101 182.976H324.261ZM329.911 170.528H330.951L325.671 185.6H324.631L329.911 170.528ZM338.871 182.976V184H331.015V183.184L335.671 178.624C336.257 178.048 336.652 177.552 336.855 177.136C337.068 176.709 337.175 176.283 337.175 175.856C337.175 175.195 336.945 174.683 336.487 174.32C336.039 173.947 335.393 173.76 334.551 173.76C333.239 173.76 332.22 174.176 331.495 175.008L330.679 174.304C331.116 173.792 331.671 173.397 332.343 173.12C333.025 172.843 333.793 172.704 334.647 172.704C335.788 172.704 336.689 172.976 337.351 173.52C338.023 174.053 338.359 174.789 338.359 175.728C338.359 176.304 338.231 176.859 337.975 177.392C337.719 177.925 337.233 178.539 336.519 179.232L332.711 182.976H338.871ZM344.718 184.096C343.854 184.096 343.081 183.867 342.398 183.408C341.726 182.949 341.198 182.293 340.814 181.44C340.441 180.576 340.254 179.563 340.254 178.4C340.254 177.237 340.441 176.229 340.814 175.376C341.198 174.512 341.726 173.851 342.398 173.392C343.081 172.933 343.854 172.704 344.718 172.704C345.582 172.704 346.35 172.933 347.022 173.392C347.705 173.851 348.238 174.512 348.622 175.376C349.006 176.229 349.198 177.237 349.198 178.4C349.198 179.563 349.006 180.576 348.622 181.44C348.238 182.293 347.705 182.949 347.022 183.408C346.35 183.867 345.582 184.096 344.718 184.096ZM344.718 183.04C345.369 183.04 345.939 182.859 346.43 182.496C346.931 182.133 347.321 181.605 347.598 180.912C347.875 180.219 348.014 179.381 348.014 178.4C348.014 177.419 347.875 176.581 347.598 175.888C347.321 175.195 346.931 174.667 346.43 174.304C345.939 173.941 345.369 173.76 344.718 173.76C344.067 173.76 343.491 173.941 342.99 174.304C342.499 174.667 342.115 175.195 341.838 175.888C341.561 176.581 341.422 177.419 341.422 178.4C341.422 179.381 341.561 180.219 341.838 180.912C342.115 181.605 342.499 182.133 342.99 182.496C343.491 182.859 344.067 183.04 344.718 183.04Z" fill="white"/>
<path d="M357.96 180.16V179.168H362.152V180.16H357.96Z" fill="white"/>
<path d="M372.784 184V173.28L373.296 173.824H370.144V172.8H373.936V184H372.784ZM376.405 184V183.184L381.061 178.624C381.488 178.208 381.808 177.845 382.021 177.536C382.235 177.216 382.379 176.917 382.453 176.64C382.528 176.363 382.565 176.101 382.565 175.856C382.565 175.205 382.341 174.693 381.893 174.32C381.456 173.947 380.805 173.76 379.941 173.76C379.28 173.76 378.693 173.861 378.181 174.064C377.68 174.267 377.248 174.581 376.885 175.008L376.069 174.304C376.507 173.792 377.067 173.397 377.749 173.12C378.432 172.843 379.195 172.704 380.037 172.704C380.795 172.704 381.451 172.827 382.005 173.072C382.56 173.307 382.987 173.653 383.285 174.112C383.595 174.571 383.749 175.109 383.749 175.728C383.749 176.091 383.696 176.448 383.589 176.8C383.493 177.152 383.312 177.525 383.045 177.92C382.789 178.304 382.411 178.741 381.909 179.232L377.637 183.424L377.317 182.976H384.261V184H376.405ZM385.156 181.056V180.224L391.092 172.8H392.372L386.484 180.224L385.86 180.032H394.868V181.056H385.156ZM391.476 184V181.056L391.508 180.032V177.44H392.628V184H391.476Z" fill="white"/>
<path d="M37.336 36.096C35.9067 36.096 34.7813 35.6853 33.96 34.864C33.1387 34.0427 32.728 32.8267 32.728 31.216V24.8H33.912V31.168C33.912 32.4907 34.2107 33.4667 34.808 34.096C35.4053 34.7253 36.248 35.04 37.336 35.04C38.4347 35.04 39.2827 34.7253 39.88 34.096C40.4773 33.4667 40.776 32.4907 40.776 31.168V24.8H41.928V31.216C41.928 32.8267 41.5173 34.0427 40.696 34.864C39.8853 35.6853 38.7653 36.096 37.336 36.096ZM44.3439 36V35.248L49.9439 28.16L50.1839 28.544H44.4399V27.6H51.0799V28.336L45.4959 35.44L45.2079 35.056H51.1919V36H44.3439ZM56.7751 36.08C55.9431 36.08 55.1965 35.8987 54.5351 35.536C53.8845 35.1627 53.3725 34.656 52.9991 34.016C52.6258 33.3653 52.4391 32.624 52.4391 31.792C52.4391 30.9493 52.6258 30.208 52.9991 29.568C53.3725 28.928 53.8845 28.4267 54.5351 28.064C55.1965 27.7013 55.9431 27.52 56.7751 27.52C57.4898 27.52 58.1351 27.6587 58.7111 27.936C59.2871 28.2133 59.7405 28.6293 60.0711 29.184L59.2231 29.76C58.9351 29.3333 58.5778 29.0187 58.1511 28.816C57.7245 28.6133 57.2605 28.512 56.7591 28.512C56.1618 28.512 55.6231 28.6507 55.1431 28.928C54.6631 29.1947 54.2845 29.5733 54.0071 30.064C53.7298 30.5547 53.5911 31.1307 53.5911 31.792C53.5911 32.4533 53.7298 33.0293 54.0071 33.52C54.2845 34.0107 54.6631 34.3947 55.1431 34.672C55.6231 34.9387 56.1618 35.072 56.7591 35.072C57.2605 35.072 57.7245 34.9707 58.1511 34.768C58.5778 34.5653 58.9351 34.256 59.2231 33.84L60.0711 34.416C59.7405 34.96 59.2871 35.376 58.7111 35.664C58.1351 35.9413 57.4898 36.08 56.7751 36.08ZM67.5668 36V34.144L67.5188 33.84V30.736C67.5188 30.0213 67.3161 29.472 66.9108 29.088C66.5161 28.704 65.9241 28.512 65.1348 28.512C64.5908 28.512 64.0734 28.6027 63.5828 28.784C63.0921 28.9653 62.6761 29.2053 62.3348 29.504L61.8228 28.656C62.2494 28.2933 62.7614 28.016 63.3588 27.824C63.9561 27.6213 64.5854 27.52 65.2468 27.52C66.3348 27.52 67.1721 27.792 67.7588 28.336C68.3561 28.8693 68.6548 29.6853 68.6548 30.784V36H67.5668ZM64.6708 36.08C64.0414 36.08 63.4921 35.9787 63.0228 35.776C62.5641 35.5627 62.2121 35.2747 61.9668 34.912C61.7214 34.5387 61.5988 34.112 61.5988 33.632C61.5988 33.1947 61.7001 32.8 61.9028 32.448C62.1161 32.0853 62.4574 31.7973 62.9268 31.584C63.4068 31.36 64.0468 31.248 64.8468 31.248H67.7428V32.096H64.8788C64.0681 32.096 63.5028 32.24 63.1828 32.528C62.8734 32.816 62.7188 33.1733 62.7188 33.6C62.7188 34.08 62.9054 34.464 63.2788 34.752C63.6521 35.04 64.1748 35.184 64.8468 35.184C65.4868 35.184 66.0361 35.04 66.4948 34.752C66.9641 34.4533 67.3054 34.0267 67.5188 33.472L67.7748 34.256C67.5614 34.8107 67.1881 35.2533 66.6548 35.584C66.1321 35.9147 65.4708 36.08 64.6708 36.08ZM71.7403 36V27.6H72.8283V29.888L72.7163 29.488C72.9509 28.848 73.3456 28.3627 73.9003 28.032C74.4549 27.6907 75.1429 27.52 75.9643 27.52V28.624C75.9216 28.624 75.8789 28.624 75.8363 28.624C75.7936 28.6133 75.7509 28.608 75.7083 28.608C74.8229 28.608 74.1296 28.88 73.6283 29.424C73.1269 29.9573 72.8763 30.72 72.8763 31.712V36H71.7403ZM81.303 36.08C80.503 36.08 79.783 35.8987 79.143 35.536C78.5137 35.1733 78.0177 34.672 77.655 34.032C77.2923 33.3813 77.111 32.6347 77.111 31.792C77.111 30.9387 77.2923 30.192 77.655 29.552C78.0177 28.912 78.5137 28.416 79.143 28.064C79.783 27.7013 80.503 27.52 81.303 27.52C82.039 27.52 82.695 27.6853 83.271 28.016C83.8577 28.3467 84.3217 28.832 84.663 29.472C85.015 30.1013 85.191 30.8747 85.191 31.792C85.191 32.6987 85.0203 33.472 84.679 34.112C84.3377 34.752 83.8737 35.2427 83.287 35.584C82.711 35.9147 82.0497 36.08 81.303 36.08ZM81.383 35.072C81.9803 35.072 82.5137 34.9387 82.983 34.672C83.463 34.3947 83.8363 34.0107 84.103 33.52C84.3803 33.0187 84.519 32.4427 84.519 31.792C84.519 31.1307 84.3803 30.5547 84.103 30.064C83.8363 29.5733 83.463 29.1947 82.983 28.928C82.5137 28.6507 81.9803 28.512 81.383 28.512C80.7963 28.512 80.2683 28.6507 79.799 28.928C79.3297 29.1947 78.9563 29.5733 78.679 30.064C78.4017 30.5547 78.263 31.1307 78.263 31.792C78.263 32.4427 78.4017 33.0187 78.679 33.52C78.9563 34.0107 79.3297 34.3947 79.799 34.672C80.2683 34.9387 80.7963 35.072 81.383 35.072ZM84.551 36V33.472L84.663 31.776L84.503 30.08V24.128H85.639V36H84.551Z" fill="white"/>
<path d="M30.98 67L37.32 53H39.3L45.66 67H43.56L37.9 54.12H38.7L33.04 67H30.98ZM33.68 63.5L34.22 61.9H42.1L42.68 63.5H33.68ZM49.0284 64.44L49.0684 61.98L55.1684 56.4H57.4884L52.8084 61L51.7684 61.88L49.0284 64.44ZM47.4684 67V52.16H49.3884V67H47.4684ZM55.5684 67L51.4084 61.84L52.6484 60.3L57.9284 67H55.5684ZM65.4527 56.3C66.3193 56.3 67.0793 56.4667 67.7327 56.8C68.3993 57.1333 68.9193 57.64 69.2927 58.32C69.666 59 69.8527 59.86 69.8527 60.9V67H67.9327V61.12C67.9327 60.0933 67.6793 59.32 67.1727 58.8C66.6793 58.28 65.9793 58.02 65.0727 58.02C64.3927 58.02 63.7993 58.1533 63.2927 58.42C62.786 58.6867 62.3927 59.08 62.1127 59.6C61.846 60.12 61.7127 60.7667 61.7127 61.54V67H59.7927V52.16H61.7127V59.26L61.3327 58.5C61.6793 57.8067 62.2127 57.2667 62.9327 56.88C63.6527 56.4933 64.4927 56.3 65.4527 56.3ZM86.6659 56.3C87.5193 56.3 88.2726 56.4667 88.9259 56.8C89.5793 57.1333 90.0859 57.64 90.4459 58.32C90.8193 59 91.0059 59.86 91.0059 60.9V67H89.0859V61.12C89.0859 60.0933 88.8459 59.32 88.3659 58.8C87.8859 58.28 87.2126 58.02 86.3459 58.02C85.7059 58.02 85.1459 58.1533 84.6659 58.42C84.1859 58.6867 83.8126 59.08 83.5459 59.6C83.2926 60.12 83.1659 60.7667 83.1659 61.54V67H81.2459V61.12C81.2459 60.0933 81.0059 59.32 80.5259 58.8C80.0593 58.28 79.3859 58.02 78.5059 58.02C77.8793 58.02 77.3259 58.1533 76.8459 58.42C76.3659 58.6867 75.9926 59.08 75.7259 59.6C75.4593 60.12 75.3259 60.7667 75.3259 61.54V67H73.4059V56.4H75.2459V59.22L74.9459 58.5C75.2793 57.8067 75.7926 57.2667 76.4859 56.88C77.1793 56.4933 77.9859 56.3 78.9059 56.3C79.9193 56.3 80.7926 56.5533 81.5259 57.06C82.2593 57.5533 82.7393 58.3067 82.9659 59.32L82.1859 59C82.5059 58.1867 83.0659 57.5333 83.8659 57.04C84.6659 56.5467 85.5993 56.3 86.6659 56.3ZM99.2588 67.12C98.1254 67.12 97.1254 66.8867 96.2588 66.42C95.4054 65.9533 94.7388 65.3133 94.2588 64.5C93.7921 63.6867 93.5588 62.7533 93.5588 61.7C93.5588 60.6467 93.7854 59.7133 94.2388 58.9C94.7054 58.0867 95.3388 57.4533 96.1388 57C96.9521 56.5333 97.8654 56.3 98.8788 56.3C99.9054 56.3 100.812 56.5267 101.599 56.98C102.385 57.4333 102.999 58.0733 103.439 58.9C103.892 59.7133 104.119 60.6667 104.119 61.76C104.119 61.84 104.112 61.9333 104.099 62.04C104.099 62.1467 104.092 62.2467 104.079 62.34H95.0588V60.96H103.079L102.299 61.44C102.312 60.76 102.172 60.1533 101.879 59.62C101.585 59.0867 101.179 58.6733 100.659 58.38C100.152 58.0733 99.5588 57.92 98.8788 57.92C98.2121 57.92 97.6188 58.0733 97.0988 58.38C96.5788 58.6733 96.1721 59.0933 95.8788 59.64C95.5854 60.1733 95.4388 60.7867 95.4388 61.48V61.8C95.4388 62.5067 95.5988 63.14 95.9188 63.7C96.2521 64.2467 96.7121 64.6733 97.2988 64.98C97.8854 65.2867 98.5588 65.44 99.3188 65.44C99.9454 65.44 100.512 65.3333 101.019 65.12C101.539 64.9067 101.992 64.5867 102.379 64.16L103.439 65.4C102.959 65.96 102.359 66.3867 101.639 66.68C100.932 66.9733 100.139 67.12 99.2588 67.12ZM111.165 67.12C110.138 67.12 109.218 66.8933 108.405 66.44C107.605 65.9867 106.972 65.3533 106.505 64.54C106.038 63.7267 105.805 62.78 105.805 61.7C105.805 60.62 106.038 59.68 106.505 58.88C106.972 58.0667 107.605 57.4333 108.405 56.98C109.218 56.5267 110.138 56.3 111.165 56.3C112.058 56.3 112.865 56.5 113.585 56.9C114.305 57.3 114.878 57.9 115.305 58.7C115.745 59.5 115.965 60.5 115.965 61.7C115.965 62.9 115.752 63.9 115.325 64.7C114.912 65.5 114.345 66.1067 113.625 66.52C112.905 66.92 112.085 67.12 111.165 67.12ZM111.325 65.44C111.992 65.44 112.592 65.2867 113.125 64.98C113.672 64.6733 114.098 64.24 114.405 63.68C114.725 63.1067 114.885 62.4467 114.885 61.7C114.885 60.94 114.725 60.2867 114.405 59.74C114.098 59.18 113.672 58.7467 113.125 58.44C112.592 58.1333 111.992 57.98 111.325 57.98C110.645 57.98 110.038 58.1333 109.505 58.44C108.972 58.7467 108.545 59.18 108.225 59.74C107.905 60.2867 107.745 60.94 107.745 61.7C107.745 62.4467 107.905 63.1067 108.225 63.68C108.545 64.24 108.972 64.6733 109.505 64.98C110.038 65.2867 110.645 65.44 111.325 65.44ZM114.945 67V64.14L115.065 61.68L114.865 59.22V52.16H116.785V67H114.945ZM124.958 67.12C123.891 67.12 122.944 66.8867 122.118 66.42C121.291 65.9533 120.638 65.3133 120.158 64.5C119.678 63.6733 119.438 62.74 119.438 61.7C119.438 60.6467 119.678 59.7133 120.158 58.9C120.638 58.0867 121.291 57.4533 122.118 57C122.944 56.5333 123.891 56.3 124.958 56.3C126.011 56.3 126.951 56.5333 127.778 57C128.618 57.4533 129.271 58.0867 129.738 58.9C130.218 59.7 130.458 60.6333 130.458 61.7C130.458 62.7533 130.218 63.6867 129.738 64.5C129.271 65.3133 128.618 65.9533 127.778 66.42C126.951 66.8867 126.011 67.12 124.958 67.12ZM124.958 65.44C125.638 65.44 126.244 65.2867 126.778 64.98C127.324 64.6733 127.751 64.24 128.058 63.68C128.364 63.1067 128.518 62.4467 128.518 61.7C128.518 60.94 128.364 60.2867 128.058 59.74C127.751 59.18 127.324 58.7467 126.778 58.44C126.244 58.1333 125.638 57.98 124.958 57.98C124.278 57.98 123.671 58.1333 123.138 58.44C122.604 58.7467 122.178 59.18 121.858 59.74C121.538 60.2867 121.378 60.94 121.378 61.7C121.378 62.4467 121.538 63.1067 121.858 63.68C122.178 64.24 122.604 64.6733 123.138 64.98C123.671 65.2867 124.278 65.44 124.958 65.44ZM135.6 67L130.96 56.4H132.96L137.08 66H136.12L140.32 56.4H142.2L137.56 67H135.6ZM155.963 67.16C154.896 67.16 153.903 66.98 152.983 66.62C152.076 66.26 151.29 65.76 150.623 65.12C149.956 64.4667 149.436 63.7067 149.063 62.84C148.69 61.9733 148.503 61.0267 148.503 60C148.503 58.9733 148.69 58.0267 149.063 57.16C149.436 56.2933 149.956 55.54 150.623 54.9C151.29 54.2467 152.076 53.74 152.983 53.38C153.89 53.02 154.883 52.84 155.963 52.84C157.03 52.84 158.01 53.02 158.903 53.38C159.81 53.7267 160.596 54.2267 161.263 54.88C161.943 55.52 162.463 56.2733 162.823 57.14C163.196 58.0067 163.383 58.96 163.383 60C163.383 61.04 163.196 61.9933 162.823 62.86C162.463 63.7267 161.943 64.4867 161.263 65.14C160.596 65.78 159.81 66.28 158.903 66.64C158.01 66.9867 157.03 67.16 155.963 67.16ZM160.543 69.92C160.076 69.92 159.63 69.86 159.203 69.74C158.776 69.6333 158.35 69.4533 157.923 69.2C157.496 68.96 157.056 68.64 156.603 68.24C156.15 67.8533 155.656 67.3733 155.123 66.8L157.263 66.24C157.663 66.7333 158.043 67.1333 158.403 67.44C158.776 67.76 159.143 67.9867 159.503 68.12C159.863 68.2667 160.216 68.34 160.563 68.34C161.563 68.34 162.416 67.94 163.123 67.14L164.063 68.28C163.156 69.3733 161.983 69.92 160.543 69.92ZM155.963 65.38C156.736 65.38 157.45 65.2467 158.103 64.98C158.77 64.7133 159.343 64.3333 159.823 63.84C160.316 63.3467 160.696 62.7733 160.963 62.12C161.243 61.4667 161.383 60.76 161.383 60C161.383 59.2267 161.243 58.5133 160.963 57.86C160.696 57.2067 160.316 56.64 159.823 56.16C159.343 55.6667 158.77 55.2867 158.103 55.02C157.45 54.7533 156.736 54.62 155.963 54.62C155.176 54.62 154.45 54.7533 153.783 55.02C153.13 55.2867 152.556 55.6667 152.063 56.16C151.57 56.64 151.183 57.2067 150.903 57.86C150.636 58.5133 150.503 59.2267 150.503 60C150.503 60.76 150.636 61.4667 150.903 62.12C151.183 62.7733 151.57 63.3467 152.063 63.84C152.556 64.3333 153.13 64.7133 153.783 64.98C154.45 65.2467 155.176 65.38 155.963 65.38ZM170.62 67.12C169.713 67.12 168.913 66.9533 168.22 66.62C167.54 66.2867 167.007 65.78 166.62 65.1C166.247 64.4067 166.06 63.54 166.06 62.5V56.4H167.98V62.28C167.98 63.32 168.227 64.1 168.72 64.62C169.227 65.14 169.933 65.4 170.84 65.4C171.507 65.4 172.087 65.2667 172.58 65C173.073 64.72 173.453 64.32 173.72 63.8C173.987 63.2667 174.12 62.6267 174.12 61.88V56.4H176.04V67H174.22V64.14L174.52 64.9C174.173 65.6067 173.653 66.1533 172.96 66.54C172.267 66.9267 171.487 67.12 170.62 67.12ZM182.475 67L177.835 56.4H179.835L183.955 66H182.995L187.195 56.4H189.075L184.435 67H182.475ZM195.114 67.12C194.047 67.12 193.101 66.8867 192.274 66.42C191.447 65.9533 190.794 65.3133 190.314 64.5C189.834 63.6733 189.594 62.74 189.594 61.7C189.594 60.6467 189.834 59.7133 190.314 58.9C190.794 58.0867 191.447 57.4533 192.274 57C193.101 56.5333 194.047 56.3 195.114 56.3C196.167 56.3 197.107 56.5333 197.934 57C198.774 57.4533 199.427 58.0867 199.894 58.9C200.374 59.7 200.614 60.6333 200.614 61.7C200.614 62.7533 200.374 63.6867 199.894 64.5C199.427 65.3133 198.774 65.9533 197.934 66.42C197.107 66.8867 196.167 67.12 195.114 67.12ZM195.114 65.44C195.794 65.44 196.401 65.2867 196.934 64.98C197.481 64.6733 197.907 64.24 198.214 63.68C198.521 63.1067 198.674 62.4467 198.674 61.7C198.674 60.94 198.521 60.2867 198.214 59.74C197.907 59.18 197.481 58.7467 196.934 58.44C196.401 58.1333 195.794 57.98 195.114 57.98C194.434 57.98 193.827 58.1333 193.294 58.44C192.761 58.7467 192.334 59.18 192.014 59.74C191.694 60.2867 191.534 60.94 191.534 61.7C191.534 62.4467 191.694 63.1067 192.014 63.68C192.334 64.24 192.761 64.6733 193.294 64.98C193.827 65.2867 194.434 65.44 195.114 65.44ZM208.929 56.3C209.796 56.3 210.556 56.4667 211.209 56.8C211.876 57.1333 212.396 57.64 212.769 58.32C213.143 59 213.329 59.86 213.329 60.9V67H211.409V61.12C211.409 60.0933 211.156 59.32 210.649 58.8C210.156 58.28 209.456 58.02 208.549 58.02C207.869 58.02 207.276 58.1533 206.769 58.42C206.263 58.6867 205.869 59.08 205.589 59.6C205.323 60.12 205.189 60.7667 205.189 61.54V67H203.269V56.4H205.109V59.26L204.809 58.5C205.156 57.8067 205.689 57.2667 206.409 56.88C207.129 56.4933 207.969 56.3 208.929 56.3ZM221.503 67.12C220.423 67.12 219.456 66.8867 218.603 66.42C217.763 65.9533 217.103 65.3133 216.623 64.5C216.143 63.6867 215.903 62.7533 215.903 61.7C215.903 60.6467 216.143 59.7133 216.623 58.9C217.103 58.0867 217.763 57.4533 218.603 57C219.456 56.5333 220.423 56.3 221.503 56.3C222.463 56.3 223.316 56.4933 224.063 56.88C224.823 57.2533 225.409 57.8133 225.823 58.56L224.363 59.5C224.016 58.98 223.589 58.6 223.083 58.36C222.589 58.1067 222.056 57.98 221.483 57.98C220.789 57.98 220.169 58.1333 219.623 58.44C219.076 58.7467 218.643 59.18 218.323 59.74C218.003 60.2867 217.843 60.94 217.843 61.7C217.843 62.46 218.003 63.12 218.323 63.68C218.643 64.24 219.076 64.6733 219.623 64.98C220.169 65.2867 220.789 65.44 221.483 65.44C222.056 65.44 222.589 65.32 223.083 65.08C223.589 64.8267 224.016 64.44 224.363 63.92L225.823 64.84C225.409 65.5733 224.823 66.14 224.063 66.54C223.316 66.9267 222.463 67.12 221.503 67.12ZM233.832 56.3C234.698 56.3 235.458 56.4667 236.112 56.8C236.778 57.1333 237.298 57.64 237.672 58.32C238.045 59 238.232 59.86 238.232 60.9V67H236.312V61.12C236.312 60.0933 236.058 59.32 235.552 58.8C235.058 58.28 234.358 58.02 233.452 58.02C232.772 58.02 232.178 58.1533 231.672 58.42C231.165 58.6867 230.772 59.08 230.492 59.6C230.225 60.12 230.092 60.7667 230.092 61.54V67H228.172V52.16H230.092V59.26L229.712 58.5C230.058 57.8067 230.592 57.2667 231.312 56.88C232.032 56.4933 232.872 56.3 233.832 56.3ZM247.405 67.12C246.498 67.12 245.678 66.92 244.945 66.52C244.225 66.1067 243.652 65.5 243.225 64.7C242.812 63.9 242.605 62.9 242.605 61.7C242.605 60.5 242.818 59.5 243.245 58.7C243.685 57.9 244.265 57.3 244.985 56.9C245.718 56.5 246.525 56.3 247.405 56.3C248.445 56.3 249.365 56.5267 250.165 56.98C250.965 57.4333 251.598 58.0667 252.065 58.88C252.532 59.68 252.765 60.62 252.765 61.7C252.765 62.78 252.532 63.7267 252.065 64.54C251.598 65.3533 250.965 65.9867 250.165 66.44C249.365 66.8933 248.445 67.12 247.405 67.12ZM241.785 67V52.16H243.705V59.22L243.505 61.68L243.625 64.14V67H241.785ZM247.245 65.44C247.925 65.44 248.532 65.2867 249.065 64.98C249.612 64.6733 250.038 64.24 250.345 63.68C250.665 63.1067 250.825 62.4467 250.825 61.7C250.825 60.94 250.665 60.2867 250.345 59.74C250.038 59.18 249.612 58.7467 249.065 58.44C248.532 58.1333 247.925 57.98 247.245 57.98C246.578 57.98 245.972 58.1333 245.425 58.44C244.892 58.7467 244.465 59.18 244.145 59.74C243.838 60.2867 243.685 60.94 243.685 61.7C243.685 62.4467 243.838 63.1067 244.145 63.68C244.465 64.24 244.892 64.6733 245.425 64.98C245.972 65.2867 246.578 65.44 247.245 65.44ZM260.138 67.12C259.004 67.12 258.004 66.8867 257.138 66.42C256.284 65.9533 255.618 65.3133 255.138 64.5C254.671 63.6867 254.438 62.7533 254.438 61.7C254.438 60.6467 254.664 59.7133 255.118 58.9C255.584 58.0867 256.218 57.4533 257.018 57C257.831 56.5333 258.744 56.3 259.758 56.3C260.784 56.3 261.691 56.5267 262.478 56.98C263.264 57.4333 263.878 58.0733 264.318 58.9C264.771 59.7133 264.998 60.6667 264.998 61.76C264.998 61.84 264.991 61.9333 264.978 62.04C264.978 62.1467 264.971 62.2467 264.958 62.34H255.938V60.96H263.958L263.178 61.44C263.191 60.76 263.051 60.1533 262.758 59.62C262.464 59.0867 262.058 58.6733 261.538 58.38C261.031 58.0733 260.438 57.92 259.758 57.92C259.091 57.92 258.498 58.0733 257.978 58.38C257.458 58.6733 257.051 59.0933 256.758 59.64C256.464 60.1733 256.318 60.7867 256.318 61.48V61.8C256.318 62.5067 256.478 63.14 256.798 63.7C257.131 64.2467 257.591 64.6733 258.178 64.98C258.764 65.2867 259.438 65.44 260.198 65.44C260.824 65.44 261.391 65.3333 261.898 65.12C262.418 64.9067 262.871 64.5867 263.258 64.16L264.318 65.4C263.838 65.96 263.238 66.3867 262.518 66.68C261.811 66.9733 261.018 67.12 260.138 67.12ZM269.224 64.44L269.264 61.98L275.364 56.4H277.684L273.004 61L271.964 61.88L269.224 64.44ZM267.664 67V52.16H269.584V67H267.664ZM275.764 67L271.604 61.84L272.844 60.3L278.124 67H275.764Z" fill="white"/>
<rect y="234" width="32" height="8" rx="4" fill="#4EB7F2"/>
<rect x="40" y="234" width="8" height="8" rx="4" fill="#E8E8E8"/>
<rect x="56" y="234" width="8" height="8" rx="4" fill="#E8E8E8"/>
<defs>
<filter id="filter0_f_5_504" x="-65.916" y="-296" width="781.623" height="657" filterUnits="userSpaceOnUse" color-interpolation-filters="sRGB">
<feFlood flood-opacity="0" result="BackgroundImageFix"/>
<feBlend mode="normal" in="SourceGraphic" in2="BackgroundImageFix" result="shape"/>
<feGaussianBlur stdDeviation="50" result="effect1_foregroundBlur_5_504"/>
</filter>
</defs>
</svg>
