<svg width="45" height="41" viewBox="0 0 45 41" fill="none" xmlns="http://www.w3.org/2000/svg">
<rect x="0.404297" y="0.284668" width="43.8299" height="39.7208" rx="8.93034" fill="#323142"/>
<mask id="path-2-inside-1_379_5481" fill="white">
<path d="M29.2818 21.3609H22.9422V27.7897H20.4123V21.3609H14.1025V19.0691H20.4123V12.6105H22.9422V19.0691H29.2818V21.3609Z"/>
</mask>
<path d="M29.2818 21.3609H22.9422V27.7897H20.4123V21.3609H14.1025V19.0691H20.4123V12.6105H22.9422V19.0691H29.2818V21.3609Z" fill="black"/>
<path d="M29.2818 21.3609V25.4699H33.3908V21.3609H29.2818ZM22.9422 21.3609V17.2518H18.8332V21.3609H22.9422ZM22.9422 27.7897V31.8988H27.0513V27.7897H22.9422ZM20.4123 27.7897H16.3033V31.8988H20.4123V27.7897ZM20.4123 21.3609H24.5214V17.2518H20.4123V21.3609ZM14.1025 21.3609H9.99349V25.4699H14.1025V21.3609ZM14.1025 19.0691V14.96H9.99349V19.0691H14.1025ZM20.4123 19.0691V23.1781H24.5214V19.0691H20.4123ZM20.4123 12.6105V8.50142H16.3033V12.6105H20.4123ZM22.9422 12.6105H27.0513V8.50142H22.9422V12.6105ZM22.9422 19.0691H18.8332V23.1781H22.9422V19.0691ZM29.2818 19.0691H33.3908V14.96H29.2818V19.0691ZM29.2818 17.2518H22.9422V25.4699H29.2818V17.2518ZM18.8332 21.3609V27.7897H27.0513V21.3609H18.8332ZM22.9422 23.6807H20.4123V31.8988H22.9422V23.6807ZM24.5214 27.7897V21.3609H16.3033V27.7897H24.5214ZM20.4123 17.2518H14.1025V25.4699H20.4123V17.2518ZM18.2116 21.3609V19.0691H9.99349V21.3609H18.2116ZM14.1025 23.1781H20.4123V14.96H14.1025V23.1781ZM24.5214 19.0691V12.6105H16.3033V19.0691H24.5214ZM20.4123 16.7195H22.9422V8.50142H20.4123V16.7195ZM18.8332 12.6105V19.0691H27.0513V12.6105H18.8332ZM22.9422 23.1781H29.2818V14.96H22.9422V23.1781ZM25.1727 19.0691V21.3609H33.3908V19.0691H25.1727Z" fill="white" mask="url(#path-2-inside-1_379_5481)"/>
</svg>
