<svg xmlns="http://www.w3.org/2000/svg" width="50" height="50" viewBox="0 0 50 50" fill="none">
                                    <path fill-rule="evenodd" clip-rule="evenodd" d="M44.8571 24.1369L43.229 22.8344V44.2708H45.8332C46.6961 44.2708 47.3957 44.9704 47.3957 45.8333C47.3957 46.6964 46.6961 47.3958 45.8332 47.3958H4.16656C3.3036 47.3958 2.60406 46.6964 2.60406 45.8333C2.60406 44.9704 3.3036 44.2708 4.16656 44.2708H6.77073V22.8344L5.14265 24.1369C4.46879 24.676 3.48552 24.5666 2.94646 23.8929C2.40738 23.2189 2.51663 22.2356 3.19048 21.6966L20.1195 8.15344C22.9727 5.87081 27.0271 5.87081 29.8802 8.15344L46.8092 21.6966C47.4832 22.2356 47.5923 23.2189 47.0534 23.8929C46.5142 24.5666 45.5311 24.676 44.8571 24.1369ZM24.9998 14.0626C21.8357 14.0626 19.2707 16.6276 19.2707 19.7917C19.2707 22.9558 21.8357 25.5208 24.9998 25.5208C28.164 25.5208 30.729 22.9558 30.729 19.7917C30.729 16.6276 28.164 14.0626 24.9998 14.0626ZM28.6371 27.7325C27.6813 27.6041 26.488 27.6041 25.1027 27.6041H24.8971C23.5119 27.6041 22.3184 27.6041 21.3627 27.7325C20.3385 27.8702 19.3567 28.1808 18.5603 28.9773C17.764 29.7735 17.4534 30.7554 17.3157 31.7796C17.1873 32.7352 17.1873 33.9287 17.1874 35.3139V44.2708H20.3124H29.6873H32.8123V35.3139V35.0564C32.8119 33.7804 32.8044 32.6756 32.684 31.7796C32.5463 30.7554 32.2359 29.7735 31.4394 28.9773C30.6432 28.1808 29.6613 27.8702 28.6371 27.7325Z" fill="#1C274C" />
                                    <g opacity="0.5">
                                        <path fill-rule="evenodd" clip-rule="evenodd" d="M22.396 19.7917C22.396 18.3534 23.5618 17.1875 25.0002 17.1875C26.4385 17.1875 27.6043 18.3534 27.6043 19.7917C27.6043 21.23 26.4385 22.3958 25.0002 22.3958C23.5618 22.3958 22.396 21.23 22.396 19.7917Z" fill="#1C274C" />
                                        <path fill-rule="evenodd" clip-rule="evenodd" d="M22.396 19.7917C22.396 18.3534 23.5618 17.1875 25.0002 17.1875C26.4385 17.1875 27.6043 18.3534 27.6043 19.7917C27.6043 21.23 26.4385 22.3958 25.0002 22.3958C23.5618 22.3958 22.396 21.23 22.396 19.7917Z" fill="#1C274C" />
                                    </g>
                                    <path opacity="0.5" d="M25.1029 27.6042C26.4879 27.6042 27.6815 27.604 28.6371 27.7325C29.6615 27.8702 30.6431 28.1809 31.4396 28.9771C32.2358 29.7736 32.5465 30.7552 32.6842 31.7796C32.8046 32.6754 32.8121 33.7804 32.8125 35.0563V44.2709H17.1875V35.3138C17.1874 33.9288 17.1874 32.7352 17.3159 31.7796C17.4536 30.7552 17.7641 29.7736 18.5604 28.9771C19.3568 28.1809 20.3386 27.8702 21.3629 27.7325C22.3185 27.604 23.5121 27.6042 24.8971 27.6042H25.1029Z" fill="#1C274C" />
                                    <path opacity="0.5" d="M33.3332 6.25H38.5415C39.1167 6.25 39.5832 6.71637 39.5832 7.29167V15.9157L32.2915 10.0824V7.29167C32.2915 6.71637 32.758 6.25 33.3332 6.25Z" fill="#1C274C" />
                                </svg>