<svg width="169" height="43" viewBox="0 0 169 43" fill="none" xmlns="http://www.w3.org/2000/svg">
<rect x="3.67383" y="4.97818" width="42.2674" height="37.3367" rx="6.96951" fill="#6C5FBC"/>
<rect x="1.0075" y="1.0075" width="40.2524" height="35.3217" rx="5.96201" fill="#DBD9EE" stroke="#6C5FBC" stroke-width="2.01499"/>
<path d="M32.624 12.0508L9.72243 11.9496" stroke="#6C5FBC" stroke-width="2.08432" stroke-linecap="round" stroke-linejoin="round"/>
<path d="M32.6096 16.6361L27.5162 16.6136C25.4095 16.6043 23.7056 14.5422 23.7133 12.0112C23.7211 9.48028 25.4376 7.43331 27.5443 7.44263L32.6377 7.46515" stroke="#6C5FBC" stroke-width="2.08432" stroke-linecap="round" stroke-linejoin="round"/>
<path d="M17.3611 26.722L10.7067 26.6479C10.1614 26.6455 9.70458 26.1075 9.6942 25.4524L9.64992 23.7253C9.63962 23.0404 10.0999 22.4619 10.6699 22.4644L17.25 22.5381L17.3611 26.722Z" stroke="#6C5FBC" stroke-width="2.08432" stroke-linecap="round" stroke-linejoin="round"/>
<path d="M27.8134 29.2102L18.4076 29.0942C17.8624 29.0918 17.4055 28.5538 17.3951 27.8987L17.2752 22.5236L32.555 22.7102L32.5653 23.3951C32.6421 26.6411 30.5025 29.2519 27.8134 29.2102Z" stroke="#6C5FBC" stroke-width="2.08432" stroke-linecap="round" stroke-linejoin="round"/>
<path d="M60.4989 18.0457C60.8378 17.3822 61.3177 16.8669 61.9389 16.4999C62.5742 16.1328 63.3436 15.9493 64.2471 15.9493V17.9398H63.7388C61.5789 17.9398 60.4989 19.1115 60.4989 21.455V27.7654H58.5719V16.161H60.4989V18.0457ZM77.0594 21.5185C77.0594 21.8856 77.0382 22.2738 76.9959 22.6832H67.7209C67.7915 23.8267 68.1797 24.7231 68.8855 25.3725C69.6055 26.0078 70.4737 26.3254 71.4902 26.3254C72.3231 26.3254 73.0148 26.1348 73.5654 25.7537C74.1301 25.3584 74.5254 24.8361 74.7512 24.1867H76.8265C76.5159 25.3019 75.8947 26.2125 74.963 26.9183C74.0313 27.6101 72.8737 27.956 71.4902 27.956C70.389 27.956 69.4008 27.7089 68.5256 27.2148C67.6644 26.7207 66.9868 26.0219 66.4927 25.1184C65.9986 24.2008 65.7515 23.142 65.7515 21.942C65.7515 20.7421 65.9915 19.6903 66.4715 18.7868C66.9515 17.8833 67.6221 17.1916 68.4832 16.7116C69.3585 16.2175 70.3608 15.9705 71.4902 15.9705C72.5913 15.9705 73.5654 16.2105 74.4124 16.6904C75.2595 17.1704 75.9088 17.8339 76.3606 18.681C76.8265 19.5139 77.0594 20.4597 77.0594 21.5185ZM75.0689 21.1162C75.0689 20.3821 74.9065 19.7539 74.5818 19.2315C74.2571 18.6951 73.8124 18.2927 73.2478 18.0245C72.6972 17.7422 72.0831 17.601 71.4055 17.601C70.4314 17.601 69.5985 17.9116 68.9067 18.5327C68.2291 19.1539 67.8409 20.015 67.7421 21.1162H75.0689ZM83.7111 27.956C82.8217 27.956 82.0241 27.8077 81.3182 27.5113C80.6124 27.2007 80.0547 26.7772 79.6453 26.2407C79.2359 25.6902 79.0101 25.0619 78.9677 24.3561H80.9582C81.0147 24.9349 81.2829 25.4078 81.7629 25.7749C82.257 26.1419 82.8993 26.3254 83.6899 26.3254C84.424 26.3254 85.0028 26.1631 85.4263 25.8384C85.8498 25.5137 86.0616 25.1043 86.0616 24.6102C86.0616 24.102 85.8357 23.7279 85.384 23.4879C84.9322 23.2338 84.2334 22.9867 83.2876 22.7467C82.4264 22.5208 81.7206 22.295 81.17 22.0691C80.6335 21.8291 80.1677 21.4832 79.7724 21.0315C79.3912 20.5656 79.2006 19.9586 79.2006 19.2104C79.2006 18.6174 79.3771 18.0739 79.73 17.5798C80.083 17.0857 80.5841 16.6975 81.2335 16.4152C81.8829 16.1187 82.6241 15.9705 83.457 15.9705C84.7416 15.9705 85.7792 16.2952 86.5698 16.9446C87.3604 17.5939 87.7839 18.4833 87.8404 19.6127H85.9134C85.871 19.0057 85.624 18.5186 85.1722 18.1516C84.7346 17.7845 84.1417 17.601 83.3934 17.601C82.7017 17.601 82.1511 17.7492 81.7417 18.0457C81.3323 18.3422 81.1276 18.7304 81.1276 19.2104C81.1276 19.5915 81.2476 19.9092 81.4876 20.1633C81.7417 20.4033 82.0523 20.6009 82.4194 20.7562C82.8005 20.8974 83.3229 21.0597 83.9864 21.2432C84.8193 21.4691 85.4969 21.695 86.0192 21.9209C86.5416 22.1326 86.9863 22.4573 87.3533 22.8949C87.7345 23.3326 87.9321 23.9043 87.9462 24.6102C87.9462 25.2455 87.7698 25.8172 87.4168 26.3254C87.0639 26.8336 86.5628 27.236 85.9134 27.5324C85.2781 27.8148 84.544 27.956 83.7111 27.956ZM93.017 17.7492V24.589C93.017 25.1537 93.137 25.556 93.377 25.796C93.617 26.0219 94.0334 26.1348 94.6264 26.1348H96.0451V27.7654H94.3087C93.2358 27.7654 92.4311 27.5183 91.8947 27.0242C91.3582 26.5301 91.09 25.7184 91.09 24.589V17.7492H89.5865V16.161H91.09V13.2388H93.017V16.161H96.0451V17.7492H93.017ZM97.66 21.9209C97.66 20.735 97.9 19.6974 98.3799 18.808C98.8599 17.9045 99.5164 17.2057 100.349 16.7116C101.196 16.2175 102.135 15.9705 103.166 15.9705C104.182 15.9705 105.064 16.1893 105.813 16.6269C106.561 17.0645 107.118 17.6151 107.486 18.2786V16.161H109.434V27.7654H107.486V25.6055C107.104 26.2831 106.533 26.8478 105.77 27.2995C105.022 27.7371 104.147 27.956 103.144 27.956C102.114 27.956 101.182 27.7019 100.349 27.1936C99.5164 26.6854 98.8599 25.9725 98.3799 25.0549C97.9 24.1373 97.66 23.0926 97.66 21.9209ZM107.486 21.942C107.486 21.0668 107.309 20.3044 106.956 19.6551C106.603 19.0057 106.123 18.5116 105.516 18.1727C104.923 17.8198 104.267 17.6434 103.547 17.6434C102.827 17.6434 102.17 17.8128 101.577 18.1516C100.985 18.4904 100.512 18.9845 100.159 19.6339C99.8058 20.2833 99.6293 21.0456 99.6293 21.9209C99.6293 22.8102 99.8058 23.5867 100.159 24.2502C100.512 24.8996 100.985 25.4008 101.577 25.7537C102.17 26.0925 102.827 26.2619 103.547 26.2619C104.267 26.2619 104.923 26.0925 105.516 25.7537C106.123 25.4008 106.603 24.8996 106.956 24.2502C107.309 23.5867 107.486 22.8173 107.486 21.942ZM122.982 16.161V27.7654H121.055V26.0501C120.688 26.6431 120.172 27.1089 119.509 27.4477C118.859 27.7724 118.139 27.9348 117.349 27.9348C116.445 27.9348 115.634 27.7513 114.914 27.3842C114.194 27.0031 113.622 26.4384 113.198 25.6902C112.789 24.9419 112.584 24.0314 112.584 22.9585V16.161H114.49V22.7044C114.49 23.8479 114.779 24.7302 115.358 25.3513C115.937 25.9584 116.728 26.2619 117.73 26.2619C118.761 26.2619 119.572 25.9443 120.165 25.309C120.758 24.6737 121.055 23.749 121.055 22.535V16.161H122.982ZM128.162 18.0457C128.501 17.3822 128.981 16.8669 129.602 16.4999C130.237 16.1328 131.007 15.9493 131.91 15.9493V17.9398H131.402C129.242 17.9398 128.162 19.1115 128.162 21.455V27.7654H126.235V16.161H128.162V18.0457ZM133.415 21.9209C133.415 20.735 133.655 19.6974 134.135 18.808C134.615 17.9045 135.271 17.2057 136.104 16.7116C136.951 16.2175 137.89 15.9705 138.92 15.9705C139.937 15.9705 140.819 16.1893 141.567 16.6269C142.316 17.0645 142.873 17.6151 143.24 18.2786V16.161H145.189V27.7654H143.24V25.6055C142.859 26.2831 142.287 26.8478 141.525 27.2995C140.777 27.7371 139.902 27.956 138.899 27.956C137.869 27.956 136.937 27.7019 136.104 27.1936C135.271 26.6854 134.615 25.9725 134.135 25.0549C133.655 24.1373 133.415 23.0926 133.415 21.9209ZM143.24 21.942C143.24 21.0668 143.064 20.3044 142.711 19.6551C142.358 19.0057 141.878 18.5116 141.271 18.1727C140.678 17.8198 140.022 17.6434 139.302 17.6434C138.582 17.6434 137.925 17.8128 137.332 18.1516C136.739 18.4904 136.266 18.9845 135.914 19.6339C135.561 20.2833 135.384 21.0456 135.384 21.9209C135.384 22.8102 135.561 23.5867 135.914 24.2502C136.266 24.8996 136.739 25.4008 137.332 25.7537C137.925 26.0925 138.582 26.2619 139.302 26.2619C140.022 26.2619 140.678 26.0925 141.271 25.7537C141.878 25.4008 142.358 24.8996 142.711 24.2502C143.064 23.5867 143.24 22.8173 143.24 21.942ZM154.099 15.9493C155.511 15.9493 156.654 16.3799 157.529 17.241C158.405 18.088 158.842 19.3162 158.842 20.9256V27.7654H156.936V21.2009C156.936 20.0433 156.647 19.161 156.068 18.5539C155.489 17.9328 154.699 17.6222 153.697 17.6222C152.68 17.6222 151.868 17.9398 151.261 18.5751C150.668 19.2104 150.372 20.135 150.372 21.3491V27.7654H148.445V16.161H150.372V17.8128C150.753 17.2198 151.268 16.761 151.918 16.4363C152.581 16.1116 153.308 15.9493 154.099 15.9493ZM164.341 17.7492V24.589C164.341 25.1537 164.461 25.556 164.701 25.796C164.941 26.0219 165.357 26.1348 165.95 26.1348H167.369V27.7654H165.632C164.559 27.7654 163.755 27.5183 163.218 27.0242C162.682 26.5301 162.414 25.7184 162.414 24.589V17.7492H160.91V16.161H162.414V13.2388H164.341V16.161H167.369V17.7492H164.341Z" fill="#6C5FBC"/>
</svg>
