 <svg xmlns="http://www.w3.org/2000/svg" width="40" height="40" viewBox="0 0 40 40" fill="none">
                                    <g clip-path="url(#clip0_78_195)">
                                        <path d="M35.9334 3.6788C35.9334 2.29699 35.9394 0.973247 35.9394 0.364435C33.9539 0.364435 5.02432 0.24707 3.86315 0.24707C3.86315 0.734935 3.85352 2.44339 3.85352 3.6788C3.90293 14.5731 4.01474 37.0216 4.01474 39.63C6.85014 39.63 33.3886 39.7569 35.9509 39.7528C35.9509 37.2275 35.9386 14.598 35.9334 3.6788Z" fill="white" />
                                        <path d="M20.2839 11.6376C20.2839 11.8222 20.2852 13.1866 20.2852 13.3939C20.1196 13.3939 17.0256 13.386 16.8424 13.386C16.8424 13.1693 16.8301 11.7717 16.8301 11.6301C16.9056 11.6297 20.1557 11.6376 20.2839 11.6376Z" fill="white" />
                                        <path d="M16.525 21.7107C16.525 21.8952 16.5264 23.2596 16.5264 23.4669C16.3608 23.4669 13.2669 23.459 13.0836 23.459C13.0836 23.2423 13.0713 21.8447 13.0713 21.7031C13.1466 21.7031 16.3969 21.7107 16.525 21.7107Z" fill="white" />
                                        <path d="M31.107 31.5091C31.107 31.6937 31.1083 33.0581 31.1083 33.2654C30.9427 33.2654 27.8488 33.2575 27.6657 33.2575C27.6657 33.0408 27.6533 31.6432 27.6533 31.5016C27.7287 31.5016 30.9788 31.5091 31.107 31.5091Z" fill="white" />
                                        <path d="M22.6856 22.3002C22.4298 22.3276 22.2612 22.215 22.0902 22.0226C21.9339 21.8407 21.8551 21.6048 21.8706 21.3655C21.8722 21.3503 21.8741 21.3352 21.8768 21.3205H21.8483C21.6313 21.3803 21.2936 21.2023 21.1603 20.9467C21.027 20.6911 20.9659 20.2288 21.2127 19.9671C21.3306 19.8296 21.483 19.7258 21.6542 19.6665C21.8255 19.6071 22.0094 19.5943 22.1872 19.6294C22.5594 19.7145 22.9026 20.154 22.7307 20.5354C23.1376 20.4323 23.6386 20.8443 23.6592 21.3108L23.6867 22.2991L22.6856 22.3002Z" fill="#DBA25C" />
                                        <path d="M11.4419 21.6559C11.8875 21.3875 12.2184 20.9798 12.4873 20.4161C12.717 19.9343 12.768 19.5821 12.8127 19.0506C12.8402 18.6098 12.735 18.1709 12.5107 17.7905L12.4934 17.7599L12.4846 17.7268C12.4448 17.5765 12.5391 17.0959 12.5612 17.0076C12.7396 16.9945 12.931 16.9916 12.938 16.9829C12.9423 16.9774 13.1039 16.3486 12.986 16.3528C12.8571 16.3573 11.5468 16.3954 11.5219 16.4169C11.4637 16.5961 11.4238 16.7808 11.4029 16.968C11.5518 16.9969 11.7023 17.0161 11.8537 17.0255C11.842 17.1729 11.8247 17.4174 11.7197 17.5457C11.6967 17.5739 11.6497 17.6192 11.6348 17.6365C10.9599 18.1789 11.1559 19.1104 10.6687 19.826C10.29 20.382 9.95214 20.6147 9.28416 20.6934C9.03993 20.7281 8.80048 20.7905 8.57046 20.8796C8.36044 20.9605 8.21787 21.0649 8.19563 21.2887C8.16277 21.6175 8.49213 21.8671 8.80556 21.9722C9.28416 22.1328 9.91286 22.0841 10.4116 22.0075C10.7749 21.9595 11.125 21.84 11.4419 21.6559Z" fill="#FFDA71" />
                                        <path d="M21.9921 12.4901C21.8694 12.4439 21.7623 12.364 21.6831 12.2595C21.604 12.155 21.556 12.0303 21.5448 11.8997C21.5448 11.7419 21.5264 9.41562 21.5264 9.17582C21.5419 8.89919 21.642 8.63401 21.8132 8.41617C21.7705 8.26013 21.7778 8.10731 21.907 8.10731C22.0602 8.10731 23.5536 8.1062 23.8018 8.1062C23.8664 8.1062 23.9367 8.13214 23.9367 8.26915V8.47114L23.9551 8.48671C24.1212 8.62816 24.2005 9.05858 24.2005 9.19089C24.2005 9.37151 24.2045 11.6579 24.2045 11.788C24.2045 12.1402 24.0592 12.4591 23.867 12.4591L21.9921 12.4901Z" fill="#CFCFCF" />
                                        <path d="M26.1928 12.4901C26.0701 12.4439 25.963 12.364 25.8838 12.2595C25.8046 12.155 25.7567 12.0303 25.7455 11.8997C25.7455 11.7419 25.7271 9.41562 25.7271 9.17582C25.7426 8.89919 25.8427 8.63401 26.0139 8.41617C25.9712 8.26013 25.9785 8.10731 26.1077 8.10731C26.2609 8.10731 27.7542 8.1062 28.0024 8.1062C28.067 8.1062 28.1373 8.13214 28.1373 8.26915V8.47114L28.1558 8.48671C28.3219 8.62816 28.4012 9.05858 28.4012 9.19089C28.4012 9.37151 28.4052 11.6579 28.4052 11.788C28.4052 12.1402 28.2599 12.4591 28.0677 12.4591L26.1928 12.4901Z" fill="#CFCFCF" />
                                        <path d="M30.2695 12.4901C30.1468 12.4439 30.0396 12.364 29.9605 12.2595C29.8813 12.155 29.8333 12.0303 29.8221 11.8997C29.8221 11.7419 29.8037 9.41562 29.8037 9.17582C29.8192 8.89919 29.9194 8.63401 30.0906 8.41617C30.0478 8.26013 30.0551 8.10731 30.1843 8.10731C30.3375 8.10731 31.8309 8.1062 32.0791 8.1062C32.1437 8.1062 32.214 8.13214 32.214 8.26915V8.47114L32.2324 8.48671C32.3986 8.62816 32.4779 9.05858 32.4779 9.19089C32.4779 9.37151 32.4818 11.6579 32.4818 11.788C32.4818 12.1402 32.3366 12.4591 32.1443 12.4591L30.2695 12.4901Z" fill="#CFCFCF" />
                                        <path d="M23.5879 29.5997C23.3225 29.3896 23.0236 29.2361 22.2289 29.3702C21.8174 29.4287 21.4265 29.5874 21.0905 29.8322C20.825 30.0702 20.6536 30.3954 20.6071 30.7488C20.5768 31.2075 20.7162 31.6612 20.9987 32.0238C21.2913 32.345 22.9293 32.226 23.5424 32.226" fill="#F2635F" />
                                        <path d="M12.2006 29.5053C11.9906 29.3892 11.7722 29.2361 10.9776 29.3703C10.566 29.4287 10.1751 29.5874 9.83912 29.8322C9.57364 30.0702 9.40216 30.3954 9.3557 30.7489C9.32133 31.208 9.46115 31.6632 9.74733 32.0238C10.1056 32.3965 11.5614 32.2163 12.1697 32.1756" fill="#DBA25C" />
                                        <path d="M17.9896 32.1208C17.9896 31.9895 17.9852 30.6152 17.9826 29.602C17.859 29.3719 17.3379 29.2107 17.3379 29.2107C17.0542 29.0875 16.7481 29.024 16.4388 29.024C16.1295 29.024 15.8234 29.0875 15.5397 29.2107C15.2385 29.3394 14.3936 29.7461 14.0778 30.7344C14.0566 30.8453 14.0451 30.9578 14.0434 31.0707C14.0371 31.6571 14.0343 31.9177 14.0342 32.1345L17.9896 32.1208Z" fill="#FFDA71" />
                                        <path d="M8.27842 12.4042C8.38013 12.4244 8.48357 12.4348 8.58728 12.4351H9.78476C9.99052 12.4454 10.1949 12.3967 10.3739 12.2947C10.5401 12.1701 10.5316 11.9561 10.5316 11.6485C10.5316 10.3625 10.508 9.34937 10.4961 8.07097C10.495 7.9431 10.3505 7.66921 10.3099 7.54974C9.58994 7.55048 8.66832 7.56296 8.04493 7.56346C8.00045 7.69565 7.87679 7.97114 7.87555 8.11272C7.8632 9.37161 7.84047 10.3765 7.84047 11.6485C7.82551 11.8473 7.8579 12.0468 7.93498 12.2306C8.02313 12.3301 8.14599 12.3922 8.27842 12.4042Z" fill="#C5DBEF" />
                                        <path d="M7.86738 8.67012C7.85786 9.26312 7.84514 9.43892 7.84131 10.0983C8.70091 10.0706 9.6717 10.0881 10.5303 10.1106C10.5266 9.43978 10.514 9.25398 10.5039 8.66901L7.86738 8.67012Z" fill="#3F88C9" />
                                        <path d="M12.3137 12.4042C12.4154 12.4244 12.5188 12.4348 12.6225 12.435H13.82C14.0259 12.4455 14.2305 12.3968 14.4097 12.2947C14.5758 12.17 14.5673 11.9561 14.5673 11.6485C14.5673 10.3625 14.5437 9.34935 14.5318 8.07095C14.5075 7.88836 14.4633 7.70898 14.3999 7.53601C13.6799 7.53675 12.6897 7.54923 12.0663 7.54972C11.9934 7.73092 11.9411 7.91978 11.9105 8.1127C11.8989 9.37159 11.8756 10.3765 11.8756 11.6485C11.8607 11.8473 11.8932 12.0467 11.9702 12.2306C12.0584 12.3301 12.1812 12.3922 12.3137 12.4042Z" fill="#C5DBEF" />
                                        <path d="M11.9029 8.67012C11.8934 9.26312 11.8808 9.43892 11.877 10.0983C12.7366 10.0706 13.7072 10.0881 14.5658 10.1106C14.5621 9.43978 14.5495 9.25398 14.5395 8.66901L11.9029 8.67012Z" fill="#3F88C9" />
                                        <path d="M29.734 22.4171C29.5723 22.4161 29.3946 22.415 29.1988 22.414C29.0705 22.2125 28.9641 22.0452 28.9641 22.0452C28.8263 22.0148 28.6986 21.9497 28.5932 21.8559C28.4877 21.7622 28.408 21.643 28.3617 21.5097C28.2298 20.9908 28.3123 20.6097 28.456 20.3844C28.5754 20.1971 28.7444 19.849 29.3363 19.8212C29.589 19.8089 30.7706 19.8954 31.0522 20.2467C31.0672 20.2613 31.0804 20.2776 31.0917 20.2952C31.1047 20.9691 31.1154 21.8024 31.1234 22.4275C30.8361 22.4249 30.4347 22.4213 29.734 22.4171Z" fill="#DBA25C" />
                                        <path d="M8.90918 29.5273C9.0095 29.3142 9.35714 29.0497 9.76829 29.0179C9.94649 29.0093 10.1244 29.0393 10.29 29.1058C10.4555 29.1724 10.6047 29.2739 10.7273 29.4035C10.5518 29.6689 10.2434 29.9885 9.78348 30.0139C9.6072 30.0204 9.4325 29.9785 9.27836 29.8927C9.12422 29.8069 8.99654 29.6805 8.90918 29.5273Z" fill="#6DBF6B" />
                                        <path d="M20.451 30.2967C20.4016 30.0665 20.5166 29.6451 20.824 29.3701C20.9603 29.255 21.1198 29.1708 21.2917 29.1231C21.4636 29.0754 21.6438 29.0655 21.8199 29.0939C21.8417 29.4113 21.7909 29.8525 21.441 30.152C21.305 30.2643 21.1408 30.3372 20.9662 30.3627C20.7917 30.3882 20.6135 30.3654 20.451 30.2967Z" fill="#6DBF6B" />
                                        <path d="M17.8741 29.2124C17.3043 28.8772 16.6355 28.7511 15.9828 28.8557C15.4227 28.9337 14.8754 29.1398 14.5437 29.6217C14.3628 29.8843 14.7908 30.1316 14.9704 29.8711C15.2152 29.5154 15.6869 29.3861 16.0946 29.3357C16.6244 29.2596 17.1643 29.3668 17.6249 29.6394C17.8967 29.806 18.1454 29.3788 17.8742 29.2127L17.8741 29.2124Z" fill="#211715" />
                                        <path d="M16.9289 30.2023C16.8474 30.4272 16.765 30.6516 16.6836 30.8764C16.6749 30.9082 16.6726 30.9414 16.6769 30.974C16.6811 31.0067 16.6918 31.0382 16.7083 31.0667C16.7247 31.0948 16.7464 31.1193 16.7722 31.1389C16.7981 31.1585 16.8275 31.1729 16.8589 31.1811C16.8903 31.1893 16.923 31.1913 16.9552 31.1869C16.9873 31.1825 17.0183 31.1718 17.0463 31.1554C17.1 31.1208 17.1401 31.0686 17.1598 31.0078C17.2414 30.783 17.3232 30.5582 17.4052 30.3336C17.4183 30.2863 17.4169 30.2361 17.4013 30.1895C17.3857 30.1429 17.3565 30.102 17.3176 30.072C17.2786 30.0421 17.2316 30.0245 17.1826 30.0214C17.1335 30.0183 17.0847 30.0299 17.0422 30.0547C16.9885 30.0893 16.9483 30.1415 16.9287 30.2023H16.9289Z" fill="#211715" />
                                        <path d="M15.781 30.2336L15.9228 30.7124C15.941 30.774 15.9815 30.8267 16.0364 30.86C16.0941 30.893 16.1625 30.9019 16.2268 30.8847C16.289 30.8675 16.3421 30.8267 16.375 30.7711C16.4079 30.7133 16.4168 30.645 16.3997 30.5807L16.2579 30.102C16.2398 30.0403 16.1993 29.9877 16.1444 29.9544C16.1019 29.9294 16.053 29.9177 16.0038 29.9207C15.9547 29.9237 15.9076 29.9414 15.8685 29.9714C15.8295 30.0014 15.8003 30.0424 15.7847 30.0891C15.7691 30.1358 15.7678 30.1861 15.781 30.2336Z" fill="#211715" />
                                        <path d="M15.8675 31.1602C15.5992 31.0226 15.3345 30.8779 15.066 30.7402C15.0095 30.7075 14.9423 30.6985 14.8791 30.7153C14.816 30.732 14.7621 30.773 14.7291 30.8294C14.6961 30.8858 14.6868 30.9529 14.7032 31.0161C14.7196 31.0793 14.7604 31.1335 14.8166 31.1668C15.085 31.3045 15.3498 31.4492 15.6181 31.5868C15.6747 31.6199 15.7421 31.6291 15.8055 31.6125C15.8369 31.6043 15.8664 31.5899 15.8922 31.5703C15.9181 31.5507 15.9398 31.5262 15.9562 31.4982C15.9726 31.4701 15.9833 31.4392 15.9877 31.407C15.9921 31.3749 15.9901 31.3422 15.9819 31.3108C15.9736 31.2794 15.9593 31.2499 15.9397 31.2241C15.9201 31.1982 15.8956 31.1765 15.8675 31.1601V31.1602Z" fill="#211715" />
                                        <path d="M35.6863 3.67881C35.6875 6.18258 35.6887 8.68611 35.69 11.1894C35.6915 14.1127 35.693 17.036 35.6946 19.9593C35.696 22.8122 35.6975 25.665 35.6989 28.5178C35.7 30.8578 35.7012 33.1977 35.7024 35.5377C35.7029 36.8709 35.7034 38.2042 35.7039 39.5376V39.7528L35.951 39.5057C35.4857 39.5064 35.0204 39.5047 34.5549 39.5034C33.7247 39.501 32.8943 39.4982 32.064 39.4951C30.9499 39.491 29.8358 39.4869 28.7217 39.4827C27.4224 39.4774 26.1232 39.472 24.8238 39.4665C23.4164 39.4608 22.0088 39.4548 20.6012 39.4486L16.3578 39.4306C15.0122 39.4248 13.6666 39.4191 12.3211 39.4135L8.79358 39.3991C7.86538 39.3955 6.93721 39.3921 6.00908 39.3887C5.42572 39.3867 4.84232 39.3851 4.25887 39.3838H4.01438L4.26146 39.6308C4.26146 38.4369 4.25467 37.2429 4.24985 36.0489C4.24087 33.8181 4.23116 31.5874 4.2207 29.3567C4.20785 26.5509 4.19479 23.7451 4.18153 20.9394L4.14039 12.1902C4.12829 9.61592 4.11626 7.04169 4.10432 4.4675L4.10061 3.67881C4.09925 3.36093 3.60509 3.36032 3.60645 3.67881C3.6179 6.17821 3.62959 8.67758 3.64153 11.1769L3.68267 19.871C3.6961 22.7149 3.7094 25.5586 3.72258 28.4023C3.7332 30.7272 3.74346 33.0521 3.75334 35.3771C3.75886 36.7224 3.76355 38.0678 3.76742 39.413C3.76742 39.4854 3.76742 39.5578 3.76742 39.63C3.76832 39.6952 3.79464 39.7576 3.84078 39.8037C3.88693 39.8499 3.94925 39.8762 4.01451 39.8771C4.50389 39.8771 4.9932 39.8782 5.48242 39.8805C6.33157 39.8832 7.18067 39.8863 8.02973 39.8897L11.413 39.9033L15.3361 39.9198L19.5686 39.9378L23.8061 39.9559L27.8212 39.9726C28.9847 39.9774 30.1482 39.982 31.3117 39.9864C32.2222 39.9899 33.1327 39.9931 34.0432 39.996C34.604 39.9978 35.1647 39.9991 35.7254 40H35.9507C36.0159 39.999 36.0782 39.9727 36.1244 39.9266C36.1705 39.8804 36.1968 39.8181 36.1978 39.7529C36.1978 38.5698 36.1974 37.3866 36.1966 36.2033C36.1956 33.9586 36.1945 31.7137 36.1933 29.4688C36.1919 26.6542 36.1904 23.8396 36.189 21.0249C36.1875 18.0832 36.186 15.1415 36.1845 12.1998C36.1832 9.6272 36.1819 7.05454 36.1806 4.48183V3.67881C36.1806 3.36081 35.6865 3.36032 35.6865 3.67881H35.6863Z" fill="#211715" />
                                        <path d="M4.07766 3.55528C4.07766 2.45242 4.10966 1.34981 4.11065 0.247083L3.86356 0.494166C4.22468 0.494166 4.58579 0.496019 4.94678 0.497254C5.73546 0.499972 6.52411 0.502814 7.31272 0.505779L10.6557 0.518133L14.6708 0.533452L19.0516 0.550377L23.4931 0.567426L27.6896 0.583239C28.9049 0.587851 30.1202 0.59234 31.3357 0.596705C32.2657 0.6 33.1958 0.603212 34.1259 0.606341C34.6688 0.608071 35.2118 0.609595 35.7548 0.610912H35.9401L35.693 0.36383C35.693 1.42744 35.6938 2.49105 35.6954 3.55466C35.6954 3.87265 36.1895 3.87315 36.1895 3.55466C36.1895 2.49113 36.1888 1.42752 36.1872 0.36383C36.1863 0.298587 36.1599 0.236277 36.1138 0.19014C36.0677 0.144002 36.0054 0.117673 35.9401 0.116747C35.5064 0.116747 35.0726 0.114894 34.6388 0.113535C33.7932 0.111393 32.9475 0.108758 32.1018 0.105628L28.6351 0.0932738L24.544 0.077584L20.1336 0.0607824L15.7104 0.0437337L11.579 0.0277968C10.4012 0.0233493 9.22345 0.0189018 8.04569 0.0144543C7.16838 0.0110775 6.29124 0.00786547 5.41426 0.00481812C4.9401 0.00308854 4.46599 0.0014825 3.99192 0H3.86356C3.79832 0.000926013 3.73601 0.0272552 3.68987 0.073393C3.64374 0.119531 3.61741 0.181841 3.61648 0.247083C3.61549 1.34981 3.58387 2.45242 3.5835 3.55528C3.5835 3.87327 4.07766 3.87377 4.07766 3.55528Z" fill="#211715" />
                                        <path d="M33.8994 3.74738C33.8994 4.15919 33.8994 4.57099 33.8994 4.9828C33.8994 5.74274 33.8999 6.50264 33.9008 7.26251L33.903 10.3197L33.9056 13.9297C33.9066 15.2294 33.9075 16.5292 33.9084 17.8291L33.9114 21.7497C33.9123 22.9911 33.9132 24.2324 33.9141 25.4739L33.9163 28.7207C33.917 29.569 33.9175 30.4176 33.9179 31.2666C33.9179 31.7928 33.9182 32.319 33.9188 32.8451V33.0539C33.9188 33.3718 34.413 33.3724 34.413 33.0539C34.413 32.6185 34.413 32.1832 34.413 31.7479L34.4115 29.413L34.4093 26.3163L34.4067 22.6817C34.4057 21.3788 34.4047 20.0758 34.4038 18.7729C34.4028 17.4679 34.4019 16.163 34.401 14.858C34.4 13.6235 34.3991 12.3891 34.3983 11.1547C34.3974 10.0845 34.3966 9.0142 34.3959 7.94384C34.3954 7.11199 34.3949 6.28015 34.3943 5.4483C34.3943 4.94442 34.3941 4.44041 34.3936 3.93628C34.3936 3.87278 34.3936 3.80932 34.3936 3.7459C34.3936 3.42803 33.8994 3.42741 33.8994 3.7459V3.74738Z" fill="#211715" />
                                        <path d="M5.36182 3.74737C5.36182 4.15917 5.36202 4.57098 5.36243 4.98278C5.36243 5.74273 5.36289 6.50263 5.36379 7.26249L5.36602 10.3196L5.36861 13.9297C5.3696 15.2294 5.37055 16.5292 5.37145 17.8291L5.37442 21.7497C5.37532 22.991 5.37623 24.2324 5.37714 25.4739L5.37936 28.7207C5.38002 29.569 5.38055 30.4176 5.38097 31.2666C5.38097 31.7928 5.38125 32.319 5.38183 32.8451V33.0539C5.38183 33.3717 5.876 33.3724 5.876 33.0539C5.876 32.6185 5.876 32.1832 5.876 31.7479L5.87451 29.413L5.87229 26.3163L5.8697 22.6817C5.86871 21.3787 5.86776 20.0758 5.86685 18.7728C5.86587 17.4679 5.86492 16.163 5.86401 14.8579C5.86269 13.6241 5.86171 12.39 5.86105 11.1558C5.86014 10.0856 5.85936 9.0153 5.8587 7.94494C5.85821 7.11309 5.85767 6.28124 5.85709 5.4494C5.85709 4.94551 5.85685 4.44151 5.85635 3.93737C5.85635 3.87387 5.85635 3.81042 5.85635 3.747C5.85635 3.42913 5.36219 3.42851 5.36219 3.747L5.36182 3.74737Z" fill="#211715" />
                                        <path d="M5.61484 33.4334C5.93284 33.4334 5.93333 32.9392 5.61484 32.9392C5.29635 32.9392 5.29635 33.4334 5.61484 33.4334Z" fill="#211715" />
                                        <path d="M8.66207 31.9463C7.70734 31.9449 6.75257 31.9435 5.79776 31.9424C5.47977 31.9424 5.47927 32.4365 5.79776 32.4365C6.75266 32.4365 7.70743 32.4379 8.66207 32.4405C8.98007 32.4405 8.98056 31.9463 8.66207 31.9463Z" fill="#211715" />
                                        <path d="M21.9497 31.9684C20.753 31.9684 19.5562 31.9667 18.3593 31.9631L12.6241 31.953L9.99356 31.9484C9.67557 31.9484 9.67508 32.4426 9.99356 32.4426C11.711 32.4454 13.4282 32.4484 15.1452 32.4516C16.9104 32.4547 18.6756 32.4577 20.4408 32.4606C20.9432 32.4615 21.446 32.4621 21.9492 32.4626C22.2672 32.4626 22.2677 31.9684 21.9492 31.9684H21.9497Z" fill="#211715" />
                                        <path d="M27.6417 31.98C25.7443 31.9771 23.847 31.974 21.9496 31.9707C21.6316 31.9707 21.6311 32.4649 21.9496 32.4649C23.847 32.4682 25.7443 32.4713 27.6417 32.4741C27.9597 32.4741 27.9602 31.98 27.6417 31.98Z" fill="#211715" />
                                        <path d="M33.9744 31.9881C33.0288 31.9881 32.0832 31.987 31.1376 31.9849C30.8196 31.9849 30.8191 32.479 31.1376 32.479C32.0832 32.4804 33.0288 32.4815 33.9744 32.4822C34.2924 32.4822 34.2929 31.9881 33.9744 31.9881Z" fill="#211715" />
                                        <path d="M13.0824 23.0827C10.9265 23.0733 8.77051 23.0651 6.61447 23.058C6.32258 23.0573 6.03065 23.0567 5.73868 23.0564C5.42069 23.0564 5.42019 23.5506 5.73868 23.5506C7.44269 23.5506 9.14682 23.5608 10.8508 23.5679L13.0824 23.5774C13.4005 23.5789 13.4008 23.0847 13.0824 23.0832V23.0827Z" fill="#211715" />
                                        <path d="M33.6546 23.1708C32.261 23.173 30.8675 23.1621 29.4739 23.1562C26.8274 23.1449 24.1809 23.1331 21.5343 23.1208L16.5556 23.0981C16.2376 23.0968 16.2371 23.5908 16.5556 23.5923C19.4731 23.6054 22.3906 23.6187 25.3081 23.6321C27.5271 23.6421 29.746 23.6516 31.9648 23.6605C32.5281 23.6625 33.0914 23.6658 33.6547 23.665C33.9726 23.665 33.9732 23.1708 33.6547 23.1708H33.6546Z" fill="#211715" />
                                        <path d="M13.0549 22.0941C10.953 22.085 8.85105 22.0767 6.74912 22.0694C6.48557 22.0687 6.22201 22.0681 5.95846 22.0678C5.64046 22.0678 5.63984 22.562 5.95846 22.562C7.58525 22.562 9.21217 22.5722 10.8391 22.579L13.0553 22.5885C13.3733 22.5899 13.3737 22.0957 13.0553 22.0944L13.0549 22.0941Z" fill="#211715" />
                                        <path d="M18.9024 22.1204C18.152 22.1169 17.4016 22.1133 16.6512 22.1096C16.3332 22.1081 16.3329 22.6023 16.6512 22.6038C17.4016 22.6071 18.152 22.6107 18.9024 22.6145C19.2204 22.616 19.2209 22.1219 18.9024 22.1204Z" fill="#211715" />
                                        <path d="M26.2465 22.1553C24.3384 22.1471 22.4303 22.1373 20.5223 22.1259C20.2043 22.1244 20.204 22.6186 20.5223 22.6201C22.4304 22.6283 24.3384 22.6381 26.2465 22.6495C26.5645 22.651 26.5649 22.1568 26.2465 22.1553Z" fill="#211715" />
                                        <path d="M33.874 22.1825C32.5877 22.1844 31.3012 22.1744 30.0149 22.1687L28.0722 22.1602C27.7541 22.1589 27.7537 22.653 28.0722 22.6544C29.7979 22.6619 31.5237 22.669 33.2496 22.6759C33.4578 22.6764 33.6659 22.6766 33.874 22.6766C34.192 22.6766 34.1926 22.1825 33.874 22.1825Z" fill="#211715" />
                                        <path d="M33.8656 13.2875C33.4477 13.2875 33.0298 13.2865 32.6119 13.2853C31.8796 13.2831 31.1472 13.2805 30.4147 13.2775C29.4485 13.2736 28.4823 13.2695 27.5161 13.2651L24.116 13.2501L20.4536 13.2333L16.7735 13.2163L13.268 13.2004C12.2393 13.1958 11.2107 13.1913 10.182 13.1869C9.37203 13.1835 8.56209 13.1803 7.75215 13.1773C7.22908 13.1753 6.70609 13.1738 6.18318 13.1726H5.95846C5.64046 13.1726 5.63984 13.6668 5.95846 13.6668C6.39892 13.6668 6.83955 13.6678 7.28035 13.67C8.03049 13.6726 8.78064 13.6755 9.53078 13.6786C10.5097 13.6827 11.4887 13.6868 12.4676 13.691C13.609 13.6961 14.7504 13.7013 15.8917 13.7066L19.5631 13.7234L23.2377 13.7403C24.399 13.7455 25.5607 13.7507 26.7229 13.7558C27.7399 13.7603 28.7571 13.7646 29.7744 13.7688C30.568 13.772 31.3614 13.775 32.1548 13.7778C32.6565 13.7795 33.1581 13.7807 33.6598 13.7814H33.8667C34.1846 13.7814 34.1852 13.2873 33.8667 13.2873L33.8656 13.2875Z" fill="#211715" />
                                        <path d="M8.23656 12.1904C7.47703 12.1876 6.7175 12.1856 5.95797 12.1843C5.63997 12.1843 5.63935 12.6784 5.95797 12.6784C6.7175 12.6784 7.47703 12.6805 8.23656 12.6846C8.55456 12.6858 8.55505 12.1917 8.23656 12.1904Z" fill="#211715" />
                                        <path d="M16.816 12.2269C15.0006 12.2175 13.1852 12.2073 11.3697 12.1964C10.9294 12.1945 10.4891 12.1925 10.0488 12.1904C9.73067 12.1893 9.7303 12.6835 10.0488 12.6846C11.7009 12.6909 13.3529 12.6997 15.005 12.7112C15.6088 12.7146 16.2125 12.7179 16.8161 12.721C17.1343 12.7226 17.1345 12.2285 16.816 12.2269Z" fill="#211715" />
                                        <path d="M22.0138 12.2524C21.4525 12.2499 20.8913 12.2472 20.3301 12.2444C20.2646 12.2444 20.2017 12.2705 20.1554 12.3168C20.109 12.3632 20.083 12.426 20.083 12.4915C20.083 12.5571 20.109 12.6199 20.1554 12.6662C20.2017 12.7126 20.2646 12.7386 20.3301 12.7386C20.8914 12.7413 21.4526 12.744 22.0138 12.7465C22.0794 12.7465 22.1422 12.7205 22.1886 12.6741C22.2349 12.6278 22.2609 12.565 22.2609 12.4994C22.2609 12.4339 22.2349 12.3711 22.1886 12.3247C22.1422 12.2784 22.0794 12.2524 22.0138 12.2524Z" fill="#211715" />
                                        <path d="M26.1925 12.2662C25.431 12.2626 24.6695 12.2593 23.9081 12.2562C23.5901 12.2548 23.5896 12.749 23.9081 12.7503C24.6695 12.754 25.431 12.7573 26.1925 12.7603C26.5105 12.7619 26.5109 12.2678 26.1925 12.2662Z" fill="#211715" />
                                        <path d="M28.0859 12.7503C29.7695 12.7575 31.4533 12.7533 33.137 12.7574C33.4711 12.7581 33.8052 12.7591 34.1394 12.7603C34.4574 12.762 34.4578 12.2678 34.1394 12.2662C32.7486 12.2598 31.3578 12.2561 29.9671 12.2553C29.34 12.2553 28.7129 12.2589 28.0859 12.2562C27.7678 12.2549 27.7674 12.7491 28.0859 12.7503Z" fill="#211715" />
                                        <path d="M36.5828 3.4042C36.1059 3.4042 35.629 3.40321 35.152 3.40197C34.2943 3.39983 33.4364 3.39724 32.5785 3.39419C31.4192 3.3904 30.2599 3.38628 29.1007 3.38184L25.0353 3.36676L20.6489 3.35033L16.2206 3.33328L12.0293 3.31747C10.7998 3.31311 9.57015 3.30858 8.3405 3.30388C7.38182 3.30042 6.42318 3.29717 5.46458 3.29412C4.86442 3.29223 4.26421 3.2907 3.66396 3.28955H3.41886C3.10086 3.28955 3.10037 3.78372 3.41886 3.78372C3.91994 3.78372 4.42103 3.78479 4.92211 3.78693C5.79868 3.78956 6.67525 3.79245 7.55181 3.79558C8.72488 3.79969 9.89782 3.80381 11.0706 3.80793L15.1613 3.82337L19.5574 3.84017L23.9802 3.8571L28.1501 3.87267C29.3673 3.87711 30.5844 3.88144 31.8015 3.88564C32.7427 3.88885 33.6837 3.89186 34.6248 3.89466C35.2022 3.8963 35.7797 3.8975 36.3571 3.89824C36.4323 3.89824 36.5076 3.89824 36.5831 3.89824C36.9011 3.89824 36.9017 3.40407 36.5831 3.40407L36.5828 3.4042Z" fill="#211715" />
                                        <path d="M36.5828 33.0541C36.1059 33.0541 35.629 33.0531 35.152 33.0519C34.2943 33.0497 33.4364 33.0471 32.5785 33.0441C31.4192 33.0403 30.2599 33.0362 29.1007 33.0317L25.0353 33.0167L20.6488 33L16.2205 32.9829L12.0292 32.9671C10.7996 32.9624 9.56999 32.9579 8.3405 32.9535C7.38182 32.9501 6.42318 32.9468 5.46458 32.9438C4.86442 32.942 4.26421 32.9404 3.66396 32.9392H3.41886C3.10086 32.9392 3.10037 33.4334 3.41886 33.4334C3.91994 33.4334 4.42103 33.4344 4.92211 33.4366C5.79868 33.4391 6.67525 33.442 7.55181 33.4452C8.72488 33.4494 9.89782 33.4535 11.0706 33.4576L15.1613 33.473L19.5574 33.4898L23.9802 33.5068L28.1501 33.5223C29.3673 33.5268 30.5844 33.5309 31.8015 33.5347C32.7427 33.5379 33.6837 33.5409 34.6248 33.5437C35.2022 33.5453 35.7797 33.5465 36.3571 33.5473H36.5831C36.9011 33.5473 36.9017 33.0531 36.5831 33.0531L36.5828 33.0541Z" fill="#211715" />
                                        <path d="M16.2868 21.7764C16.2896 21.7931 16.2831 21.7103 16.285 21.7707C16.2858 21.7954 16.2884 21.8195 16.2896 21.8439C16.2931 21.9105 16.2948 21.9773 16.2963 22.044C16.3004 22.2259 16.3012 22.408 16.3016 22.5899C16.3022 22.8782 16.2994 23.1665 16.2991 23.4547L16.5462 23.2077C15.551 23.2077 14.5556 23.1916 13.5603 23.1837C13.3958 23.1823 13.2311 23.1803 13.0662 23.1802L13.3133 23.4273C13.3133 22.8668 13.3198 22.3063 13.3202 21.7458L13.1388 21.984C13.1848 21.9693 13.0654 21.9858 13.1141 21.9866C13.1403 21.9866 13.1677 21.9824 13.1939 21.9808C13.2776 21.9758 13.3613 21.973 13.4449 21.9701C13.7035 21.9616 13.9622 21.9567 14.2208 21.9523C14.8117 21.9427 15.4028 21.9365 15.9937 21.9412C16.1049 21.9421 16.2161 21.9432 16.3273 21.9464C16.3673 21.9475 16.4073 21.9485 16.4474 21.951C16.4775 21.9527 16.574 21.9664 16.4597 21.9489C16.5229 21.9642 16.5895 21.9548 16.646 21.9227C16.7025 21.8905 16.7445 21.838 16.7636 21.7759C16.7806 21.7127 16.7719 21.6454 16.7395 21.5885C16.7071 21.5316 16.6537 21.4898 16.5907 21.472C16.1699 21.407 15.7203 21.4442 15.2966 21.4463C14.7014 21.4493 14.1058 21.4555 13.5109 21.4736C13.3424 21.463 13.1732 21.4742 13.0076 21.5071C12.956 21.5224 12.9106 21.5538 12.878 21.5966C12.8454 21.6395 12.8273 21.6916 12.8263 21.7454C12.8263 22.3059 12.8196 22.8664 12.8193 23.4269C12.8203 23.4922 12.8466 23.5545 12.8928 23.6006C12.9389 23.6467 13.0012 23.6731 13.0664 23.674C14.0648 23.6749 15.0632 23.6902 16.0614 23.6981C16.223 23.6993 16.3846 23.7014 16.5462 23.7014C16.6114 23.7005 16.6737 23.6742 16.7199 23.628C16.766 23.5819 16.7923 23.5196 16.7933 23.4544C16.7933 23.1543 16.7966 22.8542 16.7958 22.5541C16.8102 22.2505 16.7994 21.9463 16.7633 21.6445C16.7455 21.5815 16.7037 21.528 16.6468 21.4957C16.5899 21.4633 16.5226 21.4546 16.4594 21.4715C16.3967 21.4901 16.3438 21.5323 16.3116 21.5892C16.2794 21.646 16.2705 21.7131 16.2868 21.7764Z" fill="#211715" />
                                        <path d="M14.066 22.8565C14.4476 22.8565 14.4482 22.2635 14.066 22.2635C13.6837 22.2635 13.6837 22.8565 14.066 22.8565Z" fill="#211715" />
                                        <path d="M14.9516 22.8208C15.1479 22.8208 15.3458 22.8143 15.5419 22.8277C15.5908 22.8277 15.6385 22.8132 15.6791 22.7861C15.7198 22.7589 15.7514 22.7204 15.7701 22.6752C15.7888 22.6301 15.7937 22.5804 15.7842 22.5325C15.7747 22.4846 15.7511 22.4405 15.7166 22.406C15.6689 22.3618 15.6069 22.3361 15.5419 22.3336C15.3458 22.3201 15.1479 22.3267 14.9516 22.3267C14.8863 22.3275 14.8237 22.3534 14.7769 22.3991C14.7424 22.4336 14.7189 22.4776 14.7093 22.5256C14.6998 22.5735 14.7047 22.6232 14.7234 22.6683C14.7421 22.7134 14.7738 22.752 14.8144 22.7792C14.855 22.8063 14.9028 22.8208 14.9516 22.8208Z" fill="#211715" />
                                        <path d="M20.0456 11.703C20.0485 11.7197 20.042 11.6369 20.0438 11.6973C20.0447 11.722 20.0472 11.7461 20.0485 11.7704C20.052 11.837 20.0536 11.9039 20.0551 11.9706C20.0592 12.1524 20.0601 12.3345 20.0605 12.5165C20.0605 12.8047 20.0582 13.0931 20.0579 13.3813L20.305 13.1342C19.3098 13.1342 18.3144 13.1181 17.3193 13.1102C17.1546 13.1089 16.9899 13.1069 16.8251 13.1068L17.0722 13.3539C17.0722 12.7567 17.0853 12.1596 17.086 11.5625L16.9045 11.8007C16.9343 11.7914 16.8235 11.8024 16.8798 11.8042C16.906 11.805 16.9333 11.8016 16.9595 11.8008C17.043 11.7984 17.1265 11.7982 17.21 11.7982C17.4681 11.7982 17.7262 11.8019 17.9843 11.8064C18.5741 11.8165 19.1641 11.8311 19.7535 11.8536C19.8647 11.8579 19.9759 11.8625 20.086 11.8686C20.126 11.8709 20.1659 11.8736 20.2059 11.8762C20.2194 11.8772 20.2329 11.8793 20.2463 11.8796C20.297 11.8812 20.208 11.8738 20.218 11.8754C20.2812 11.8908 20.3478 11.8815 20.4043 11.8493C20.4608 11.8172 20.5029 11.7646 20.5219 11.7025C20.5389 11.6392 20.5302 11.5719 20.4978 11.515C20.4655 11.4581 20.412 11.4162 20.349 11.3984C19.9201 11.3507 19.4886 11.3301 19.0571 11.3367C18.4634 11.32 17.8693 11.3058 17.2752 11.3043C17.1076 11.2871 16.9385 11.2939 16.7728 11.3243C16.7212 11.3396 16.6758 11.371 16.6432 11.4138C16.6106 11.4567 16.5925 11.5088 16.5915 11.5626C16.5907 12.1597 16.5781 12.7568 16.5776 13.354C16.5786 13.4192 16.605 13.4815 16.6511 13.5276C16.6972 13.5737 16.7595 13.6001 16.8247 13.6011C17.8231 13.6019 18.8215 13.6173 19.8197 13.6252C19.9813 13.6264 20.1429 13.6285 20.3045 13.6285C20.3697 13.6275 20.432 13.6012 20.4782 13.5551C20.5243 13.5089 20.5506 13.4466 20.5516 13.3814C20.5516 13.0813 20.5549 12.7812 20.5541 12.4812C20.5685 12.1776 20.5577 11.8733 20.5216 11.5715C20.5038 11.5086 20.4619 11.4551 20.405 11.4228C20.3482 11.3904 20.2809 11.3817 20.2177 11.3986C20.1553 11.4174 20.1026 11.4596 20.0706 11.5163C20.0385 11.573 20.0296 11.6398 20.0456 11.703Z" fill="#211715" />
                                        <path d="M17.7496 12.7193C18.1312 12.7193 18.1318 12.1263 17.7496 12.1263C17.3673 12.1263 17.3673 12.7193 17.7496 12.7193Z" fill="#211715" />
                                        <path d="M18.582 12.7239C18.9635 12.7239 18.9642 12.1309 18.582 12.1309C18.1999 12.1309 18.1998 12.7239 18.582 12.7239Z" fill="#211715" />
                                        <path d="M19.4102 12.7467C19.7918 12.7467 19.7924 12.1537 19.4102 12.1537C19.0279 12.1537 19.0281 12.7467 19.4102 12.7467Z" fill="#211715" />
                                        <path d="M30.8809 31.6099C30.8686 31.5384 30.8809 31.6321 30.8833 31.6785C30.8864 31.7453 30.8876 31.8121 30.8886 31.8791C30.8912 32.0545 30.8907 32.2302 30.8897 32.4058C30.888 32.6882 30.8817 32.9707 30.8812 33.2533L31.1282 33.0062C30.1331 33.0062 29.1376 32.9901 28.1425 32.9822C27.9778 32.9808 27.8131 32.9789 27.6483 32.9786L27.8954 33.2257C27.8954 32.6423 27.9062 32.059 27.9068 31.4756L27.6597 31.7227C28.0377 31.7034 28.4222 31.7267 28.8002 31.7315C29.3938 31.7393 29.9875 31.7478 30.5807 31.7651C30.6947 31.7684 30.8088 31.7719 30.9228 31.7774C30.9605 31.7792 30.9983 31.7809 31.036 31.7835C31.0902 31.7874 31.118 31.7928 31.0533 31.7826C31.1164 31.798 31.1831 31.7886 31.2396 31.7565C31.296 31.7243 31.3381 31.6718 31.3572 31.6097C31.3741 31.5464 31.3655 31.4791 31.3331 31.4222C31.3007 31.3653 31.2472 31.3235 31.1842 31.3058C30.7581 31.2602 30.3295 31.2432 29.9011 31.2547C29.3066 31.2431 28.7121 31.2349 28.1177 31.23C27.9656 31.2287 27.8114 31.221 27.6593 31.2288C27.5942 31.23 27.532 31.2564 27.4859 31.3025C27.4399 31.3486 27.4134 31.4107 27.4122 31.4759C27.4122 32.0592 27.4012 32.6426 27.4009 33.226C27.4018 33.2912 27.4281 33.3535 27.4743 33.3996C27.5204 33.4458 27.5827 33.4721 27.648 33.473C28.6462 33.474 29.6446 33.4893 30.6429 33.4971C30.8044 33.4985 30.966 33.5006 31.1276 33.5006C31.1929 33.4997 31.2552 33.4733 31.3013 33.4272C31.3475 33.3811 31.3738 33.3187 31.3747 33.2535C31.3747 32.9594 31.3819 32.6652 31.3834 32.3709C31.4004 32.0734 31.3915 31.7749 31.3568 31.4788C31.339 31.4159 31.2971 31.3625 31.2403 31.3301C31.1834 31.2977 31.1161 31.289 31.0529 31.3059C30.9906 31.3247 30.9379 31.3667 30.9059 31.4234C30.8739 31.48 30.8649 31.5468 30.8809 31.6099Z" fill="#211715" />
                                        <path d="M28.937 32.6643C29.3185 32.6643 29.3191 32.0714 28.937 32.0714C28.5549 32.0714 28.5548 32.6643 28.937 32.6643Z" fill="#211715" />
                                        <path d="M29.8018 32.6781C30.1833 32.6781 30.1839 32.0851 29.8018 32.0851C29.4197 32.0851 29.4195 32.6781 29.8018 32.6781Z" fill="#211715" />
                                        <path d="M8.30236 12.1869C8.26105 12.1843 8.2203 12.176 8.18129 12.1622C8.18833 12.166 8.17338 12.1491 8.16337 12.132C8.12897 12.0692 8.10751 12.0001 8.10024 11.9288C8.07846 11.6757 8.07433 11.4214 8.08789 11.1677C8.09036 10.6268 8.09703 10.0861 8.10432 9.5452C8.10795 9.28395 8.1114 9.02257 8.1147 8.76108C8.09823 8.48243 8.1065 8.20288 8.13941 7.92569C8.19631 7.70788 8.30073 7.50537 8.44517 7.33269C8.57415 7.15195 8.70461 6.97158 8.82012 6.78207C8.98641 6.51028 8.5592 6.26146 8.39341 6.53264C8.19031 6.86509 7.89924 7.16406 7.74914 7.52443C7.56988 7.95398 7.62436 8.44864 7.61856 8.90414C7.6062 9.85331 7.56197 10.8095 7.59385 11.7579C7.60719 12.1533 7.71467 12.6007 8.17017 12.6629C8.23334 12.6781 8.29991 12.6686 8.35638 12.6365C8.41285 12.6044 8.45498 12.552 8.4742 12.4899C8.49114 12.4267 8.48249 12.3594 8.45012 12.3025C8.41774 12.2456 8.36425 12.2037 8.30125 12.186L8.30236 12.1869Z" fill="#211715" />
                                        <path d="M9.55638 6.81951C9.66374 6.97221 9.77604 7.1212 9.88389 7.2734C10.0131 7.45612 10.1595 7.62166 10.2174 7.84256C10.2858 8.10051 10.2515 8.39713 10.2545 8.6625C10.2579 8.94253 10.2616 9.22231 10.2655 9.50184C10.273 10.0578 10.2801 10.6148 10.2824 11.1713C10.3021 11.4412 10.2996 11.7123 10.2751 11.9818C10.2663 12.0393 10.2372 12.0918 10.193 12.1297C10.1489 12.1676 10.0927 12.1885 10.0345 12.1886C9.71674 12.1941 9.71575 12.6882 10.0345 12.6828C10.2193 12.6803 10.3966 12.6093 10.5319 12.4834C10.6673 12.3575 10.751 12.1858 10.7668 12.0017C10.7836 11.7741 10.7873 11.5457 10.778 11.3177C10.7771 11.0599 10.7755 10.8023 10.773 10.5447C10.7684 10.0586 10.7613 9.57251 10.7549 9.08686C10.7515 8.83846 10.7484 8.58998 10.7457 8.34142C10.7594 8.09702 10.7322 7.85205 10.6653 7.6166C10.5294 7.23115 10.2165 6.90191 9.98309 6.56983C9.80173 6.31151 9.37304 6.55822 9.55638 6.81926V6.81951Z" fill="#211715" />
                                        <path d="M8.70577 6.33383C8.69237 6.33489 8.6789 6.33439 8.66562 6.33235C8.67044 6.3368 8.71503 6.3447 8.68205 6.3342C8.62028 6.31518 8.71281 6.35483 8.68427 6.33704C8.73826 6.37065 8.72665 6.37262 8.71293 6.35817C8.75556 6.40289 8.74814 6.40759 8.73764 6.38869C8.76779 6.44243 8.7605 6.44823 8.7542 6.42426C8.74728 6.39783 8.76149 6.4995 8.76062 6.46738C8.75951 6.42476 8.75519 6.49444 8.75383 6.50556C8.75692 6.47974 8.7626 6.45404 8.76445 6.42822C8.76803 6.38041 8.76445 6.33124 8.76445 6.2833C8.76445 6.09626 8.76482 5.90922 8.76556 5.72218C8.76556 5.71205 8.76556 5.70192 8.76556 5.69166C8.76556 5.66053 8.78237 5.65176 8.76062 5.71501C8.76544 5.70202 8.76872 5.6885 8.77038 5.67474C8.76964 5.67301 8.74456 5.73861 8.75803 5.70303C8.76136 5.69451 8.78274 5.6609 8.75803 5.6992C8.72912 5.7459 8.77928 5.68314 8.74024 5.71847C8.69749 5.75714 8.76803 5.70402 8.72059 5.73083L8.70416 5.73799C8.72442 5.7333 8.72381 5.7328 8.70256 5.73614C8.70355 5.7396 8.65709 5.73614 8.70626 5.73762C8.72307 5.73762 8.73999 5.73762 8.75692 5.73762H9.55907C9.57278 5.73762 9.58674 5.73762 9.60046 5.73762C9.61775 5.737 9.64493 5.74615 9.586 5.73404C9.60527 5.73799 9.61862 5.75121 9.56797 5.72354C9.5844 5.73243 9.59724 5.74627 9.54993 5.70612C9.55771 5.71267 9.58378 5.74108 9.55401 5.70735C9.52658 5.6761 9.54647 5.70031 9.55215 5.71094C9.55042 5.70785 9.53473 5.65003 9.53844 5.68129C9.53953 5.68772 9.54118 5.69405 9.54338 5.70019C9.55018 5.71872 9.53313 5.74788 9.53869 5.66016C9.53646 5.69722 9.54029 5.73515 9.54029 5.77135C9.54029 5.97445 9.5405 6.17755 9.54091 6.38065C9.54091 6.40079 9.53906 6.42204 9.54091 6.44243C9.54252 6.46528 9.55932 6.36472 9.54239 6.41623C9.53399 6.44168 9.5713 6.35731 9.55697 6.38103C9.54264 6.40475 9.60243 6.3326 9.5755 6.35817C9.54857 6.38374 9.59934 6.33976 9.5991 6.33989C9.56759 6.36101 9.61849 6.32753 9.62195 6.33087C9.62072 6.32976 9.59341 6.34075 9.59144 6.33803C9.58946 6.33532 9.64518 6.33569 9.60083 6.33359C9.58477 6.33284 9.56834 6.33359 9.55228 6.33359H8.70577C8.64024 6.33359 8.57739 6.35962 8.53106 6.40595C8.48472 6.45229 8.45869 6.51514 8.45869 6.58067C8.45869 6.6462 8.48472 6.70905 8.53106 6.75538C8.57739 6.80172 8.64024 6.82775 8.70577 6.82775H9.56031C9.66433 6.83374 9.76794 6.81032 9.85928 6.76017C9.91355 6.72478 9.95815 6.67644 9.98905 6.6195C10.02 6.56255 10.0362 6.49881 10.0363 6.43402C10.0441 6.224 10.0363 6.01164 10.0357 5.80125C10.0447 5.68875 10.0272 5.57571 9.98442 5.47127C9.94982 5.40404 9.89767 5.34741 9.83352 5.3074C9.76936 5.26738 9.69558 5.24546 9.61998 5.24395C9.48655 5.23641 9.3509 5.24395 9.21735 5.24395H8.75432C8.65388 5.23742 8.55375 5.2608 8.46659 5.31116C8.40813 5.35185 8.3601 5.40578 8.32644 5.46856C8.29277 5.53133 8.27442 5.60118 8.27288 5.67239C8.25818 5.89131 8.27029 6.11516 8.27078 6.33445C8.26843 6.3648 8.26843 6.39528 8.27078 6.42562C8.26633 6.39844 8.28178 6.34483 8.27819 6.37015C8.27461 6.39548 8.27004 6.41957 8.26794 6.44502C8.26514 6.48816 8.27025 6.53145 8.28301 6.57276C8.33737 6.75807 8.53009 6.82528 8.70565 6.82837C8.77118 6.82837 8.83402 6.80234 8.88036 6.756C8.9267 6.70966 8.95273 6.64682 8.95273 6.58129C8.95273 6.51576 8.9267 6.45291 8.88036 6.40657C8.83402 6.36024 8.77118 6.3342 8.70565 6.3342L8.70577 6.33383Z" fill="#211715" />
                                        <path d="M7.94376 8.91748C8.7789 8.91748 9.61404 8.91476 10.4492 8.91476C10.7672 8.91476 10.7677 8.42059 10.4492 8.42059C9.61404 8.42059 8.7789 8.42331 7.94376 8.42331C7.62576 8.42331 7.62527 8.91748 7.94376 8.91748Z" fill="#211715" />
                                        <path d="M7.88161 10.3442C8.74936 10.3186 9.61786 10.3344 10.4856 10.3565C10.8037 10.3647 10.8035 9.87049 10.4856 9.86234C9.61786 9.8401 8.74936 9.82429 7.88161 9.84998C7.56423 9.85937 7.56287 10.3535 7.88161 10.3442Z" fill="#211715" />
                                        <path d="M13.5921 6.8195C13.6952 6.96627 13.803 7.1097 13.907 7.25585C14.0298 7.40126 14.1344 7.56111 14.2184 7.73185C14.3097 7.96424 14.2858 8.21885 14.2885 8.46334C14.2915 8.72838 14.2947 8.9933 14.2982 9.25809C14.305 9.7903 14.3121 10.3226 14.3162 10.855C14.3182 11.1236 14.3195 11.3921 14.3199 11.6607C14.3199 11.7836 14.3235 11.9078 14.3175 12.0301C14.3206 12.0903 14.31 12.1504 14.2865 12.2059C14.2058 12.3312 13.9282 12.3207 13.8011 12.3217C13.6608 12.3227 13.5204 12.3217 13.3801 12.3217C13.0721 12.3373 12.7635 12.3342 12.4559 12.3124C12.3752 12.3053 12.296 12.2859 12.2211 12.2548C12.1704 12.2309 12.1725 12.2207 12.1563 12.1601C12.1147 11.9247 12.1038 11.6848 12.1238 11.4466C12.1255 10.9063 12.1302 10.3662 12.1379 9.82613C12.1416 9.52419 12.1454 9.2223 12.1494 8.92045C12.1531 8.62741 12.139 8.32844 12.1617 8.03626C12.1924 7.79093 12.294 7.55989 12.4541 7.37148C12.5949 7.18012 12.7332 6.9848 12.8571 6.78207C13.0234 6.51028 12.5961 6.26146 12.4304 6.53264C12.1791 6.94378 11.799 7.30934 11.6999 7.79486C11.6592 8.07929 11.6454 8.36694 11.6587 8.65397C11.6552 8.95755 11.6514 9.26101 11.6473 9.56434C11.6396 10.1615 11.6325 10.7587 11.6302 11.3557C11.6286 11.7719 11.5276 12.4595 11.9832 12.6864C12.3199 12.854 12.7245 12.8155 13.0895 12.8155C13.4635 12.8155 13.8739 12.858 14.2398 12.7677C14.3525 12.7473 14.4584 12.6994 14.5481 12.6283C14.6378 12.5572 14.7086 12.465 14.7541 12.36C14.8417 12.1341 14.8149 11.8658 14.8145 11.629C14.8137 11.0313 14.8076 10.4337 14.8003 9.83614C14.7963 9.50669 14.7922 9.177 14.788 8.84706C14.8011 8.51625 14.7917 8.18494 14.7599 7.8554C14.6846 7.3574 14.2999 6.96763 14.0195 6.56859C13.8381 6.31026 13.4095 6.55698 13.5928 6.81802L13.5921 6.8195Z" fill="#211715" />
                                        <path d="M12.7423 6.33383C12.7289 6.33489 12.7155 6.33439 12.7022 6.33235C12.7071 6.3368 12.7517 6.3447 12.7187 6.3342C12.6569 6.31518 12.7493 6.35483 12.7209 6.33704C12.7748 6.37065 12.7633 6.37262 12.7496 6.35817C12.7921 6.40289 12.7848 6.40759 12.7743 6.38869C12.8044 6.44243 12.7972 6.44823 12.7909 6.42426C12.7839 6.39783 12.7981 6.4995 12.7972 6.46738C12.7961 6.42476 12.7919 6.49444 12.7906 6.50556C12.7937 6.47974 12.7992 6.45404 12.8012 6.42822C12.8047 6.38041 12.8012 6.33124 12.8012 6.2833C12.8012 6.09626 12.8015 5.90922 12.8022 5.72218C12.8022 5.71205 12.8022 5.70192 12.8022 5.69166C12.8022 5.66053 12.8191 5.65176 12.7972 5.71501C12.8021 5.70202 12.8054 5.6885 12.8071 5.67474C12.8063 5.67301 12.7812 5.73861 12.7948 5.70303C12.7981 5.69451 12.8187 5.6609 12.7948 5.6992C12.7659 5.7459 12.816 5.68314 12.777 5.71847C12.7342 5.75714 12.8047 5.70402 12.7572 5.73083L12.7409 5.73799C12.7611 5.7333 12.7606 5.7328 12.7393 5.73614C12.7402 5.7396 12.6937 5.73614 12.743 5.73762C12.7598 5.73762 12.7767 5.73762 12.7935 5.73762H13.5958C13.6095 5.73762 13.6234 5.73762 13.6372 5.73762C13.6545 5.737 13.6816 5.74615 13.6228 5.73404C13.6419 5.73799 13.6552 5.75121 13.6047 5.72354C13.6211 5.73243 13.6339 5.74627 13.5866 5.70612C13.5943 5.71267 13.6205 5.74108 13.5908 5.70735C13.5632 5.6761 13.5832 5.70031 13.5888 5.71094C13.5872 5.70785 13.5715 5.65003 13.5752 5.68129C13.5762 5.68772 13.5779 5.69404 13.58 5.70019C13.5869 5.71872 13.5699 5.74788 13.5754 5.66016C13.5731 5.69722 13.577 5.73515 13.577 5.77135C13.577 5.97445 13.577 6.17755 13.577 6.38065C13.577 6.40079 13.5751 6.42204 13.577 6.44243C13.5788 6.46528 13.5956 6.36472 13.5786 6.41623C13.5702 6.44168 13.6076 6.35731 13.5932 6.38103C13.5789 6.40475 13.6387 6.3326 13.6116 6.35817C13.5846 6.38374 13.6354 6.33989 13.6354 6.33989C13.6039 6.36101 13.6548 6.32753 13.6581 6.33087C13.657 6.32976 13.6297 6.34075 13.6277 6.33803C13.6257 6.33532 13.6813 6.33569 13.6371 6.33359C13.6209 6.33284 13.6046 6.33359 13.5885 6.33359H12.7423C12.6767 6.33359 12.6139 6.35962 12.5676 6.40595C12.5212 6.45229 12.4952 6.51514 12.4952 6.58067C12.4952 6.6462 12.5212 6.70905 12.5676 6.75538C12.6139 6.80172 12.6767 6.82775 12.7423 6.82775H13.5969C13.7009 6.83376 13.8045 6.81034 13.8958 6.76017C13.9501 6.72483 13.9947 6.67649 14.0256 6.61954C14.0565 6.56259 14.0728 6.49882 14.0728 6.43402C14.0807 6.224 14.0728 6.01164 14.0728 5.80125C14.0818 5.68874 14.0642 5.5757 14.0214 5.47127C13.9869 5.40403 13.9347 5.3474 13.8706 5.30738C13.8065 5.26736 13.7327 5.24544 13.6571 5.24395C13.5237 5.23641 13.388 5.24395 13.2545 5.24395H12.7903C12.6899 5.23743 12.5898 5.26082 12.5026 5.31116C12.4442 5.35187 12.3962 5.40581 12.3625 5.46858C12.3289 5.53136 12.3106 5.60119 12.309 5.67239C12.2943 5.89131 12.3064 6.11516 12.3069 6.33445C12.3046 6.3648 12.3046 6.39528 12.3069 6.42562C12.3023 6.39844 12.3178 6.34483 12.3142 6.37015C12.3106 6.39548 12.3062 6.41957 12.3041 6.44502C12.3012 6.48816 12.3063 6.53145 12.319 6.57276C12.3734 6.75807 12.5661 6.82528 12.7417 6.82837C12.8072 6.82837 12.87 6.80234 12.9164 6.756C12.9627 6.70966 12.9887 6.64682 12.9887 6.58129C12.9887 6.51576 12.9627 6.45291 12.9164 6.40657C12.87 6.36024 12.8072 6.3342 12.7417 6.3342L12.7423 6.33383Z" fill="#211715" />
                                        <path d="M11.9795 8.91748C12.8146 8.91748 13.6497 8.91476 14.4849 8.91476C14.8029 8.91476 14.8034 8.42059 14.4849 8.42059C13.6497 8.42059 12.8146 8.42331 11.9795 8.42331C11.6615 8.42331 11.6608 8.91748 11.9795 8.91748Z" fill="#211715" />
                                        <path d="M12.7632 7.79187C13.0491 7.79187 13.3349 7.78915 13.6208 7.78915C13.6864 7.78915 13.7492 7.76312 13.7955 7.71678C13.8419 7.67044 13.8679 7.6076 13.8679 7.54207C13.8679 7.47654 13.8419 7.41369 13.7955 7.36735C13.7492 7.32101 13.6864 7.29498 13.6208 7.29498C13.3349 7.29498 13.0491 7.2977 12.7632 7.2977C12.6977 7.2977 12.6348 7.32373 12.5885 7.37007C12.5421 7.41641 12.5161 7.47925 12.5161 7.54478C12.5161 7.61031 12.5421 7.67316 12.5885 7.7195C12.6348 7.76583 12.6977 7.79187 12.7632 7.79187Z" fill="#211715" />
                                        <path d="M11.9172 10.3442C12.785 10.3186 13.6535 10.3344 14.5213 10.3565C14.8394 10.3647 14.8392 9.87049 14.5213 9.86234C13.6535 9.8401 12.785 9.82429 11.9172 9.84998C11.5999 9.85937 11.5985 10.3535 11.9172 10.3442Z" fill="#211715" />
                                        <path d="M25.2305 16.9389C25.2305 18.461 25.2302 19.9831 25.2295 21.5053C25.2295 21.7574 25.2295 22.0094 25.2295 22.2615C25.2295 22.5795 25.7237 22.58 25.7237 22.2615C25.7237 20.8037 25.724 19.3455 25.7246 17.8868C25.7246 17.571 25.7246 17.255 25.7246 16.9389C25.7246 16.6209 25.2305 16.6204 25.2305 16.9389Z" fill="#211715" />
                                        <path d="M30.2685 17.6938C28.9602 17.6691 27.6512 17.6756 26.3427 17.6756C26.0247 17.6756 26.0241 18.1697 26.3427 18.1697C27.6512 18.1697 28.9602 18.1639 30.2685 18.188C30.5866 18.1939 30.5866 17.6998 30.2685 17.6938Z" fill="#211715" />
                                        <path d="M27.6329 18.8461C27.1387 18.8461 26.6446 18.8289 26.1504 18.8286C26.0849 18.8286 26.022 18.8546 25.9757 18.9009C25.9294 18.9473 25.9033 19.0101 25.9033 19.0756C25.9033 19.1412 25.9294 19.204 25.9757 19.2503C26.022 19.2967 26.0849 19.3227 26.1504 19.3227C26.6446 19.3227 27.1387 19.3399 27.6329 19.3403C27.6984 19.3403 27.7613 19.3142 27.8076 19.2679C27.8539 19.2216 27.88 19.1587 27.88 19.0932C27.88 19.0276 27.8539 18.9648 27.8076 18.9185C27.7613 18.8721 27.6984 18.8461 27.6329 18.8461Z" fill="#211715" />
                                        <path d="M27.2119 19.109C26.8916 19.109 26.5713 19.0919 26.251 19.0916C26.1855 19.0916 26.1226 19.1176 26.0763 19.164C26.0299 19.2103 26.0039 19.2732 26.0039 19.3387C26.0039 19.4042 26.0299 19.4671 26.0763 19.5134C26.1226 19.5597 26.1855 19.5858 26.251 19.5858C26.5713 19.5858 26.8916 19.6028 27.2119 19.6032C27.2774 19.6032 27.3403 19.5772 27.3866 19.5308C27.4329 19.4845 27.459 19.4216 27.459 19.3561C27.459 19.2906 27.4329 19.2277 27.3866 19.1814C27.3403 19.1351 27.2774 19.109 27.2119 19.109Z" fill="#211715" />
                                        <path d="M20.5128 18.956C20.0186 18.956 19.5245 18.9388 19.0303 18.9384C18.9648 18.9384 18.9019 18.9644 18.8556 19.0108C18.8092 19.0571 18.7832 19.12 18.7832 19.1855C18.7832 19.251 18.8092 19.3139 18.8556 19.3602C18.9019 19.4065 18.9648 19.4326 19.0303 19.4326C19.5245 19.4326 20.0186 19.4498 20.5128 19.4501C20.5783 19.4501 20.6412 19.4241 20.6875 19.3778C20.7338 19.3314 20.7599 19.2686 20.7599 19.203C20.7599 19.1375 20.7338 19.0747 20.6875 19.0283C20.6412 18.982 20.5783 18.956 20.5128 18.956Z" fill="#211715" />
                                        <path d="M20.1196 19.2463C19.7993 19.2463 19.479 19.2291 19.1587 19.2289C19.0932 19.2289 19.0303 19.2549 18.984 19.3013C18.9377 19.3476 18.9116 19.4104 18.9116 19.476C18.9116 19.5415 18.9377 19.6043 18.984 19.6507C19.0303 19.697 19.0932 19.723 19.1587 19.723C19.479 19.723 19.7993 19.7401 20.1196 19.7405C20.1851 19.7405 20.248 19.7144 20.2943 19.6681C20.3407 19.6218 20.3667 19.5589 20.3667 19.4934C20.3667 19.4279 20.3407 19.365 20.2943 19.3187C20.248 19.2723 20.1851 19.2463 20.1196 19.2463Z" fill="#211715" />
                                        <path d="M25.5286 17.186C27.102 17.186 28.6754 17.1995 30.2489 17.2061C30.5118 17.2072 30.7747 17.2089 31.0377 17.2089L30.7906 16.9618C30.7923 18.2738 30.8314 19.5863 30.8605 20.8978C30.8709 21.3611 30.8818 21.8244 30.882 22.2878C30.882 22.6058 31.3762 22.6064 31.3762 22.2878C31.3752 20.8602 31.3208 19.4319 31.2988 18.0045C31.2935 17.6569 31.2851 17.3093 31.2848 16.9618C31.2838 16.8966 31.2574 16.8343 31.2113 16.7882C31.1652 16.742 31.1029 16.7157 31.0377 16.7147C29.4767 16.7147 27.9158 16.7011 26.3555 16.6947C26.0801 16.6936 25.8046 16.692 25.5292 16.6918C25.2112 16.6918 25.2107 17.186 25.5292 17.186H25.5286Z" fill="#211715" />
                                        <path d="M17.8184 16.9252C17.8184 18.4488 17.8281 19.9726 17.8333 21.4962C17.8342 21.7514 17.8354 22.0065 17.8355 22.2616C17.8355 22.5796 18.3297 22.5801 18.3297 22.2616C18.3297 20.8022 18.3191 19.3427 18.3146 17.8833C18.3136 17.564 18.3129 17.2446 18.3125 16.9252C18.3125 16.6072 17.8184 16.6067 17.8184 16.9252Z" fill="#211715" />
                                        <path d="M22.8008 17.6939C21.4925 17.6715 20.1833 17.6568 18.8749 17.6756C18.5571 17.6803 18.5563 18.1744 18.8749 18.1697C20.1833 18.1505 21.4925 18.1657 22.8008 18.188C23.1189 18.1935 23.1189 17.6993 22.8008 17.6939Z" fill="#211715" />
                                        <path d="M18.1905 17.1386C18.1551 17.1586 18.0211 17.1678 18.1163 17.1685C18.1577 17.1685 18.1992 17.1667 18.2406 17.1662C18.3725 17.165 18.5044 17.1651 18.636 17.1654C19.0537 17.1662 19.4714 17.1694 19.889 17.1729C20.8546 17.1807 21.8202 17.1902 22.7858 17.2012C23.0715 17.2042 23.3572 17.2087 23.6429 17.2089L23.3958 16.9618C23.3975 18.2738 23.4367 19.5863 23.4658 20.8978C23.4761 21.3611 23.4869 21.8244 23.4872 22.2878C23.4872 22.6058 23.9814 22.6064 23.9814 22.2878C23.9804 20.8602 23.926 19.4319 23.904 18.0045C23.8987 17.6569 23.8904 17.3093 23.8899 16.9618C23.889 16.8965 23.8626 16.8342 23.8165 16.7881C23.7704 16.742 23.7081 16.7156 23.6429 16.7147C21.9874 16.7137 20.3326 16.6753 18.6774 16.6713C18.5277 16.6713 18.378 16.6706 18.2284 16.6722C18.1306 16.6617 18.0317 16.6753 17.9404 16.7118C17.6638 16.8686 17.9125 17.2957 18.1899 17.1386H18.1905Z" fill="#211715" />
                                        <path d="M23.9085 12.7065C24.6234 12.6473 24.4928 11.5885 24.4919 11.0777C24.491 10.4807 24.49 9.88362 24.4892 9.28634C24.4892 8.95809 24.4199 8.54756 24.1711 8.31222C23.9402 8.0938 23.5905 8.44255 23.8217 8.66159C23.9738 8.80552 23.9947 9.08336 23.9947 9.26695C23.9947 9.47993 23.995 9.69296 23.9957 9.90603L23.9983 11.5664C23.9983 11.6363 23.9991 11.7064 23.9983 11.7764C23.9992 11.8673 23.9877 11.9578 23.9643 12.0455C23.9506 12.0937 23.9312 12.14 23.9065 12.1835C23.8818 12.2286 23.8494 12.2172 23.908 12.2124C23.5933 12.2385 23.5905 12.7329 23.908 12.7066L23.9085 12.7065Z" fill="#211715" />
                                        <path d="M21.5689 8.39107C21.2391 8.92637 21.3219 9.55421 21.3266 10.1541C21.3305 10.7125 21.3356 11.2709 21.3389 11.8293C21.3389 12.0147 21.3928 12.1959 21.4941 12.3512C21.5953 12.5064 21.7394 12.6289 21.9089 12.7037C22.1948 12.8395 22.446 12.4132 22.1584 12.2771C22.0859 12.2497 22.0202 12.2069 21.9657 12.1518C21.9112 12.0967 21.8693 12.0305 21.8427 11.9577C21.825 11.9008 21.8343 11.9316 21.8334 11.8836C21.8334 11.8589 21.8334 11.835 21.8334 11.8108C21.8322 11.5967 21.8307 11.3823 21.829 11.1675C21.8248 10.5965 21.8207 10.0255 21.8166 9.45451C21.8166 9.36976 21.8147 9.28489 21.8153 9.20014C21.8228 9.00064 21.8851 8.80704 21.9952 8.6405C22.1624 8.36871 21.7357 8.12051 21.5684 8.39107H21.5689Z" fill="#211715" />
                                        <path d="M22.0779 8.26381C22.0753 8.32558 21.8835 8.34535 21.9714 8.35511C21.9934 8.35628 22.0155 8.35628 22.0375 8.35511H22.2506H22.8841H23.518H23.7468C23.7722 8.35659 23.7976 8.35659 23.823 8.35511C23.8549 8.35115 23.8348 8.36993 23.8125 8.34942C23.8647 8.39736 23.7323 8.30359 23.7307 8.27097C23.7321 8.33609 23.7585 8.39817 23.8046 8.44422C23.8506 8.49027 23.9127 8.51673 23.9778 8.51806C24.0432 8.51741 24.1056 8.49117 24.1518 8.44498C24.198 8.39878 24.2243 8.3363 24.2249 8.27097C24.2297 8.1842 24.2056 8.09829 24.1563 8.02673C24.107 7.95517 24.0353 7.90202 23.9525 7.87564C23.8848 7.8625 23.8157 7.85776 23.7468 7.86156H23.2411L22.0953 7.8623C22.0472 7.8623 21.9986 7.85995 21.9505 7.8623C21.8997 7.86397 21.8498 7.87581 21.8037 7.8971C21.7576 7.91839 21.7162 7.94871 21.682 7.98627C21.6478 8.02383 21.6215 8.06786 21.6046 8.11576C21.5877 8.16367 21.5806 8.21447 21.5837 8.26517C21.5837 8.3307 21.6097 8.39354 21.6561 8.43988C21.7024 8.48622 21.7653 8.51225 21.8308 8.51225C21.8963 8.51225 21.9592 8.48622 22.0055 8.43988C22.0518 8.39354 22.0779 8.3307 22.0779 8.26517V8.26381Z" fill="#211715" />
                                        <path d="M21.7631 9.76264C22.5364 9.76264 23.3096 9.74954 24.0829 9.74917C24.4009 9.74917 24.4014 9.255 24.0829 9.255C23.3096 9.255 22.5364 9.26798 21.7631 9.26847C21.4451 9.26847 21.4445 9.76264 21.7631 9.76264Z" fill="#211715" />
                                        <path d="M22.3496 11.7124C22.7319 11.7124 23.114 11.706 23.4961 11.7059C23.5616 11.7059 23.6245 11.6799 23.6708 11.6335C23.7171 11.5872 23.7432 11.5243 23.7432 11.4588C23.7432 11.3933 23.7171 11.3304 23.6708 11.2841C23.6245 11.2378 23.5616 11.2117 23.4961 11.2117C23.114 11.2117 22.7319 11.218 22.3496 11.2183C22.2841 11.2183 22.2212 11.2443 22.1749 11.2906C22.1286 11.337 22.1025 11.3998 22.1025 11.4654C22.1025 11.5309 22.1286 11.5937 22.1749 11.6401C22.2212 11.6864 22.2841 11.7124 22.3496 11.7124Z" fill="#211715" />
                                        <path d="M28.0676 12.7065C28.7826 12.6473 28.6519 11.5885 28.6511 11.0777C28.6502 10.4807 28.6493 9.88362 28.6484 9.28634C28.6484 8.95809 28.5792 8.54756 28.3304 8.31222C28.0993 8.0938 27.7497 8.44255 27.981 8.66159C28.1329 8.80552 28.1539 9.08336 28.1539 9.26695C28.1539 9.47993 28.1542 9.69296 28.1548 9.90603C28.1557 10.4595 28.1566 11.013 28.1575 11.5664C28.1575 11.6363 28.1583 11.7064 28.1575 11.7764C28.1584 11.8673 28.1469 11.9578 28.1234 12.0455C28.1099 12.0937 28.0905 12.14 28.0657 12.1835C28.041 12.2286 28.0087 12.2172 28.0671 12.2124C27.7524 12.2385 27.7497 12.7329 28.0671 12.7066L28.0676 12.7065Z" fill="#211715" />
                                        <path d="M25.7286 8.39106C25.3988 8.92637 25.4815 9.5542 25.4862 10.1541C25.4903 10.7125 25.4952 11.2709 25.4985 11.8293C25.4986 12.0146 25.5525 12.1959 25.6536 12.3511C25.7548 12.5064 25.8989 12.6288 26.0684 12.7036C26.3544 12.8395 26.6055 12.4132 26.3179 12.2771C26.2454 12.2496 26.1797 12.2069 26.1253 12.1518C26.0708 12.0967 26.0289 12.0305 26.0023 11.9577C25.9846 11.9007 25.9939 11.9316 25.993 11.8836C25.993 11.8589 25.993 11.835 25.993 11.8108C25.9917 11.5967 25.9902 11.3822 25.9885 11.1675C25.9844 10.5965 25.9803 10.0255 25.9762 9.45451C25.9762 9.36976 25.9742 9.28488 25.9748 9.20013C25.9828 9.00072 26.0455 8.80734 26.1559 8.64111C26.3232 8.36932 25.8965 8.12112 25.7292 8.39168L25.7286 8.39106Z" fill="#211715" />
                                        <path d="M26.237 8.26381C26.2346 8.32558 26.0427 8.34535 26.1306 8.35511C26.1526 8.35628 26.1746 8.35628 26.1967 8.35511H26.4098H27.0433H27.6773H27.906C27.9314 8.35659 27.9568 8.35659 27.9822 8.35511C28.0141 8.35115 27.9945 8.36993 27.9718 8.34942C28.0238 8.39736 27.8915 8.30359 27.8899 8.27098C27.8913 8.33608 27.9177 8.39814 27.9638 8.44419C28.0098 8.49023 28.0719 8.5167 28.137 8.51806C28.2023 8.51745 28.2648 8.49122 28.311 8.44501C28.3572 8.39881 28.3835 8.33632 28.3841 8.27098C28.389 8.18428 28.3649 8.09843 28.3157 8.02688C28.2665 7.95533 28.195 7.90213 28.1123 7.87564C28.0445 7.86249 27.9754 7.85776 27.9065 7.86156H27.4009L26.2551 7.8623C26.207 7.8623 26.1582 7.85995 26.1103 7.8623C26.0595 7.86396 26.0096 7.87578 25.9635 7.89707C25.9173 7.91835 25.8759 7.94867 25.8417 7.98623C25.8075 8.02379 25.7812 8.06783 25.7643 8.11574C25.7474 8.16365 25.7403 8.21446 25.7434 8.26517C25.7434 8.3307 25.7694 8.39355 25.8157 8.43988C25.8621 8.48622 25.9249 8.51225 25.9905 8.51225C26.056 8.51225 26.1188 8.48622 26.1652 8.43988C26.2115 8.39355 26.2375 8.3307 26.2375 8.26517L26.237 8.26381Z" fill="#211715" />
                                        <path d="M25.9223 9.76264C26.6955 9.76264 27.4688 9.74954 28.2421 9.74917C28.56 9.74917 28.5606 9.255 28.2421 9.255C27.4688 9.255 26.6955 9.26798 25.9223 9.26847C25.6043 9.26847 25.6038 9.76264 25.9223 9.76264Z" fill="#211715" />
                                        <path d="M26.5088 11.7124C26.8909 11.7124 27.273 11.706 27.6553 11.7059C27.7208 11.7059 27.7836 11.6799 27.83 11.6335C27.8763 11.5872 27.9023 11.5243 27.9023 11.4588C27.9023 11.3933 27.8763 11.3304 27.83 11.2841C27.7836 11.2378 27.7208 11.2117 27.6553 11.2117C27.273 11.2117 26.8909 11.218 26.5088 11.2183C26.4433 11.2183 26.3804 11.2443 26.3341 11.2906C26.2878 11.337 26.2617 11.3998 26.2617 11.4654C26.2617 11.5309 26.2878 11.5937 26.3341 11.6401C26.3804 11.6864 26.4433 11.7124 26.5088 11.7124Z" fill="#211715" />
                                        <path d="M32.0579 8.66209C32.1938 8.79032 32.2289 9.06051 32.2309 9.21728C32.2327 9.35861 32.2309 9.50007 32.2309 9.6414L32.2331 11.0957C32.2331 11.2978 32.2334 11.5 32.234 11.7021C32.2434 11.8492 32.2342 11.997 32.2064 12.1419C32.1835 12.2045 32.1569 12.2657 32.1267 12.3252C32.1081 12.3746 32.0918 12.3366 32.1438 12.3313C32.1419 12.3313 32.1398 12.3313 32.138 12.3313C32.0958 12.3344 32.0527 12.3321 32.0106 12.3325L31.4187 12.3383L30.2689 12.3496L30.3936 12.3833C30.3187 12.3555 30.2511 12.3111 30.1959 12.2535C30.1407 12.1958 30.0993 12.1264 30.0747 12.0505C30.0623 12.0025 30.0695 12.0367 30.0686 11.9865C30.0686 11.9603 30.0686 11.934 30.0686 11.9078C30.0674 11.6822 30.0659 11.4565 30.0641 11.2308C30.06 10.6411 30.0558 10.0514 30.0517 9.46165C30.0517 9.3769 30.05 9.29227 30.0505 9.20752C30.0573 9.00541 30.1199 8.80914 30.2315 8.64047C30.3987 8.36868 29.972 8.12048 29.8048 8.39104C29.649 8.63543 29.5631 8.91779 29.5563 9.20752C29.5556 9.33106 29.5576 9.45337 29.5583 9.57617C29.561 9.99621 29.5639 10.4163 29.5669 10.8363C29.5694 11.1934 29.5718 11.5505 29.5742 11.9076C29.5696 12.0345 29.5893 12.161 29.6322 12.2805C29.7292 12.5245 29.9904 12.8267 30.2716 12.8436C30.555 12.8606 30.8465 12.8379 31.1301 12.8352C31.4574 12.832 31.786 12.8373 32.113 12.8256C32.6045 12.8079 32.7277 12.2521 32.7284 11.8496C32.729 11.5147 32.7275 11.1796 32.727 10.8447C32.7263 10.3887 32.7256 9.93275 32.7249 9.47697C32.7249 9.08163 32.7147 8.60353 32.4067 8.31222C32.1756 8.0938 31.826 8.44255 32.0573 8.66159L32.0579 8.66209Z" fill="#211715" />
                                        <path d="M30.3142 8.26381C30.3117 8.32558 30.1199 8.34535 30.2077 8.35511C30.2297 8.35628 30.2518 8.35628 30.2738 8.35511H30.4869H31.1204H31.7544H31.9831C32.0085 8.35659 32.034 8.35659 32.0593 8.35511C32.0912 8.35115 32.0717 8.36993 32.049 8.34942C32.101 8.39736 31.9687 8.30359 31.9671 8.27098C31.9684 8.33608 31.9949 8.39814 32.0409 8.44419C32.087 8.49023 32.149 8.5167 32.2141 8.51806C32.2795 8.51745 32.342 8.49122 32.3882 8.44501C32.4344 8.39881 32.4606 8.33632 32.4612 8.27098C32.4661 8.18428 32.4421 8.09843 32.3929 8.02688C32.3437 7.95533 32.2721 7.90213 32.1894 7.87564C32.1217 7.86249 32.0525 7.85776 31.9836 7.86156H31.4781L30.3322 7.8623C30.2842 7.8623 30.2354 7.85995 30.1874 7.8623C30.1367 7.86396 30.0867 7.87578 30.0406 7.89707C29.9945 7.91835 29.9531 7.94867 29.9189 7.98623C29.8847 8.02379 29.8583 8.06783 29.8415 8.11574C29.8246 8.16365 29.8174 8.21446 29.8205 8.26517C29.8205 8.3307 29.8466 8.39355 29.8929 8.43988C29.9392 8.48622 30.0021 8.51225 30.0676 8.51225C30.1331 8.51225 30.196 8.48622 30.2423 8.43988C30.2887 8.39355 30.3147 8.3307 30.3147 8.26517L30.3142 8.26381Z" fill="#211715" />
                                        <path d="M29.9989 9.76264C30.7722 9.76264 31.5454 9.74954 32.3188 9.74917C32.6367 9.74917 32.6373 9.255 32.3188 9.255C31.5454 9.255 30.7722 9.26798 29.9989 9.26847C29.6809 9.26847 29.6804 9.76264 29.9989 9.76264Z" fill="#211715" />
                                        <path d="M30.5864 11.7124C30.9682 11.7124 31.3499 11.706 31.7317 11.7059C31.7972 11.7059 31.86 11.6799 31.9064 11.6335C31.9527 11.5872 31.9788 11.5243 31.9788 11.4588C31.9788 11.3933 31.9527 11.3304 31.9064 11.2841C31.86 11.2378 31.7972 11.2117 31.7317 11.2117C31.3499 11.2117 30.9682 11.218 30.5864 11.2183C30.5209 11.2183 30.4581 11.2443 30.4117 11.2906C30.3654 11.337 30.3394 11.3998 30.3394 11.4654C30.3394 11.5309 30.3654 11.5937 30.4117 11.6401C30.4581 11.6864 30.5209 11.7124 30.5864 11.7124Z" fill="#211715" />
                                        <path d="M31.2269 20.072C31.0034 19.8079 30.5883 19.7204 30.2649 19.6621C29.9613 19.5999 29.652 19.5704 29.3421 19.5739C29.1402 19.5757 28.9418 19.6273 28.7646 19.7239C28.5873 19.8206 28.4365 19.9595 28.3256 20.1282C28.1028 20.4557 28.0096 20.8543 28.064 21.2466C28.0768 21.4655 28.1476 21.6771 28.269 21.8597C28.4187 22.0743 28.6431 22.2255 28.8984 22.2835C29.2087 22.3486 29.3413 21.8724 29.0297 21.807C28.8951 21.7789 28.7743 21.7055 28.6872 21.5991C28.6668 21.5719 28.6483 21.5433 28.6318 21.5136C28.6261 21.5037 28.5947 21.4376 28.6071 21.4698C28.6194 21.5019 28.602 21.4539 28.5995 21.4439C28.5832 21.3799 28.5688 21.3152 28.5587 21.25C28.5046 20.9559 28.5677 20.6523 28.7345 20.4042C28.7483 20.383 28.7622 20.362 28.7768 20.3413C28.7982 20.3113 28.7694 20.3464 28.8032 20.3082C28.841 20.2634 28.8843 20.2235 28.932 20.1894C29.0585 20.1103 29.2045 20.0681 29.3537 20.0677C29.5939 20.0651 29.8339 20.0852 30.0703 20.1277C30.2408 20.154 30.4089 20.1938 30.5731 20.2467C30.6361 20.265 30.6968 20.2908 30.7537 20.3234C30.7818 20.3383 30.8088 20.3553 30.8345 20.3742C30.8007 20.3482 30.8675 20.4099 30.8772 20.4215C30.9238 20.4674 30.9866 20.493 31.0519 20.493C31.1173 20.493 31.18 20.4674 31.2266 20.4215C31.2717 20.3745 31.2969 20.3119 31.2969 20.2468C31.2969 20.1816 31.2717 20.119 31.2266 20.072H31.2269Z" fill="#211715" />
                                        <path d="M29.5361 21.0166C29.5398 21.0085 29.5444 21.0008 29.5498 20.9937L29.5112 21.0438C29.5175 21.0367 29.5243 21.0302 29.5316 21.0243L29.4822 21.0629C29.4948 21.0538 29.5084 21.046 29.5226 21.0397L29.4636 21.0644C29.4927 21.0525 29.5233 21.0444 29.5545 21.0404L29.4889 21.0492C29.5185 21.0456 29.5485 21.0456 29.5782 21.0492L29.5125 21.0404C29.5885 21.0528 29.6565 21.093 29.7315 21.109C29.8503 21.1316 29.9729 21.1228 30.0872 21.0836C30.149 21.0654 30.2018 21.025 30.2354 20.97C30.2603 20.9276 30.2719 20.8787 30.2688 20.8297C30.2657 20.7806 30.248 20.7336 30.2181 20.6946C30.1881 20.6556 30.1472 20.6265 30.1006 20.6109C30.054 20.5953 30.0037 20.594 29.9564 20.6071C29.9155 20.6204 29.8737 20.6305 29.8312 20.6372L29.8969 20.6283C29.8719 20.6311 29.8466 20.6311 29.8216 20.6283L29.8872 20.6371C29.8235 20.6223 29.761 20.6026 29.7003 20.5784C29.6392 20.5583 29.5749 20.5499 29.5107 20.5537C29.4286 20.5582 29.3481 20.5785 29.2737 20.6136C29.2035 20.6453 29.1461 20.6996 29.1104 20.7678C29.0789 20.826 29.0701 20.8938 29.0856 20.9582C29.1032 21.0203 29.1438 21.0733 29.1992 21.1064C29.2277 21.1229 29.2593 21.1336 29.292 21.1378C29.3247 21.1421 29.3579 21.1398 29.3897 21.1311C29.4206 21.1229 29.4496 21.1087 29.4749 21.0892C29.5002 21.0697 29.5215 21.0454 29.5373 21.0176L29.5361 21.0166Z" fill="#211715" />
                                        <path d="M8.02281 26.5466C8.00465 28.1603 8.00638 29.7745 8.00452 31.3883C8.00452 31.6071 8.00432 31.8259 8.00391 32.0447C8.00391 32.3627 8.49807 32.3632 8.49807 32.0447C8.49807 30.6168 8.50145 29.1889 8.5082 27.7609C8.51018 27.3562 8.5124 26.9513 8.51697 26.5466C8.52056 26.2285 8.02639 26.2282 8.02281 26.5466Z" fill="#211715" />
                                        <path d="M12.4448 26.5637C12.4448 26.2312 12.4527 25.8987 12.4532 25.5661C12.4522 25.5009 12.4259 25.4386 12.3798 25.3924C12.3336 25.3463 12.2713 25.32 12.2061 25.3191C10.9017 25.3191 9.59737 25.3067 8.29289 25.3067C8.22766 25.3077 8.16537 25.334 8.11924 25.3801C8.07311 25.4263 8.04677 25.4886 8.04581 25.5538C8.04383 25.8882 8.02333 26.2224 8.02246 26.5569C8.0216 26.8749 8.51576 26.8754 8.51663 26.5569C8.51749 26.2224 8.538 25.8882 8.53998 25.5538L8.29289 25.8009C9.59737 25.8009 10.9017 25.8132 12.2061 25.8132L11.959 25.5661C11.959 25.8987 11.9508 26.2312 11.9506 26.5637C11.9506 26.8817 12.4448 26.8822 12.4448 26.5637Z" fill="#211715" />
                                        <path d="M12.4528 32.1208C12.4528 30.592 12.4503 29.0631 12.4453 27.5342C12.4449 27.2107 12.4445 26.8873 12.4444 26.5638C12.4444 26.2458 11.9502 26.2453 11.9502 26.5638C11.9502 28.1912 11.9527 29.8186 11.9576 31.446C11.9576 31.6708 11.9579 31.8958 11.9586 32.1208C11.9586 32.4388 12.4528 32.4393 12.4528 32.1208Z" fill="#211715" />
                                        <path d="M8.29728 26.8023C9.56741 26.8023 10.8377 26.7899 12.1078 26.7899C12.4258 26.7899 12.4263 26.2958 12.1078 26.2958C10.8377 26.2958 9.56741 26.3081 8.29728 26.3081C7.97928 26.3081 7.97879 26.8023 8.29728 26.8023Z" fill="#211715" />
                                        <path d="M8.75294 7.79187C9.03882 7.79187 9.32469 7.78915 9.61057 7.78915C9.6761 7.78915 9.73894 7.76312 9.78528 7.71678C9.83162 7.67044 9.85765 7.6076 9.85765 7.54207C9.85765 7.47654 9.83162 7.41369 9.78528 7.36735C9.73894 7.32101 9.6761 7.29498 9.61057 7.29498C9.32469 7.29498 9.03882 7.2977 8.75294 7.2977C8.68741 7.2977 8.62457 7.32373 8.57823 7.37007C8.53189 7.41641 8.50586 7.47925 8.50586 7.54478C8.50586 7.61031 8.53189 7.67316 8.57823 7.7195C8.62457 7.76583 8.68741 7.79187 8.75294 7.79187Z" fill="#211715" />
                                        <path d="M18.2278 26.5637C18.2278 26.2312 18.2357 25.8987 18.2364 25.5661C18.2354 25.5009 18.2091 25.4386 18.163 25.3924C18.1168 25.3463 18.0545 25.32 17.9893 25.3191C16.6849 25.3191 15.3804 25.3067 14.0761 25.3067C14.0109 25.3076 13.9485 25.334 13.9024 25.3801C13.8563 25.4262 13.8299 25.4885 13.829 25.5538C13.827 25.8882 13.8065 26.2224 13.8057 26.5569C13.8047 26.8749 14.2988 26.8754 14.2998 26.5569C14.3007 26.2224 14.3212 25.8882 14.3232 25.5538L14.0761 25.8009C15.3804 25.8009 16.6849 25.8132 17.9893 25.8132L17.7422 25.5661C17.7422 25.8987 17.734 26.2312 17.7337 26.5637C17.7337 26.8817 18.2278 26.8822 18.2278 26.5637Z" fill="#211715" />
                                        <path d="M17.734 26.7838C17.734 28.4113 17.7365 30.0386 17.7414 31.6659C17.7414 31.8909 17.7418 32.1159 17.7425 32.3408L17.9896 32.0937L14.5251 32.0737L14.0342 32.0709L14.2813 32.318C14.2813 30.8118 14.2846 29.3057 14.2914 27.7996C14.2933 27.382 14.2962 26.9645 14.3002 26.547C14.3038 26.2289 13.8096 26.2286 13.806 26.547C13.7869 28.2395 13.7895 29.932 13.7876 31.6245C13.7876 31.8556 13.7876 32.0869 13.7876 32.3182C13.7886 32.3834 13.8149 32.4457 13.8611 32.4918C13.9072 32.538 13.9695 32.5643 14.0347 32.5653L17.4992 32.5853L17.9901 32.5881C18.0553 32.5872 18.1177 32.5609 18.1638 32.5148C18.2099 32.4686 18.2363 32.4063 18.2372 32.3411C18.2372 30.8122 18.2319 29.2833 18.2298 27.7545C18.2293 27.431 18.2289 27.1076 18.2287 26.784C18.2287 26.4661 17.7345 26.4656 17.7345 26.784L17.734 26.7838Z" fill="#211715" />
                                        <path d="M14.081 26.8023C15.3511 26.8023 16.6214 26.7899 17.8915 26.7899C18.2095 26.7899 18.21 26.2958 17.8915 26.2958C16.6214 26.2958 15.3511 26.3081 14.081 26.3081C13.763 26.3081 13.7625 26.8023 14.081 26.8023Z" fill="#211715" />
                                        <path d="M15.0131 27.908C15.7391 27.908 16.4652 27.8932 17.1913 27.893C17.5093 27.893 17.5097 27.3988 17.1913 27.3988C16.4652 27.3988 15.7391 27.4135 15.0131 27.4139C14.6951 27.4139 14.6946 27.908 15.0131 27.908Z" fill="#211715" />
                                        <path d="M15.0176 28.1451C15.5982 28.1451 16.18 28.1319 16.7611 28.1316C16.8267 28.1316 16.8895 28.1056 16.9358 28.0592C16.9822 28.0129 17.0082 27.9501 17.0082 27.8845C17.0082 27.819 16.9822 27.7562 16.9358 27.7098C16.8895 27.6635 16.8267 27.6375 16.7611 27.6375C16.1805 27.6375 15.5989 27.6507 15.0176 27.6509C14.9521 27.6509 14.8892 27.6769 14.8429 27.7233C14.7965 27.7696 14.7705 27.8325 14.7705 27.898C14.7705 27.9635 14.7965 28.0264 14.8429 28.0727C14.8892 28.1191 14.9521 28.1451 15.0176 28.1451Z" fill="#211715" />
                                        <path d="M23.8422 26.5637C23.8422 26.2312 23.8501 25.8987 23.8506 25.5661C23.8497 25.5009 23.8234 25.4386 23.7773 25.3924C23.7311 25.3463 23.6688 25.32 23.6035 25.3191C22.2992 25.3191 20.9948 25.3067 19.6904 25.3067C19.6251 25.3077 19.5628 25.334 19.5167 25.3801C19.4706 25.4263 19.4442 25.4886 19.4433 25.5538C19.4413 25.8882 19.4209 26.2224 19.4199 26.5569C19.4191 26.8749 19.9132 26.8754 19.9141 26.5569C19.9151 26.2224 19.9355 25.8882 19.9374 25.5538L19.6904 25.8009C20.9948 25.8009 22.2992 25.8132 23.6035 25.8132L23.3564 25.5661C23.3564 25.8987 23.3484 26.2312 23.348 26.5637C23.348 26.8817 23.8422 26.8822 23.8422 26.5637Z" fill="#211715" />
                                        <path d="M23.3483 26.5638C23.3483 28.2462 23.3507 29.9288 23.3557 31.6114C23.3557 31.8467 23.356 32.0821 23.3567 32.3176L23.6037 32.0705L20.1394 32.0545L19.6483 32.0521L19.8954 32.2992C19.8954 30.7953 19.8988 29.2914 19.9055 27.7875C19.9075 27.3738 19.9096 26.9597 19.9143 26.5466C19.9179 26.2285 19.4237 26.2282 19.4201 26.5466C19.4011 28.2358 19.4037 29.9255 19.4019 31.6148C19.4019 31.8429 19.4019 32.071 19.4019 32.2992C19.4028 32.3644 19.4292 32.4267 19.4753 32.4728C19.5214 32.519 19.5837 32.5453 19.6489 32.5463L23.1134 32.5623L23.6044 32.5647C23.6696 32.5638 23.7319 32.5375 23.7781 32.4913C23.8242 32.4452 23.8506 32.3828 23.8514 32.3176C23.8514 30.7339 23.849 29.1502 23.844 27.5667C23.844 27.2324 23.8437 26.8981 23.843 26.5638C23.843 26.2458 23.3489 26.2453 23.3489 26.5638H23.3483Z" fill="#211715" />
                                        <path d="M24.8883 31.4619C24.8883 30.1252 24.8862 28.7885 24.8819 27.4519C24.8814 27.1641 24.881 26.8764 24.8809 26.5888C24.8809 26.2708 24.3867 26.2704 24.3867 26.5888C24.3867 28.0125 24.3889 29.4363 24.3933 30.86C24.3933 31.0607 24.3936 31.2613 24.3941 31.4619C24.3941 31.7798 24.8883 31.7804 24.8883 31.4619Z" fill="#211715" />
                                        <path d="M19.6947 26.8023C20.965 26.8023 22.2351 26.7899 23.5054 26.7899C23.8232 26.7899 23.8239 26.2958 23.5054 26.2958C22.2351 26.2958 20.965 26.3081 19.6947 26.3081C19.3767 26.3081 19.3762 26.8023 19.6947 26.8023Z" fill="#211715" />
                                        <path d="M20.6274 27.908C21.3534 27.908 22.0795 27.8932 22.8055 27.893C23.1235 27.893 23.124 27.3988 22.8055 27.3988C22.0795 27.3988 21.3534 27.4135 20.6274 27.4139C20.3094 27.4139 20.3089 27.908 20.6274 27.908Z" fill="#211715" />
                                        <path d="M20.6318 28.1451C21.2084 28.1451 21.785 28.1319 22.3614 28.1316C22.427 28.1316 22.4898 28.1056 22.5361 28.0592C22.5825 28.0129 22.6085 27.9501 22.6085 27.8845C22.6085 27.819 22.5825 27.7562 22.5361 27.7098C22.4898 27.6635 22.427 27.6375 22.3614 27.6375C21.7849 27.6375 21.2083 27.6507 20.6318 27.6509C20.5663 27.6509 20.5035 27.6769 20.4571 27.7233C20.4108 27.7696 20.3848 27.8325 20.3848 27.898C20.3848 27.9635 20.4108 28.0264 20.4571 28.0727C20.5035 28.1191 20.5663 28.1451 20.6318 28.1451Z" fill="#211715" />
                                        <path d="M9.2211 27.908C9.94716 27.908 10.6732 27.8932 11.3993 27.893C11.7173 27.893 11.7178 27.3988 11.3993 27.3988C10.6732 27.3988 9.94716 27.4135 9.2211 27.4139C8.90311 27.4139 8.90261 27.908 9.2211 27.908Z" fill="#211715" />
                                        <path d="M9.22462 28.1451C9.81503 28.1451 10.4053 28.1319 10.9956 28.1316C11.0611 28.1316 11.124 28.1056 11.1703 28.0592C11.2166 28.0129 11.2427 27.9501 11.2427 27.8845C11.2427 27.819 11.2166 27.7562 11.1703 27.7098C11.124 27.6635 11.0611 27.6375 10.9956 27.6375C10.4053 27.6375 9.81503 27.6507 9.22462 27.6509C9.15909 27.6509 9.09624 27.6769 9.04991 27.7233C9.00357 27.7696 8.97754 27.8325 8.97754 27.898C8.97754 27.9635 9.00357 28.0264 9.04991 28.0727C9.09624 28.1191 9.15909 28.1451 9.22462 28.1451Z" fill="#211715" />
                                        <path d="M9.41007 29.9419C9.27004 30.1494 9.17496 30.384 9.13096 30.6305C9.08696 30.877 9.09501 31.1299 9.15459 31.3731C9.24268 31.7733 9.45109 32.2391 9.87311 32.3728C9.9044 32.3814 9.93707 32.3838 9.96928 32.3798C10.0015 32.3758 10.0326 32.3655 10.0608 32.3495C10.089 32.3334 10.1138 32.312 10.1338 32.2864C10.1537 32.2608 10.1684 32.2315 10.177 32.2002C10.1856 32.1689 10.188 32.1363 10.184 32.104C10.18 32.0718 10.1697 32.0407 10.1537 32.0125C10.1376 31.9843 10.1162 31.9595 10.0906 31.9396C10.065 31.9196 10.0357 31.9049 10.0044 31.8963C9.94476 31.8773 10.0311 31.9121 9.99863 31.8963C9.98343 31.8888 9.96885 31.8806 9.95427 31.8716C9.95353 31.8716 9.90486 31.8355 9.9287 31.8549C9.95255 31.8743 9.9098 31.8365 9.90548 31.8322C9.88954 31.8169 9.87459 31.8004 9.86001 31.7839C9.84865 31.7709 9.84074 31.7598 9.85594 31.7799C9.83219 31.7478 9.8104 31.7143 9.79071 31.6796C9.76983 31.6434 9.75093 31.6055 9.73326 31.5684C9.72387 31.548 9.71535 31.5273 9.69966 31.4832C9.66885 31.3959 9.64408 31.3066 9.62553 31.2158C9.62108 31.1946 9.61701 31.1731 9.61318 31.1517C9.61219 31.1462 9.60243 31.0829 9.60589 31.1082C9.6091 31.131 9.60119 31.0644 9.60132 31.0657C9.59934 31.0455 9.59773 31.025 9.5965 31.004C9.5911 30.9288 9.59189 30.8534 9.59885 30.7784C9.60021 30.766 9.60021 30.7647 9.59885 30.7746C9.59638 30.7921 9.59798 30.7832 9.60354 30.7481C9.60922 30.7202 9.61466 30.6924 9.62145 30.6647C9.63535 30.6078 9.65242 30.5516 9.6726 30.4966C9.7143 30.3882 9.76937 30.2854 9.83654 30.1906C9.85292 30.1626 9.86362 30.1316 9.86803 30.0994C9.87243 30.0673 9.87047 30.0346 9.86224 30.0032C9.854 29.9718 9.83967 29.9423 9.82005 29.9165C9.80044 29.8906 9.77592 29.8689 9.7479 29.8525C9.71988 29.8361 9.68891 29.8254 9.65676 29.821C9.6246 29.8166 9.5919 29.8186 9.56051 29.8268C9.52911 29.835 9.49965 29.8494 9.47379 29.869C9.44794 29.8886 9.42621 29.9131 9.40983 29.9411L9.41007 29.9419Z" fill="#211715" />
                                        <path d="M12.3251 29.2916C11.8111 29.03 11.2422 29.0477 10.6916 29.1763C10.6287 29.1941 10.5752 29.2359 10.5429 29.2928C10.5105 29.3496 10.5018 29.417 10.5187 29.4802C10.5372 29.5427 10.5792 29.5955 10.6359 29.6278C10.6926 29.66 10.7595 29.6691 10.8227 29.6531C10.8917 29.6369 10.9611 29.6225 11.031 29.6105C11.0485 29.6075 11.0659 29.6046 11.0835 29.6019C11.0882 29.6011 11.1348 29.5942 11.1175 29.5965C11.1002 29.5989 11.1451 29.5932 11.1496 29.5927C11.1665 29.5907 11.1833 29.589 11.2002 29.5874C11.3283 29.5741 11.4572 29.5719 11.5857 29.5806C11.6125 29.5826 11.6393 29.5858 11.666 29.5884C11.703 29.5921 11.6234 29.5799 11.6584 29.5877C11.6708 29.5904 11.6832 29.5917 11.6955 29.594C11.7467 29.6031 11.7974 29.6149 11.8475 29.6292C11.8922 29.6415 11.9364 29.657 11.9798 29.6739C11.9879 29.6771 12.0315 29.6986 11.9976 29.6809C11.9662 29.6641 12.0002 29.6824 12.0068 29.6856C12.0296 29.6965 12.0523 29.7072 12.0748 29.7187C12.1314 29.7518 12.1988 29.761 12.2622 29.7444C12.2936 29.7362 12.323 29.7219 12.3489 29.7022C12.3747 29.6826 12.3965 29.6581 12.4128 29.6301C12.4292 29.6021 12.4399 29.5711 12.4443 29.5389C12.4487 29.5068 12.4468 29.4741 12.4385 29.4427C12.4303 29.4113 12.416 29.3818 12.3964 29.356C12.3767 29.3301 12.3522 29.3084 12.3242 29.292L12.3251 29.2916Z" fill="#211715" />
                                        <path d="M9.12247 29.6521C9.13483 29.6274 9.14965 29.6041 9.16436 29.5804C9.17906 29.5567 9.13816 29.6075 9.16942 29.5735C9.1793 29.5629 9.18869 29.5516 9.1987 29.541C9.23903 29.4964 9.28515 29.4575 9.33583 29.4251C9.46033 29.3397 9.60346 29.2852 9.75328 29.2664C9.90146 29.2538 10.0506 29.2754 10.1891 29.3294C10.3276 29.3835 10.4519 29.4686 10.5525 29.5782L10.5143 29.2793C10.4948 29.3087 10.4746 29.3375 10.4538 29.3658C10.4843 29.3244 10.44 29.3825 10.4373 29.3857C10.4276 29.3974 10.4177 29.4091 10.4076 29.4206C10.3527 29.4839 10.2922 29.5422 10.2268 29.5946C10.2137 29.6052 10.2145 29.6049 10.2277 29.5938L10.2073 29.6082C10.1896 29.6196 10.1725 29.6317 10.1545 29.6428C10.1182 29.6654 10.0806 29.6861 10.042 29.7046C10.0267 29.7115 10.0263 29.7119 10.0411 29.7058L10.0164 29.7153C9.99171 29.7242 9.96577 29.7329 9.93995 29.74C9.92241 29.745 9.90474 29.7495 9.88695 29.7535C9.88856 29.7535 9.81282 29.7672 9.84173 29.7633C9.79319 29.7694 9.7442 29.7712 9.69534 29.7688C9.66172 29.7695 9.62818 29.7654 9.59576 29.7565C9.55295 29.747 9.51097 29.7341 9.47024 29.7179C9.50212 29.7303 9.45369 29.7091 9.44825 29.7063C9.42972 29.6971 9.41152 29.6871 9.39365 29.6764C9.37265 29.6641 9.35251 29.6503 9.33188 29.6367C9.31952 29.6287 9.3042 29.6157 9.32471 29.6322C9.29172 29.6054 9.26048 29.5765 9.23119 29.5457C9.21826 29.5324 9.20566 29.5187 9.19339 29.5047C9.18956 29.5001 9.15262 29.4542 9.17201 29.48C9.19141 29.5058 9.15793 29.4595 9.15447 29.4545C9.14335 29.4382 9.13298 29.4214 9.1226 29.4045C9.10622 29.3765 9.08448 29.352 9.05863 29.3323C9.03278 29.3127 9.00331 29.2984 8.97192 29.2902C8.94053 29.2819 8.90782 29.28 8.87567 29.2844C8.84352 29.2888 8.81255 29.2995 8.78453 29.3158C8.75651 29.3322 8.73199 29.354 8.71237 29.3798C8.69275 29.4057 8.67842 29.4351 8.67019 29.4665C8.66196 29.4979 8.65999 29.5306 8.6644 29.5628C8.66881 29.5949 8.67951 29.6259 8.69589 29.6539C8.8106 29.8523 8.97898 30.0142 9.18164 30.121C9.38431 30.2279 9.61303 30.2754 9.84149 30.258C10.3143 30.2079 10.6827 29.9157 10.941 29.53C10.9679 29.4827 10.9787 29.4278 10.9717 29.3738C10.9648 29.3198 10.9404 29.2695 10.9023 29.2305C10.7527 29.0712 10.5689 28.9476 10.3649 28.8692C10.1608 28.7907 9.94165 28.7593 9.72375 28.7773C9.33175 28.8208 8.87996 29.0339 8.69613 29.4045C8.6647 29.4614 8.65638 29.5283 8.67289 29.5912C8.68941 29.6542 8.72949 29.7083 8.78484 29.7425C8.84174 29.7747 8.909 29.7832 8.97215 29.7663C9.03529 29.7494 9.08927 29.7084 9.12247 29.6521Z" fill="#211715" />
                                        <path d="M20.4651 30.3201C20.3238 30.7072 20.3165 31.1304 20.4443 31.5221C20.5493 31.8736 20.7506 32.2559 21.1238 32.3728C21.1551 32.3814 21.1878 32.3838 21.22 32.3798C21.2522 32.3758 21.2833 32.3655 21.3115 32.3494C21.3397 32.3334 21.3645 32.312 21.3845 32.2864C21.4044 32.2608 21.4191 32.2315 21.4277 32.2002C21.4363 32.1689 21.4387 32.1362 21.4347 32.104C21.4307 32.0718 21.4204 32.0407 21.4044 32.0125C21.3883 31.9843 21.3669 31.9595 21.3413 31.9396C21.3157 31.9196 21.2864 31.9049 21.2551 31.8963C21.2313 31.8888 21.2087 31.8685 21.2519 31.8975C21.2406 31.8899 21.2272 31.8852 21.2149 31.8778C21.2025 31.8703 21.1913 31.8608 21.1788 31.8545C21.2247 31.8774 21.1911 31.8642 21.1738 31.849C21.1509 31.8283 21.131 31.8052 21.1097 31.7829C21.0678 31.739 21.1356 31.8238 21.1008 31.7723C21.0917 31.7585 21.0819 31.7452 21.0729 31.7312C21.0335 31.6697 20.9992 31.6051 20.9704 31.5379C20.9921 31.5873 20.9644 31.5213 20.9626 31.5163C20.9562 31.4991 20.9502 31.4818 20.9441 31.4645C20.9308 31.4261 20.9188 31.3873 20.9081 31.348C20.888 31.2736 20.8717 31.1982 20.8593 31.1222C20.8552 31.0986 20.8534 31.0776 20.8576 31.1137C20.8552 31.0928 20.8528 31.072 20.8509 31.051C20.8479 31.0174 20.8458 30.9837 20.8449 30.95C20.8439 30.9162 20.8437 30.88 20.8449 30.8452C20.8449 30.8302 20.8552 30.7387 20.8482 30.7849C20.8668 30.6707 20.8978 30.5588 20.9407 30.4513C20.9576 30.3881 20.949 30.3208 20.9166 30.2639C20.8842 30.207 20.8308 30.1652 20.7678 30.1474C20.7046 30.1315 20.6377 30.1406 20.5811 30.1728C20.5244 30.2051 20.4824 30.2579 20.4639 30.3204L20.4651 30.3201Z" fill="#211715" />
                                        <path d="M23.5768 29.2917C23.034 29.0156 22.4223 29.0478 21.8465 29.2009C21.7833 29.2183 21.7296 29.2601 21.6973 29.3171C21.6649 29.3741 21.6565 29.4416 21.6739 29.5048C21.6913 29.568 21.7331 29.6217 21.7901 29.654C21.8471 29.6864 21.9146 29.6948 21.9778 29.6774C22.2435 29.599 22.5204 29.5653 22.7972 29.5777C22.8264 29.5793 22.8557 29.5814 22.885 29.5844L22.9274 29.5892C22.9058 29.5866 22.8965 29.5844 22.9233 29.5892C22.9754 29.5988 23.0272 29.6088 23.0783 29.6227C23.1295 29.6365 23.1799 29.6538 23.2297 29.6721C23.2357 29.6743 23.2742 29.6902 23.242 29.6769C23.2099 29.6636 23.2482 29.6799 23.2544 29.6826C23.2791 29.6941 23.3031 29.7057 23.3272 29.7179C23.3552 29.7354 23.3864 29.7471 23.419 29.7524C23.4517 29.7576 23.485 29.7562 23.5171 29.7483C23.5492 29.7404 23.5794 29.7262 23.6058 29.7064C23.6323 29.6866 23.6546 29.6618 23.6713 29.6333C23.688 29.6048 23.6988 29.5732 23.7031 29.5404C23.7074 29.5077 23.705 29.4744 23.6962 29.4425C23.6874 29.4107 23.6723 29.3809 23.6518 29.355C23.6313 29.3291 23.6058 29.3076 23.5768 29.2917Z" fill="#211715" />
                                        <path d="M11.4603 17.4622C11.0921 17.7687 10.9368 18.2121 10.828 18.6639C10.7191 19.1157 10.6118 19.5325 10.3108 19.8983C10.0736 20.1949 9.73047 20.3879 9.35377 20.4367C9.0953 20.4712 8.8405 20.5291 8.5925 20.6097C8.37655 20.6855 8.15109 20.7826 8.03385 20.9926C7.76058 21.4819 8.15999 21.9639 8.59918 22.1552C9.09334 22.3701 9.6709 22.3492 10.1946 22.285C10.6531 22.2456 11.0994 22.1161 11.5077 21.9039C11.8664 21.6952 12.1727 21.4073 12.4031 21.0622C12.7183 20.6098 12.9245 20.0907 13.0058 19.5453C13.061 19.2384 13.0746 18.9254 13.0461 18.6148C12.9998 18.2812 12.8906 17.9593 12.7242 17.6664C12.5705 17.3879 12.1436 17.637 12.2975 17.9158C12.4227 18.1362 12.5089 18.3766 12.5523 18.6263C12.5808 18.8706 12.5753 19.1176 12.5357 19.3603C12.4841 19.7852 12.3465 20.1952 12.1315 20.5653C11.965 20.8756 11.7324 21.1455 11.4501 21.356C11.1389 21.5659 10.7846 21.7035 10.4133 21.7586C9.95905 21.8549 9.49046 21.862 9.03355 21.7795C8.83684 21.7466 8.65581 21.6516 8.5169 21.5085C8.42906 21.4035 8.40497 21.2615 8.52678 21.175C8.71553 21.0683 8.92271 20.9983 9.13745 20.9685C9.34067 20.9247 9.54835 20.9129 9.74898 20.8554C10.1013 20.7528 10.4145 20.5465 10.6477 20.2632C10.9509 19.8923 11.1607 19.4541 11.2595 18.9853C11.3644 18.5503 11.4494 18.1118 11.81 17.8117C12.0546 17.608 11.7034 17.2601 11.4605 17.4623L11.4603 17.4622Z" fill="#211715" />
                                        <path d="M11.8541 16.7788C11.7724 16.772 11.6908 16.7642 11.6092 16.7548L11.5556 16.7483C11.6174 16.7556 11.5556 16.7483 11.5451 16.7463C11.5194 16.7427 11.494 16.7373 11.469 16.7301L11.5781 16.7936L11.5772 16.7928L11.6409 16.9019C11.6592 16.976 11.6493 16.975 11.6509 16.9356C11.6484 16.9974 11.6449 16.9768 11.6524 16.9339C11.6615 16.88 11.6721 16.8265 11.6834 16.7732C11.694 16.7223 11.7052 16.6716 11.7175 16.621C11.7231 16.5981 11.7288 16.575 11.7353 16.5522C11.7396 16.5367 11.7652 16.4745 11.7402 16.5275L11.7299 16.5515C11.7589 16.4947 11.7122 16.5291 11.5901 16.6549C11.5923 16.6542 11.5947 16.6539 11.5969 16.6533C11.6312 16.6433 11.5141 16.6616 11.557 16.6587C11.5852 16.6569 11.6133 16.654 11.6415 16.6522C11.7338 16.6461 11.8268 16.642 11.9188 16.6381C12.1494 16.6281 12.38 16.6202 12.6107 16.6126L12.8792 16.6041C12.9061 16.6033 12.9331 16.6034 12.9599 16.6015C12.9677 16.6017 12.9754 16.6015 12.9831 16.6008C12.9461 16.5997 12.9099 16.5894 12.8778 16.5707C12.8458 16.552 12.819 16.5256 12.7998 16.4938C12.8169 16.5216 12.7751 16.4254 12.7852 16.4614C12.7954 16.4975 12.7836 16.3906 12.7815 16.4333C12.7809 16.4443 12.7824 16.456 12.7823 16.4671C12.7823 16.4935 12.78 16.52 12.7775 16.5463C12.7768 16.5609 12.7751 16.5754 12.7724 16.5898C12.7901 16.5178 12.7755 16.5671 12.7724 16.5842C12.7671 16.6145 12.762 16.6449 12.7562 16.675C12.746 16.7282 12.7346 16.781 12.722 16.8335C12.7135 16.8691 12.6732 16.9766 12.7249 16.859L12.8136 16.7704C12.8801 16.7314 12.869 16.7476 12.8292 16.7556C12.8045 16.7593 12.8071 16.7589 12.8386 16.7545L12.8038 16.7584C12.732 16.7665 12.6601 16.7725 12.5882 16.7781C12.5227 16.7781 12.4598 16.8041 12.4135 16.8504C12.3671 16.8968 12.3411 16.9596 12.3411 17.0251C12.3411 17.0907 12.3671 17.1535 12.4135 17.1999C12.4598 17.2462 12.5227 17.2722 12.5882 17.2722C12.7218 17.2674 12.8549 17.2524 12.9864 17.2276C13.0351 17.2151 13.0794 17.1892 13.1143 17.1529C13.1492 17.1166 13.1733 17.0714 13.184 17.0222C13.2225 16.8804 13.25 16.7358 13.2662 16.5898C13.2895 16.4034 13.2715 16.1821 13.0597 16.1163C12.9612 16.1002 12.8608 16.0993 12.762 16.1137C12.4565 16.1233 12.151 16.1331 11.8457 16.1471C11.746 16.1517 11.6456 16.1543 11.5464 16.1657C11.4985 16.1655 11.4514 16.1774 11.4094 16.2003C11.3673 16.2231 11.3317 16.2562 11.3058 16.2964C11.2756 16.3552 11.2542 16.4181 11.2423 16.483C11.1961 16.6386 11.1666 16.7987 11.1544 16.9605C11.1507 17.1374 11.3019 17.2076 11.4496 17.2286C11.5838 17.2481 11.7187 17.2621 11.8537 17.2733C11.9192 17.2731 11.9819 17.247 12.0282 17.2007C12.0744 17.1544 12.1006 17.0917 12.1008 17.0263C12.0993 16.9612 12.0728 16.8993 12.0267 16.8532C11.9807 16.8072 11.9188 16.7807 11.8537 16.7792L11.8541 16.7788Z" fill="#211715" />
                                        <path d="M11.6481 18.3516C11.5087 18.7222 11.4827 19.1214 11.3444 19.4926C11.2438 19.8127 11.0662 20.1032 10.8272 20.3386C10.7822 20.3852 10.7573 20.4477 10.7578 20.5124C10.7584 20.5772 10.7844 20.6392 10.8302 20.685C10.876 20.7308 10.938 20.7568 11.0027 20.7574C11.0675 20.7579 11.1299 20.733 11.1765 20.688C11.4781 20.4225 11.6584 20.0476 11.7999 19.6791C11.9498 19.2903 11.9782 18.8722 12.1246 18.4829C12.1414 18.4197 12.1327 18.3524 12.1004 18.2955C12.068 18.2387 12.0146 18.1968 11.9516 18.179C11.8884 18.1631 11.8215 18.1721 11.7649 18.2044C11.7082 18.2366 11.6662 18.2895 11.6476 18.352L11.6481 18.3516Z" fill="#211715" />
                                        <path d="M11.8097 17.8116C11.8595 17.7605 11.9061 17.7064 11.9491 17.6495C11.9912 17.5837 12.0225 17.5116 12.0417 17.4359C12.0748 17.3015 12.0946 17.1641 12.1009 17.0258C12.1008 16.9603 12.0748 16.8975 12.0286 16.851C12.0057 16.8281 11.9784 16.8099 11.9485 16.7974C11.9185 16.785 11.8863 16.7786 11.8539 16.7786C11.8214 16.7786 11.7893 16.785 11.7593 16.7974C11.7293 16.8099 11.7021 16.8281 11.6791 16.851C11.6352 16.899 11.6095 16.9609 11.6067 17.0258C11.602 17.0861 11.597 17.1463 11.5889 17.2062L11.5978 17.1406C11.5883 17.2244 11.5679 17.3065 11.5373 17.3851L11.562 17.326C11.5486 17.3578 11.5315 17.3878 11.511 17.4155L11.5497 17.3655C11.5222 17.3999 11.4892 17.4292 11.4601 17.4622C11.415 17.5093 11.3892 17.5717 11.3877 17.6369C11.3882 17.7023 11.4142 17.765 11.4601 17.8116C11.483 17.8345 11.5103 17.8527 11.5403 17.8651C11.5702 17.8776 11.6024 17.884 11.6348 17.884C11.6673 17.884 11.6994 17.8776 11.7294 17.8651C11.7594 17.8527 11.7868 17.8345 11.8097 17.8116Z" fill="#211715" />
                                        <path d="M12.35 16.9487C12.3235 17.0568 12.3115 17.17 12.2959 17.2801C12.2747 17.4283 12.2536 17.5779 12.2378 17.7274C12.2378 17.793 12.2638 17.8558 12.3102 17.9021C12.3565 17.9484 12.4194 17.9745 12.4849 17.9745C12.5504 17.9745 12.6132 17.9484 12.6596 17.9021C12.703 17.8539 12.7286 17.7922 12.732 17.7274C12.7405 17.6464 12.7512 17.5656 12.762 17.4849L12.7532 17.5505C12.7694 17.3925 12.7938 17.2355 12.8265 17.0801C12.8439 17.0169 12.8355 16.9494 12.8031 16.8924C12.7707 16.8354 12.7171 16.7936 12.6539 16.7762C12.5907 16.7587 12.5232 16.7671 12.4662 16.7995C12.4092 16.8319 12.3674 16.8856 12.35 16.9487Z" fill="#211715" />
                                        <path d="M20.6892 30.2306C20.6776 30.1725 20.6892 30.2586 20.6892 30.2393C20.6892 30.2258 20.6871 30.2118 20.6867 30.1981C20.686 30.1655 20.6884 30.1333 20.6909 30.101C20.6946 30.0516 20.6795 30.1557 20.6909 30.1025C20.6945 30.0859 20.6972 30.0692 20.7009 30.053C20.7087 30.0185 20.7181 29.9843 20.7293 29.9505C20.736 29.93 20.7443 29.91 20.7512 29.8896C20.7579 29.8731 20.7555 29.8782 20.7442 29.9048C20.748 29.896 20.7519 29.8873 20.7565 29.8786C20.7743 29.84 20.7941 29.8023 20.8158 29.7657C20.8366 29.7308 20.8594 29.6976 20.8829 29.6646C20.8514 29.7089 20.8877 29.6594 20.8953 29.6501C20.9111 29.6315 20.9276 29.613 20.9447 29.5961C20.9595 29.5809 20.9747 29.5662 20.9904 29.552C20.999 29.5439 21.056 29.4974 21.0101 29.5324C21.0428 29.5076 21.077 29.4848 21.1124 29.4641C21.1486 29.4427 21.1866 29.4243 21.2236 29.4061C21.2751 29.3813 21.1931 29.4152 21.243 29.3984C21.2666 29.3904 21.2898 29.3815 21.3136 29.3737C21.3578 29.3598 21.4028 29.3483 21.4482 29.3391C21.4692 29.3349 21.4902 29.3316 21.5114 29.328C21.4529 29.3377 21.522 29.328 21.53 29.3271C21.5719 29.3236 21.6139 29.3224 21.6559 29.3235C21.6767 29.3235 21.6973 29.3262 21.7177 29.3269C21.7465 29.3301 21.745 29.3293 21.7131 29.325C21.7264 29.327 21.7398 29.3292 21.7531 29.3317L21.5718 29.0935C21.577 29.1704 21.5773 29.2475 21.5728 29.3244C21.5716 29.3419 21.5703 29.3595 21.5686 29.377C21.5674 29.3894 21.5662 29.4007 21.5648 29.4125C21.5699 29.3767 21.5703 29.3727 21.5662 29.4001C21.559 29.4426 21.551 29.485 21.5403 29.5268C21.5301 29.5665 21.5181 29.6058 21.5041 29.6445C21.482 29.705 21.5179 29.6206 21.4962 29.666C21.4876 29.6837 21.4796 29.7014 21.4705 29.7187C21.4487 29.7606 21.4231 29.799 21.3978 29.8386C21.3813 29.861 21.3819 29.8607 21.3994 29.8378C21.3929 29.8461 21.3862 29.8543 21.3794 29.8625C21.3634 29.8814 21.3466 29.8997 21.3293 29.9174C21.3139 29.933 21.2981 29.9479 21.2819 29.9625C21.2706 29.9726 21.2591 29.9825 21.2472 29.9921C21.267 29.9773 21.2654 29.9782 21.2424 29.9949C21.2034 30.0216 21.1625 30.0456 21.1202 30.0668C21.1108 30.0714 21.1012 30.0759 21.0916 30.0801C21.1186 30.0687 21.1191 30.0677 21.0929 30.0784C21.0735 30.0843 21.0545 30.0915 21.035 30.097C21.0095 30.1043 20.9837 30.1104 20.9576 30.1156C20.9413 30.1188 20.8915 30.1378 20.9464 30.1184C20.903 30.1272 20.8584 30.129 20.8145 30.1238C20.7931 30.1238 20.7718 30.1212 20.7505 30.1203C20.6845 30.117 20.7862 30.1287 20.7365 30.1191C20.6611 30.1058 20.5872 30.0853 20.5156 30.0581C20.4524 30.041 20.3849 30.0495 20.3279 30.0819C20.271 30.1143 20.2292 30.1679 20.2116 30.2311C20.1961 30.2942 20.2054 30.3609 20.2376 30.4175C20.2697 30.474 20.3223 30.516 20.3845 30.535C20.5996 30.6192 20.8343 30.6401 21.061 30.5954C21.2876 30.5506 21.4967 30.4421 21.6637 30.2825C21.8121 30.1249 21.925 29.9371 21.9944 29.7321C22.0639 29.527 22.0884 29.3094 22.0663 29.094C22.0655 29.0401 22.0474 28.9879 22.0148 28.945C21.9821 28.9021 21.9366 28.8708 21.8848 28.8557C21.6542 28.8131 21.4168 28.8264 21.1924 28.8945C20.968 28.9626 20.7631 29.0834 20.595 29.2469C20.3187 29.53 20.1319 29.9635 20.2121 30.3625C20.2298 30.4256 20.2716 30.4791 20.3285 30.5115C20.3855 30.5439 20.4529 30.5525 20.5161 30.5355C20.5787 30.5168 20.6317 30.4747 20.664 30.4178C20.6962 30.361 20.7053 30.2939 20.6892 30.2306Z" fill="#211715" />
                                        <path d="M21.5465 28.6526L21.7918 29.4005C21.8093 29.4637 21.8511 29.5174 21.9081 29.5497C21.9651 29.5821 22.0326 29.5905 22.0958 29.5731C22.159 29.5557 22.2126 29.5139 22.245 29.4569C22.2774 29.3999 22.2858 29.3324 22.2683 29.2692L22.023 28.5211C22.0056 28.458 21.9637 28.4043 21.9067 28.3719C21.8497 28.3396 21.7822 28.3312 21.719 28.3486C21.6558 28.3661 21.6022 28.4079 21.5698 28.4649C21.5375 28.5219 21.5291 28.5894 21.5465 28.6526Z" fill="#211715" />
                                        <path d="M13.5281 18.6649C13.6971 18.9739 13.7517 19.3327 13.6822 19.678C13.6128 20.0233 13.4238 20.3331 13.1484 20.5528C13.1025 20.5993 13.0767 20.6621 13.0767 20.7275C13.0767 20.7929 13.1025 20.8557 13.1484 20.9022C13.1955 20.9471 13.2581 20.9721 13.3231 20.9721C13.3882 20.9721 13.4507 20.9471 13.4978 20.9022C14.2256 20.3267 14.4147 19.2115 13.9549 18.4154C13.7958 18.1401 13.3685 18.3886 13.5281 18.6649Z" fill="#211715" />
                                        <path d="M10.0556 18.0115C9.68166 18.308 9.57467 18.786 9.3329 19.175C9.21714 19.3567 9.05192 19.5015 8.85665 19.5926C8.64027 19.6903 8.41473 19.7664 8.18335 19.8197C7.87647 19.9021 8.00669 20.379 8.31467 20.2962C8.84183 20.1548 9.36478 19.9776 9.69747 19.5179C9.96655 19.146 10.0515 18.6417 10.4054 18.3613C10.4513 18.3148 10.4771 18.252 10.4771 18.1866C10.4771 18.1212 10.4513 18.0584 10.4054 18.0118C10.3583 17.9669 10.2957 17.9419 10.2306 17.9419C10.1655 17.9419 10.103 17.9669 10.0559 18.0118L10.0556 18.0115Z" fill="#211715" />
                                        <path d="M12.1076 21.3034C12.1338 21.3356 12.1598 21.368 12.1855 21.4007C12.1919 21.4089 12.1979 21.4171 12.2048 21.4254C12.1972 21.4161 12.175 21.3865 12.1947 21.4131L12.2317 21.4625C12.2831 21.5312 12.3329 21.601 12.3812 21.6719C12.4762 21.8113 12.5652 21.9547 12.6482 22.1022C12.6813 22.1588 12.7355 22.1999 12.7989 22.2165C12.8623 22.2331 12.9297 22.2239 12.9862 22.1908C13.0428 22.1577 13.084 22.1035 13.1006 22.0401C13.1172 21.9767 13.108 21.9093 13.0749 21.8527C12.8948 21.5362 12.6879 21.2356 12.4564 20.9545C12.4101 20.9082 12.3473 20.8822 12.2818 20.8821C12.2163 20.8825 12.1536 20.9085 12.1071 20.9545C12.0609 21.0009 12.0348 21.0637 12.0347 21.1292C12.038 21.194 12.0636 21.2557 12.1071 21.3038L12.1076 21.3034Z" fill="#211715" />
                                        <path d="M23.906 21.3109C23.8839 21.0201 23.7482 20.7498 23.5282 20.5584C23.3081 20.367 23.0216 20.27 22.7305 20.2885L22.9689 20.6013C23.1073 20.2641 22.9614 19.875 22.702 19.639C22.5633 19.5143 22.395 19.4273 22.2131 19.3862C22.0311 19.3451 21.8417 19.3513 21.6629 19.4043C21.4838 19.4495 21.3176 19.5356 21.1773 19.6558C21.037 19.7761 20.9265 19.9271 20.8543 20.0972C20.7545 20.4165 20.7856 20.7623 20.9408 21.0586C21.1119 21.3965 21.5349 21.6452 21.9138 21.5583C22.2237 21.4873 22.0926 21.0107 21.7825 21.0817C21.7406 21.0883 21.6976 21.0825 21.6589 21.065C21.6057 21.0459 21.5556 21.0187 21.5107 20.9842C21.4288 20.9198 21.3685 20.8319 21.3377 20.7323C21.2636 20.4853 21.2658 20.2423 21.4668 20.0606C21.657 19.8888 21.9701 19.7834 22.2164 19.8966C22.4371 19.998 22.5885 20.2358 22.4925 20.4692C22.4826 20.5059 22.4812 20.5443 22.4885 20.5816C22.4958 20.6189 22.5116 20.654 22.5346 20.6842C22.5576 20.7144 22.5873 20.739 22.6212 20.7559C22.6552 20.7729 22.6927 20.7818 22.7307 20.782C23.0315 20.7585 23.3987 20.9673 23.412 21.3103C23.4244 21.6273 23.9185 21.6288 23.9062 21.3103L23.906 21.3109Z" fill="#211715" />
                                        <path d="M22.0311 20.6514C21.6253 20.8579 21.5426 21.4351 21.6931 21.8234C21.8491 22.2262 22.2264 22.5893 22.6856 22.5473C22.7508 22.546 22.8128 22.5195 22.8589 22.4734C22.9049 22.4274 22.9314 22.3653 22.9327 22.3002C22.932 22.2349 22.9058 22.1725 22.8596 22.1263C22.8134 22.0801 22.751 22.0539 22.6856 22.0531C22.6461 22.0567 22.6074 22.0541 22.568 22.0556C22.5375 22.0569 22.6109 22.0661 22.5648 22.0556C22.546 22.0513 22.5278 22.0473 22.5091 22.0415C22.5018 22.0393 22.4529 22.0187 22.4856 22.0341C22.5184 22.0496 22.4704 22.0254 22.464 22.0218C22.4473 22.0125 22.4309 22.0024 22.4146 21.9917C22.4089 21.9879 22.3668 21.9547 22.3921 21.9761C22.4174 21.9974 22.3754 21.9605 22.3706 21.9562C22.3551 21.9421 22.3398 21.9275 22.3249 21.9126C22.2991 21.8866 22.2755 21.8586 22.2508 21.832C22.285 21.8682 22.2424 21.8197 22.2376 21.8126C22.2272 21.7973 22.2175 21.7815 22.2083 21.7655C22.199 21.7496 22.1899 21.7329 22.1815 21.7161C22.1793 21.7117 22.1524 21.646 22.1691 21.6922C22.156 21.6565 22.1434 21.6208 22.1338 21.5838C22.1281 21.5618 22.1238 21.5398 22.119 21.5176C22.1091 21.4711 22.1177 21.5343 22.1171 21.506C22.1164 21.466 22.1143 21.4268 22.1154 21.3868C22.1169 21.3419 22.1102 21.4025 22.1164 21.3744C22.1203 21.356 22.123 21.3373 22.1272 21.3189C22.1322 21.2974 22.1379 21.2762 22.1445 21.2553C22.1464 21.2493 22.1654 21.1935 22.1538 21.2252C22.1422 21.2568 22.1637 21.2048 22.1662 21.1987C22.1754 21.1812 22.1859 21.1648 22.1959 21.1477C22.2187 21.1089 22.1773 21.1623 22.1969 21.1446C22.208 21.134 22.2185 21.1228 22.2283 21.111C22.2638 21.071 22.1888 21.132 22.2337 21.105C22.2489 21.0958 22.2638 21.0869 22.2794 21.0789C22.3357 21.0455 22.3765 20.9913 22.3931 20.928C22.4097 20.8647 22.4008 20.7975 22.3681 20.7408C22.334 20.6854 22.2798 20.6452 22.2168 20.6287C22.1539 20.6123 22.087 20.6206 22.03 20.6522L22.0311 20.6514Z" fill="#211715" />
                                        <path d="M22.8587 21.5462C22.7919 21.5684 22.7299 21.603 22.676 21.6483C22.6395 21.6796 22.6075 21.7159 22.581 21.756C22.5345 21.8239 22.5019 21.9004 22.4851 21.981C22.4497 22.1337 22.4503 22.2926 22.4869 22.445C22.4955 22.4763 22.5102 22.5056 22.5302 22.5312C22.5501 22.5568 22.5749 22.5782 22.6031 22.5942C22.6313 22.6102 22.6625 22.6205 22.6947 22.6245C22.7269 22.6285 22.7596 22.6262 22.7908 22.6175C22.8221 22.6089 22.8514 22.5942 22.877 22.5742C22.9026 22.5543 22.924 22.5295 22.9401 22.5013C22.9561 22.473 22.9664 22.4419 22.9704 22.4097C22.9744 22.3775 22.972 22.3448 22.9634 22.3136C22.9581 22.293 22.954 22.2721 22.951 22.251L22.9599 22.3168C22.9508 22.2468 22.9508 22.1759 22.9599 22.1059L22.9511 22.1715C22.9575 22.121 22.9703 22.0715 22.9892 22.0242L22.9645 22.0833C22.9768 22.0538 22.9927 22.026 23.0117 22.0004L22.973 22.0504C22.9883 22.0307 23.0059 22.013 23.0256 21.9978L22.9756 22.0365C22.9927 22.0238 23.0112 22.0132 23.0307 22.0048L22.9716 22.0295C22.9779 22.0271 22.984 22.0247 22.9904 22.0226C23.0519 22.0041 23.1044 21.9637 23.1381 21.9091C23.1544 21.8811 23.1652 21.8501 23.1696 21.8179C23.174 21.7858 23.172 21.753 23.1638 21.7216C23.1555 21.6902 23.1412 21.6608 23.1216 21.6349C23.1019 21.609 23.0774 21.5873 23.0494 21.5709C23.0209 21.5543 22.9894 21.5436 22.9567 21.5393C22.924 21.5351 22.8907 21.5374 22.859 21.5462H22.8587Z" fill="#211715" />
                                        <path d="M19.8963 20.5555C19.8296 20.6691 19.7962 20.7993 19.8001 20.931C19.804 21.0627 19.845 21.1907 19.9185 21.3001C20.0523 21.5029 20.2521 21.6531 20.484 21.7254C20.5473 21.7423 20.6147 21.7337 20.6716 21.7013C20.7285 21.6689 20.7703 21.6154 20.7881 21.5524C20.8039 21.4892 20.7948 21.4223 20.7626 21.3657C20.7304 21.309 20.6775 21.267 20.6151 21.2484C20.5896 21.2401 20.5644 21.2306 20.5395 21.2198L20.5986 21.2445C20.5557 21.2261 20.5144 21.2043 20.475 21.1792C20.4648 21.1726 20.4549 21.1656 20.4449 21.1588C20.4118 21.1361 20.4839 21.1908 20.4614 21.1721C20.445 21.1584 20.4286 21.1447 20.413 21.1299C20.3974 21.1151 20.3859 21.103 20.3732 21.0887C20.3669 21.0799 20.3599 21.0716 20.3523 21.0638L20.377 21.0962C20.3726 21.0904 20.3682 21.0838 20.364 21.0782C20.3389 21.0431 20.3177 21.0054 20.3005 20.9658L20.3252 21.0249C20.3079 20.9826 20.2957 20.9385 20.2888 20.8933L20.2976 20.959C20.2926 20.9185 20.2926 20.8774 20.2976 20.8368L20.2887 20.9026C20.2935 20.8708 20.3017 20.8397 20.3134 20.8098L20.2887 20.8688C20.2984 20.8466 20.3101 20.8252 20.3237 20.8051C20.3563 20.7484 20.3653 20.6812 20.3488 20.6179C20.3322 20.5546 20.2913 20.5005 20.2351 20.4671C20.1782 20.4356 20.1113 20.4272 20.0483 20.4437C19.9853 20.4602 19.9311 20.5003 19.897 20.5557L19.8963 20.5555Z" fill="#211715" />
                                    </g>
                                    <defs>
                                        <clipPath id="clip0_78_195">
                                            <rect width="40" height="40" fill="white" />
                                        </clipPath>
                                    </defs>
                                </svg>