<svg xmlns="http://www.w3.org/2000/svg" width="50" height="50" viewBox="0 0 50 50" fill="none">
                                <path d="M43.2917 31.9167L14.4167 38.2083C13.3333 38.4583 12.25 37.75 12.0417 36.6667L8 18.3333C7.75 17.25 8.45833 16.1667 9.54166 15.9583L38.4167 9.66665C39.5 9.41665 40.5833 10.125 40.7917 11.2083L44.7917 29.5833C45.0417 30.625 44.375 31.7083 43.2917 31.9167Z" fill="#383E56" />
                                <path d="M12 36.6666L8 18.3333Z" fill="#383E56" />
                                <path d="M41.2923 13.2629L8.47803 20.4095L9.29376 24.155L42.108 17.0085L41.2923 13.2629Z" fill="#ACAFBF" />
                                <path opacity="0.15" d="M44.0833 31L15.2083 37.2917C14.125 37.5417 13.0417 36.8333 12.8333 35.75L8.83333 17.375C8.74999 16.9583 8.79166 16.5 8.95833 16.125C8.24999 16.5417 7.83333 17.4167 7.99999 18.25L12 36.6667C12.25 37.75 13.2917 38.4167 14.375 38.2083L43.25 31.9167C43.9167 31.7917 44.4167 31.3333 44.6667 30.75C44.5 30.875 44.2917 30.9583 44.0833 31Z" fill="black" />
                                <path opacity="0.15" d="M39.8752 21V39.7917C39.8752 40.25 39.7085 40.7083 39.4168 41.0417C39.0835 41.3333 38.6252 41.5 38.1668 41.5H8.5835C7.4585 41.5 6.5835 40.5833 6.5835 39.5V20.7083C6.5835 20.25 6.75016 19.7917 7.04183 19.4583C7.37516 19.1667 7.8335 19 8.29183 19H37.8335C38.9585 18.9583 39.8752 19.875 39.8752 21Z" fill="black" />
                                <path opacity="0.15" d="M39.8748 21V39.7917C39.8748 40.25 39.7082 40.7083 39.4165 41.0417C39.0415 41.5 38.4998 41.7917 37.8748 41.7917H8.2915C7.1665 41.7917 6.2915 40.875 6.2915 39.7917V21C6.2915 20.375 6.58317 19.8333 7.0415 19.4583C7.37484 19.1667 7.83317 19 8.2915 19H37.8332C38.9582 18.9583 39.8748 19.875 39.8748 21Z" fill="black" />
                                <path d="M37.8332 41.7917H8.2915C7.1665 41.7917 6.2915 40.875 6.2915 39.7917V21C6.2915 19.875 7.20817 19 8.2915 19H37.8332C38.9582 19 39.8332 19.9167 39.8332 21V39.7917C39.8332 40.875 38.9582 41.7917 37.8332 41.7917Z" fill="#383E56" />
                                <path d="M15.9165 32.7917H10.0415C9.62484 32.7917 9.2915 32.4583 9.2915 32.0417V28.6667C9.2915 28.25 9.62484 27.9167 10.0415 27.9167H15.9165C16.3332 27.9167 16.6665 28.25 16.6665 28.6667V32.0833C16.6665 32.4583 16.3332 32.7917 15.9165 32.7917Z" fill="#E5CF89" />
                                <path opacity="0.15" d="M38.8333 41H9.25C8.125 41 7.25 40.0833 7.25 39V20.2083C7.25 19.75 7.41667 19.375 7.625 19.0417C6.83333 19.2917 6.25 20.0417 6.25 20.9167V39.7083C6.25 40.8333 7.16667 41.7083 8.25 41.7083H37.7917C38.4583 41.7083 39.0417 41.375 39.4167 40.875C39.25 40.9583 39.0417 41 38.8333 41Z" fill="black" />
                                <path d="M35.7915 38.25H28.8748C28.7082 38.25 28.5415 38.375 28.5415 38.5833V38.9583C28.5415 39.125 28.6665 39.2917 28.8748 39.2917H35.7915C35.9582 39.2917 36.1248 39.1667 36.1248 38.9583V38.5833C36.1248 38.375 35.9582 38.25 35.7915 38.25Z" fill="#ACAFBF" />
                                <path d="M27.2082 38.25H16.7498C16.5832 38.25 16.4165 38.375 16.4165 38.5833V38.9583C16.4165 39.125 16.5415 39.2917 16.7498 39.2917H27.2082C27.3748 39.2917 27.5415 39.1667 27.5415 38.9583V38.5833C27.5415 38.375 27.4165 38.25 27.2082 38.25Z" fill="#ACAFBF" />
                            </svg>