<svg xmlns="http://www.w3.org/2000/svg" width="30" height="30" viewBox="0 0 30 30" fill="none">
                                    <g clip-path="url(#clip0_78_431)">
                                        <path d="M26.5406 6.96562C26.3935 6.77577 26.179 6.64966 25.9416 6.6133C25.7042 6.57693 25.4618 6.6331 25.2646 6.7702C25.0673 6.90731 24.9303 7.11489 24.8816 7.35012C24.833 7.58534 24.8765 7.83027 25.0031 8.03437C26.0958 9.60428 26.8036 11.4093 27.0693 13.3035C27.335 15.1977 27.1512 17.1278 26.5327 18.9378C25.9141 20.7477 24.8783 22.3867 23.5089 23.7221C22.1395 25.0575 20.475 26.0518 18.6501 26.6247C16.8251 27.1975 14.891 27.3328 13.0041 27.0196C11.1172 26.7063 9.33048 25.9533 7.78853 24.8216C6.24658 23.6898 4.99267 22.211 4.12821 20.5047C3.26376 18.7985 2.81304 16.9127 2.8125 15C2.82432 12.3775 3.67655 9.82796 5.24409 7.72553C6.81163 5.6231 9.0119 4.07859 11.5219 3.31874C11.6401 3.28366 11.7502 3.22563 11.846 3.14799C11.9417 3.07034 12.0213 2.97459 12.08 2.86621C12.1388 2.75783 12.1756 2.63893 12.1884 2.51631C12.2012 2.39369 12.1898 2.26975 12.1547 2.15156C12.1196 2.03337 12.0616 1.92324 11.9839 1.82748C11.9063 1.73171 11.8105 1.65218 11.7022 1.59342C11.5938 1.53465 11.4749 1.49782 11.3523 1.485C11.2296 1.47219 11.1057 1.48366 10.9875 1.51874C8.48782 2.26292 6.24433 3.6876 4.5078 5.63354C2.77127 7.57949 1.61011 9.97002 1.15411 12.538C0.69811 15.1059 0.965231 17.7501 1.92562 20.1749C2.88601 22.5998 4.50182 24.7097 6.59247 26.2691C8.68311 27.8284 11.1662 28.7755 13.7642 29.0047C16.3623 29.2339 18.9728 28.7361 21.3042 27.5669C23.6355 26.3977 25.5958 24.6032 26.9659 22.3839C28.336 20.1647 29.0619 17.6081 29.0625 15C29.0677 12.1263 28.1871 9.32084 26.5406 6.96562Z" fill="#6C5FBC" />
                                        <path d="M18.478 3.31875C19.9396 3.76222 21.3041 4.47791 22.4999 5.42813C22.5966 5.50446 22.7073 5.56101 22.8258 5.59454C22.9443 5.62808 23.0682 5.63795 23.1905 5.62358C23.3128 5.60922 23.4311 5.5709 23.5386 5.51083C23.6461 5.45075 23.7408 5.37008 23.8171 5.27344C23.8934 5.1768 23.95 5.06606 23.9835 4.94756C24.017 4.82907 24.0269 4.70512 24.0125 4.58281C23.9982 4.4605 23.9599 4.34221 23.8998 4.23471C23.8397 4.1272 23.759 4.03258 23.6624 3.95625C22.2692 2.85297 20.6782 2.02567 18.9749 1.51875C18.7362 1.44789 18.4791 1.47475 18.2603 1.59343C18.0414 1.7121 17.8786 1.91287 17.8077 2.15157C17.7369 2.39026 17.7637 2.64733 17.8824 2.86622C18.0011 3.08511 18.2018 3.24789 18.4405 3.31875H18.478ZM14.3343 2.54063C14.4254 2.62344 14.53 2.69003 14.6437 2.7375C14.7559 2.7871 14.8772 2.81272 14.9999 2.81272C15.1226 2.81272 15.2439 2.7871 15.3562 2.7375C15.4697 2.68986 15.5743 2.62329 15.6655 2.54063C15.7524 2.45303 15.8212 2.34914 15.8678 2.23492C15.9145 2.12069 15.9381 1.99838 15.9374 1.875C15.934 1.62678 15.8368 1.38903 15.6655 1.20938C15.5573 1.0965 15.4225 1.01249 15.2735 0.965007C15.1245 0.917522 14.966 0.908066 14.8124 0.937503C14.7537 0.947898 14.6969 0.96685 14.6437 0.993753C14.5838 1.01406 14.5271 1.04245 14.4749 1.07813L14.3343 1.19063C14.2489 1.27979 14.182 1.38492 14.1374 1.5C14.0869 1.61852 14.0614 1.74618 14.0624 1.875C14.0639 1.99751 14.0894 2.11854 14.1374 2.23125C14.185 2.34478 14.2516 2.44939 14.3343 2.54063ZM6.74053 13.7063C6.64019 13.8056 6.56054 13.9239 6.50618 14.0542C6.45182 14.1846 6.42383 14.3244 6.42383 14.4656C6.42383 14.6068 6.45182 14.7467 6.50618 14.877C6.56054 15.0074 6.64019 15.1256 6.74053 15.225L12.103 20.625C12.2024 20.7253 12.3207 20.805 12.451 20.8594C12.5814 20.9137 12.7212 20.9417 12.8624 20.9417C13.0036 20.9417 13.1434 20.9137 13.2738 20.8594C13.4041 20.805 13.5224 20.7253 13.6218 20.625L23.2593 10.9406C23.4669 10.7392 23.586 10.4636 23.5904 10.1744C23.5948 9.88517 23.4841 9.60605 23.2827 9.39844C23.0813 9.19082 22.8057 9.07172 22.5165 9.06732C22.2273 9.06293 21.9481 9.1736 21.7405 9.375L12.853 18.2625L8.25928 13.7063C8.05734 13.5059 7.78439 13.3934 7.49991 13.3934C7.21542 13.3934 6.94247 13.5059 6.74053 13.7063Z" fill="#6C5FBC" />
                                    </g>
                                    <defs>
                                        <clipPath id="clip0_78_431">
                                            <rect width="30" height="30" fill="white" />
                                        </clipPath>
                                    </defs>
                                </svg>